<svg xmlns="http://www.w3.org/2000/svg" xmlns:xlink="http://www.w3.org/1999/xlink" width="210" height="240" viewBox="0 0 210 240">
  <defs>
    <clipPath id="clip-path">
      <rect id="Rect치ngulo_401514" data-name="Rect치ngulo 401514" width="147.923" height="201.234" transform="translate(0 0)" fill="none"/>
    </clipPath>
  </defs>
  <g id="Grupo_1100232" data-name="Grupo 1100232" transform="translate(-390 -5931)">
    <rect id="Rect치ngulo_401515" data-name="Rect치ngulo 401515" width="210" height="240" transform="translate(390 5931)" fill="#082952"/>
    <g id="Grupo_1099361" data-name="Grupo 1099361" transform="translate(409.949 5969.771)">
      <g id="Grupo_1099360" data-name="Grupo 1099360" transform="translate(0 -0.004)" clip-path="url(#clip-path)">
        <path id="Trazado_876317" data-name="Trazado 876317" d="M226.622,797.178c4.967,8.768,10.011,21.472,9.643,32.437-7.643,8.372-16.949,18.558-28.726,18.785-.079-29.172,9.287-46.1,19.083-51.223" transform="translate(-184.661 -709.302)" fill="#e4e134" fill-rule="evenodd"/>
        <path id="Trazado_876318" data-name="Trazado 876318" d="M57.011,916.418c-17.566-.673-18.281-22.911-16.265-36.821,3.143-6.783,16.921-6.785,30.438-4.849,3.725,14.092,7.355,42.494-14.173,41.67" transform="translate(-35.555 -777.331)" fill="#d5d22d" fill-rule="evenodd"/>
        <path id="Trazado_876319" data-name="Trazado 876319" d="M41.4,891.318c1.781-3.529,17.513-5.345,30.7-3.409,4.35,15.99-4.439,25.29-14.532,25.543-12.123.307-19.324-9.881-16.164-22.135" transform="translate(-36.177 -789.33)" fill="#fff" fill-rule="evenodd"/>
        <path id="Trazado_876320" data-name="Trazado 876320" d="M95.655,907.464c1.709,22.593-26.236,22.968-25.245,1.008a34.3,34.3,0,0,1,25.245-1.008" transform="translate(-62.626 -805.712)" fill="#f3d291" fill-rule="evenodd"/>
        <path id="Trazado_876321" data-name="Trazado 876321" d="M473.42,749.772c-4.537-13.887-12.347-18.9-32.783-23.157H402.744c-10.043,2.092-17.035,4.367-22.09,7.788.782,12.922.2,25.394.2,37.44,4.789,25.334,1.337,50.5,1.36,75.908h78.118c-.873-20.183-2.176-37.982-.894-59.064l7.305,59.064h19.868c-.375-13.768-1.415-25.2-2.876-39.8-2.024-20.212-5.508-43.447-10.32-58.18" transform="translate(-338.693 -646.517)" fill="#e4e134"/>
        <path id="Trazado_876322" data-name="Trazado 876322" d="M1117.833,1397.609a96.063,96.063,0,0,0,20.494-1.988l-.912-8.438a125.834,125.834,0,0,1-20.527,2.009Z" transform="translate(-993.769 -1234.269)" fill="#f3f3f3"/>
        <path id="Trazado_876323" data-name="Trazado 876323" d="M402.508,1677.906a292.382,292.382,0,0,0,76.141-.391c-.165-3.5-.333-6.95-.487-10.375a339,339,0,0,1-75.342.332c-.13,3.475-.244,6.953-.312,10.434" transform="translate(-358.138 -1483.365)" fill="#f3f3f3"/>
        <path id="Trazado_876324" data-name="Trazado 876324" d="M418.459,745.555l-.162.052-.014,0-.147.047-.16.051-.15.049-.01,0-.158.052-.158.053-.137.046-.021.006-.156.052-.056.02-.1.034-.155.053-.089.03-.065.023-.153.052-.121.042-.033.012-.3.108-.3.108-.031.012-.024.008q-2.209.812-4.106,1.724c2.241,20.595,3.38,40.812,3.8,60.88-1.109-.07-3.126-.123-4.495-.194.163,3.65.223,7.3.213,10.948,11.412.9,24.666,1.355,36.2,1.382V810.146q-10.8-.043-21.588-.515c-.366-21.793-2.092-43.43-4.449-64.924q-1.492.413-2.869.848" transform="translate(-365.651 -662.615)" fill="#f3f3f3"/>
        <path id="Trazado_876325" data-name="Trazado 876325" d="M647.186,508.49h.008a13.263,13.263,0,0,1,13.1,13.346v15.882a13.26,13.26,0,0,1-13.1,13.343h-.008a13.257,13.257,0,0,1-13.1-13.343V521.836a13.26,13.26,0,0,1,13.1-13.346" transform="translate(-564.192 -452.437)" fill="#f3d291" fill-rule="evenodd"/>
        <path id="Trazado_876326" data-name="Trazado 876326" d="M647.186,508.49h.008a13.263,13.263,0,0,1,13.1,13.346v11.4A16.642,16.642,0,0,1,647.2,539.2h-.01a16.642,16.642,0,0,1-13.1-5.967v-11.4a13.26,13.26,0,0,1,13.1-13.346" transform="translate(-564.192 -452.437)" fill="#d4a15e" fill-rule="evenodd"/>
        <path id="Trazado_876327" data-name="Trazado 876327" d="M779,741.646c-2.376,21.606-4.118,43.354-4.486,65.261q-10.794.472-21.588.515v11.07q18.112-.042,35.974-1.5l.448-.035c.037-3.568.133-7.2.307-10.921q-2.406.173-4.811.325c.42-20.253,1.576-40.656,3.858-61.445a65.118,65.118,0,0,0-9.7-3.265" transform="translate(-669.932 -659.891)" fill="#f3f3f3"/>
        <path id="Trazado_876328" data-name="Trazado 876328" d="M598.717,842.685v-72.6c0-7.616.578-12.762-2.75-19.827-4.585-9.735-9.034-17.874-14.913-28.707a13.583,13.583,0,0,1,5.846-.5c.346,15.995,25.853,15.995,26.2,0a13.584,13.584,0,0,1,5.846.5c-5.879,10.833-10.327,18.971-14.913,28.707-3.328,7.065-2.749,12.211-2.749,19.827v72.6Z" transform="translate(-517.002 -641.451)" fill="#3c3c3c" fill-rule="evenodd"/>
        <path id="Trazado_876329" data-name="Trazado 876329" d="M815.331,1094.8c9.456-.232,18.588-.133,28.036.263a57.538,57.538,0,0,1,0,9.088c-9.5-.483-18.524-.565-28.036-.263a67.624,67.624,0,0,1,0-9.088" transform="translate(-725.318 -974.01)" fill="#f3f3f3" fill-rule="evenodd"/>
        <path id="Trazado_876330" data-name="Trazado 876330" d="M824.607,1102.038c8.792-.2,17.321-.109,26.106.246a60.1,60.1,0,0,1,0,7.456c-8.817-.417-17.276-.495-26.1-.242-.116-2.529-.13-4.93,0-7.46" transform="translate(-733.628 -980.463)" fill="#3250a6" fill-rule="evenodd"/>
        <path id="Trazado_876331" data-name="Trazado 876331" d="M843.695,1118.944c-.034-1.5-.04-2.978,0-4.482a14.954,14.954,0,0,1,2.469.017,1.236,1.236,0,0,1,.867,1.3,1.471,1.471,0,0,1-.148.694,1.287,1.287,0,0,1-.833.667,8.541,8.541,0,0,1-1.495.1c.006.563.017,1.128.028,1.69l-.884.022m.864-3.746q-.009.639-.008,1.277l.483-.01c.528-.012,1.077-.061,1.077-.663,0-.649-.6-.625-1.128-.613-.139,0-.281.007-.423.008m3.01,1.456a2.1,2.1,0,0,1,2.14-2.361,2.321,2.321,0,1,1-2.14,2.361m.918-.039c0,.708.3,1.539,1.229,1.534s1.208-.852,1.211-1.562-.261-1.524-1.214-1.519-1.223.822-1.225,1.547m4.071,2.219c0-1.474-.005-2.95,0-4.425.3,0,.591,0,.89,0,0,1.223-.009,2.45,0,3.672.731.005,1.464.01,2.2.02,0,.252,0,.5-.006.752q-1.539-.015-3.084-.022m3.684.03q.017-2.228,0-4.458c.292,0,.591.007.889.013.011,1.487.02,2.974,0,4.461l-.887-.016m4.556-1.545.855.294a1.93,1.93,0,0,1-.67,1.076,2.036,2.036,0,0,1-2.6-.319,2.824,2.824,0,0,1,0-3.392,2.031,2.031,0,0,1,2.794-.061,1.836,1.836,0,0,1,.458.836c-.287.063-.58.124-.873.186a.984.984,0,0,0-.33-.556,1.018,1.018,0,0,0-1.393.122,2.453,2.453,0,0,0-.006,2.357.984.984,0,0,0,1.388.165,1.3,1.3,0,0,0,.372-.708m1.594,1.7c.034-1.494.037-2.974,0-4.468q1.619.054,3.244.12c.008.253.017.5.023.756-.79-.031-1.575-.062-2.362-.092q.009.5.017.994,1.1.041,2.2.086c0,.254,0,.506,0,.759q-1.1-.048-2.2-.088c-.006.4-.009.808-.015,1.211.813.033,1.629.066,2.445.1-.006.252-.014.5-.023.755q-1.667-.072-3.329-.133" transform="translate(-750.666 -991.461)" fill="#eee"/>
        <path id="Trazado_876332" data-name="Trazado 876332" d="M.113,461.256l3.055,30.06c2.5,15.176,20.659,19.915,29.4,9.264,4.516-5.5,10.986-18.348,15-25.131-.682-3.066-4.54-4.235-7.213-.7l-7.737,9.11,1.438-33.229c-.059-5.932-6.31-6.71-6.838-.174l-1.7,20.538-1.6-22.874c-.367-5.97-6.823-5.739-6.591.895l.23,21.54-3.1-19.708c-.92-4.766-7.174-3.319-6.459,1.9L9.556,473l-3.33-14.02C4.986,453-.882,454.885.113,461.256" transform="translate(0 -394.901)" fill="#f2d291" fill-rule="evenodd"/>
        <path id="Trazado_876333" data-name="Trazado 876333" d="M31.9,727.9c3.5,13.848,20.638,17.856,29.055,7.6,4.516-5.5,10.986-18.348,15-25.132a3.64,3.64,0,0,0-1.91-2.517,2.5,2.5,0,0,1,.685,2.013c-4.339,7.055-9.973,17.569-14.489,23.12-7.945,9.762-23.666,6.89-28.341-5.088" transform="translate(-28.382 -629.823)" fill="#d4a15e" fill-rule="evenodd"/>
        <path id="Trazado_876334" data-name="Trazado 876334" d="M1143.3,1616.85a95,95,0,0,0,19.9-1.825l-.694-8.033a127.854,127.854,0,0,1-20.182,1.874Z" transform="translate(-1016.402 -1429.847)" fill="#f3f3f3"/>
        <path id="Trazado_876335" data-name="Trazado 876335" d="M452.67,42.16C426.615,18.471,451.261.06,476.768,0c25.634-.054,50.775,18.049,24.592,41.876l-24.41-2.907Z" transform="translate(-392.889 0.004)" fill="#3a3a3a" fill-rule="evenodd"/>
        <path id="Trazado_876336" data-name="Trazado 876336" d="M548.88,293.636c-1.272-1.536-4.024-.476-5.867.5a87.561,87.561,0,0,0,.506-10.242c-19.094-14.271-47.4-1.457-47.905-.975-.228.237.16,5.143.877,11.026-1.818-.919-4.3-1.749-5.483-.312-2.018,2.438,1.68,11.36,4.185,12.819a6.474,6.474,0,0,0,3.387.746c2.116,10.17,9.406,19.949,20.25,20.019,11.981.076,19.021-10.124,21.794-20.059a7.026,7.026,0,0,0,4.065-.706c2.512-1.46,6.215-10.382,4.191-12.819" transform="translate(-436.366 -246.621)" fill="#f3d291"/>
        <path id="Trazado_876337" data-name="Trazado 876337" d="M606.048,339.407s-17.168-1.658-18.326-1.749c-1.157-.075-20.869.827-21.11.912s-2.583.671-2.583.671l-.986.329c-.461,8.349,41.962,9.509,43.006-.162" transform="translate(-500.973 -300.433)" fill="#e0b775"/>
        <path id="Trazado_876338" data-name="Trazado 876338" d="M947.879,322.12s-1.327,19.392-.542,18.614,1.775-6.722,2.406-7.543a4.387,4.387,0,0,1,1.767-1.458s1.237-5.907,1.125-8.1a4.66,4.66,0,0,0-1.054-3.071Z" transform="translate(-842.688 -285.223)" fill="#6e484a"/>
        <path id="Trazado_876339" data-name="Trazado 876339" d="M526.134,312.255s-1,9.7-.9,12.548c.114,2.839,1.117,8.267.451,7.883-.677-.4-2.116-8.165-2.445-8.668a4.351,4.351,0,0,0-1.989-1.307,51.418,51.418,0,0,1-.253-8.137,8.5,8.5,0,0,1,1.731-3.934Z" transform="translate(-463.474 -276.397)" fill="#6e484a"/>
        <path id="Trazado_876340" data-name="Trazado 876340" d="M737.877,495.659c-2.373.492-3.321.351-4.642-.216l.2-6.5a28.97,28.97,0,0,0-1.1,4.1c-.451,2.533-.019,4.077,2.682,4.077a2.983,2.983,0,0,0,2.857-1.462" transform="translate(-651.473 -435.046)" fill="#d4a15e"/>
        <path id="Trazado_876341" data-name="Trazado 876341" d="M578.082,187.785c-4.5-4.032-17.263-6.908-26.024-6.97h-.271c-8.752.061-21.509,2.938-26.014,6.97v6.437l26.156-4.062,26.153,4.062Z" transform="translate(-467.815 -160.883)" fill="#545454" fill-rule="evenodd"/>
        <path id="Trazado_876342" data-name="Trazado 876342" d="M578.082,201.163c-4.5-4.018-17.263-6.9-26.024-6.962V194.2h-.271c-8.752.063-21.509,2.949-26.014,6.967v6.431l26.156-4.055,26.153,4.055Z" transform="translate(-467.815 -172.789)" fill="#333" fill-rule="evenodd"/>
        <path id="Trazado_876343" data-name="Trazado 876343" d="M961.672,452.841c.658-2.857.879-5.9,2.134-7.455.7-.863,1.682-1.062,3.324-.99a7.136,7.136,0,0,0-3.448,3.764,2.05,2.05,0,0,1,.6-.238c.61-.114,1.145.292,1.919,1.193a3.183,3.183,0,0,0-3.113.45,20.626,20.626,0,0,1-1.421,3.275" transform="translate(-855.664 -395.396)" fill="#d4a15e" fill-rule="evenodd"/>
        <path id="Trazado_876344" data-name="Trazado 876344" d="M510.691,452.841c-.67-2.857-.887-5.9-2.144-7.455-.693-.863-1.683-1.062-3.317-.99a7.111,7.111,0,0,1,3.439,3.764,2.115,2.115,0,0,0-.6-.238c-.611-.114-1.147.292-1.921,1.193a3.169,3.169,0,0,1,3.108.45,21.154,21.154,0,0,0,1.433,3.275" transform="translate(-449.537 -395.396)" fill="#d4a15e" fill-rule="evenodd"/>
        <path id="Trazado_876345" data-name="Trazado 876345" d="M694.587,614.743c-1.309-.306-1.128.488-.681.734,2.45,1.355,11.12,1.355,13.578,0,.438-.246.624-1.041-.687-.734a32.57,32.57,0,0,1-12.209,0" transform="translate(-617.119 -546.916)" fill="#d4a15e"/>
        <path id="Trazado_876346" data-name="Trazado 876346" d="M527.4,215.309c1.017-.342,2.032-.7,3.064-1.048-.011-.454-.011-.914-.011-1.372v-1.382c1.021-.341,2.033-.681,3.049-1.014v1.426c0,.473,0,.95.014,1.427,1.016-.282,2.033-.539,3.052-.794-.019-.489-.019-.982-.019-1.467v-1.464c1.02-.269,2.042-.512,3.068-.743v3.005c1.008-.209,2.037-.377,3.055-.547,0-.51,0-1.023,0-1.531s0-1.023-.008-1.532c1.018-.191,2.033-.32,3.046-.453,0,.513,0,1.031.014,1.557v1.552c1.02-.107,2.046-.2,3.058-.277v-1.581c0-.518-.013-1.039-.013-1.567,1.021-.087,2.03-.148,3.049-.176,0,.534.009,1.066.014,1.581v1.6c1.019-.042,2.042-.043,3.062-.023-.015-.534-.015-1.059-.015-1.588s0-1.061-.019-1.6c1.03.027,2.051.055,3.069.135,0,.527,0,1.051,0,1.582s0,1.063.011,1.59c1.012.058,2.035.136,3.049.252-.005-.518-.005-1.056-.005-1.572s0-1.048-.007-1.579c1.016.126,2.042.267,3.059.424V209.7c.01.524.01,1.042.01,1.552,1.018.163,2.034.329,3.067.537-.02-.513-.02-1.028-.02-1.532s-.008-1.013-.01-1.527c1.029.238,2.046.466,3.06.739,0,.5.006,1,.006,1.493.018.5.018,1.012.018,1.494,1.026.271,2.037.538,3.055.821-.007-.481-.007-.982-.007-1.46s0-.96-.014-1.443c1.025.353,2.038.7,3.067,1.061,0,.468.019.928.019,1.408,0,.455,0,.92,0,1.394,1.021.369,2.037.737,3.063,1.107,0-.446,0-.9-.009-1.343s0-.89-.016-1.341c-1.028-.4-2.045-.822-3.06-1.225,0-.473-.013-.929-.013-1.4v-1.4c-1.026-.393-2.044-.779-3.064-1.165v1.448c0,.482,0,.973.009,1.454-1.023-.319-2.035-.611-3.058-.905v-1.49c0-.506,0-1,0-1.5-1.034-.288-2.044-.549-3.06-.81V207.2c0,.5,0,1.016,0,1.526-1.017-.221-2.034-.409-3.046-.593-.012-.513-.012-1.031-.013-1.555v-1.56c-1.021-.174-2.037-.321-3.06-.456,0,.535.014,1.044.014,1.567v1.58c-1.009-.119-2.042-.2-3.051-.273,0-.534-.008-1.06-.008-1.588s-.005-1.051-.005-1.593c-1.011-.072-2.032-.1-3.056-.126,0,.529,0,1.068,0,1.587V207.3c-1.015-.023-2.029-.005-3.043.027-.01-.53-.01-1.051-.01-1.579v-1.585c-1.021.034-2.044.091-3.047.193,0,.527-.005,1.047,0,1.565s0,1.057.008,1.582c-1.015.086-2.037.183-3.059.316,0-.53,0-1.036,0-1.56V204.7c-1.017.15-2.036.314-3.043.518v3.055c-1.022.2-2.043.37-3.044.606-.011-.5-.011-1.006-.011-1.5v-1.508c-1.019.263-2.042.527-3.057.827,0,.478,0,.966,0,1.445v1.482c-1.015.284-2.018.572-3.047.872v-2.846c-1.017.37-2.028.731-3.049,1.112v2.748c-1.021.386-2.038.777-3.053,1.147v2.654Z" transform="translate(-469.262 -181.628)" fill="#fff" fill-rule="evenodd"/>
        <path id="Trazado_876347" data-name="Trazado 876347" d="M578.082,282.12c-3.319-1.279-12.187-3.847-26.145-4.055l-.008,0v-.007c-13.971.213-22.832,2.781-26.155,4.06,1.515,8.983,22.489,9.146,26.156,9.118,3.664.028,24.636-.135,26.153-9.118" transform="translate(-467.815 -247.408)" fill="#333" fill-rule="evenodd"/>
        <path id="Trazado_876348" data-name="Trazado 876348" d="M578.082,282.12c-3.319-1.279-12.187-3.847-26.145-4.055l-.008,0v-.007c-13.971.213-22.832,2.781-26.155,4.06l.154.667c3.44-1.3,12.235-3.8,26-4.013v.007l.008,0c13.764.208,22.561,2.709,25.991,4.009Z" transform="translate(-467.815 -247.408)" fill="#545454" fill-rule="evenodd"/>
        <path id="Trazado_876349" data-name="Trazado 876349" d="M605.977,406.018s4.337-1.173,7.3-.765a17.444,17.444,0,0,1,5.248,1.672,6.1,6.1,0,0,0-5.271-4.087c-4.307-.566-7.279,3.179-7.279,3.179" transform="translate(-539.178 -358.38)" fill="#413434"/>
        <path id="Trazado_876350" data-name="Trazado 876350" d="M627.027,444.761c.172-.972-.641-1.768-1.817-1.79a2.393,2.393,0,0,0-2.435,1.706,1.361,1.361,0,0,0,.449,1.276,9.169,9.169,0,0,1-3.6-1.02,1.357,1.357,0,0,1,.238-.443c1.239-2.235,5.8-2.058,5.8-2.058,2.166.152,4.219,2.41,4.745,3.022a30.821,30.821,0,0,1-4.263.562,1.961,1.961,0,0,0,.891-1.255" transform="translate(-551.318 -393.657)" fill="#fffbff"/>
        <path id="Trazado_876351" data-name="Trazado 876351" d="M647.042,447.774a2.151,2.151,0,0,1,2.326-1.785,1.94,1.94,0,0,1,2.09,1.865,1.767,1.767,0,0,1-.774,1.316,23.091,23.091,0,0,1-3.029-.059,1.589,1.589,0,0,1-.613-1.337" transform="translate(-575.713 -396.826)" fill="#413434"/>
        <path id="Trazado_876352" data-name="Trazado 876352" d="M629.02,444.615s-5.331-6.5-10.927-.483l-.173-.082s.524-1.633,3.119-2.395a7.888,7.888,0,0,1,2.658-.329,7.383,7.383,0,0,1,5.323,3.288" transform="translate(-549.805 -392.668)" fill="#413434"/>
        <path id="Trazado_876353" data-name="Trazado 876353" d="M809.15,406.018a23.145,23.145,0,0,0-7.312-.761,17.389,17.389,0,0,0-5.243,1.668,6.1,6.1,0,0,1,5.256-4.087c4.318-.566,7.3,3.179,7.3,3.179" transform="translate(-708.784 -358.38)" fill="#413434"/>
        <path id="Trazado_876354" data-name="Trazado 876354" d="M802.325,444.758c-.173-.965.635-1.765,1.809-1.787a2.4,2.4,0,0,1,2.441,1.706,1.4,1.4,0,0,1-.449,1.276,9.254,9.254,0,0,0,3.6-1.021,1.552,1.552,0,0,0-.241-.443c-1.241-2.235-5.8-2.058-5.8-2.058-2.158.15-4.207,2.4-4.744,3.022a29.341,29.341,0,0,0,4.269.56,1.943,1.943,0,0,1-.885-1.256" transform="translate(-710.871 -393.657)" fill="#fffbff"/>
        <path id="Trazado_876355" data-name="Trazado 876355" d="M833.65,447.775a2.145,2.145,0,0,0-2.319-1.785,1.947,1.947,0,0,0-2.1,1.866,1.838,1.838,0,0,0,.77,1.319,21.515,21.515,0,0,0,3.04-.065,1.594,1.594,0,0,0,.607-1.335" transform="translate(-737.822 -396.826)" fill="#413434"/>
        <path id="Trazado_876356" data-name="Trazado 876356" d="M797.843,444.568s5.319-6.5,10.926-.483l.171-.082s-.527-1.627-3.123-2.389a8.008,8.008,0,0,0-2.655-.344,7.42,7.42,0,0,0-5.319,3.3" transform="translate(-709.894 -392.621)" fill="#413434"/>
        <path id="Trazado_876357" data-name="Trazado 876357" d="M730.34,79.424c2.233,0,4.049,2.108,4.049,4.706s-1.816,4.711-4.049,4.711-4.052-2.111-4.052-4.711,1.81-4.706,4.052-4.706" transform="translate(-646.227 -70.668)" fill="#c2c2c2" fill-rule="evenodd"/>
      </g>
    </g>
  </g>
</svg>
