<svg xmlns="http://www.w3.org/2000/svg" xmlns:xlink="http://www.w3.org/1999/xlink" width="680.788" height="680.719" viewBox="0 0 680.788 680.719">
  <defs>
    <clipPath id="clip-path">
      <rect id="Rectángulo_401928" data-name="Rectángulo 401928" width="680.788" height="680.719" fill="none"/>
    </clipPath>
    <clipPath id="clip-path-2">
      <rect id="Rectángulo_401930" data-name="Rectángulo 401930" width="49.202" height="58.67" fill="#35a064"/>
    </clipPath>
    <clipPath id="clip-path-3">
      <rect id="Rectángulo_401931" data-name="Rectángulo 401931" width="66.606" height="63.966" fill="#8a803d"/>
    </clipPath>
    <clipPath id="clip-path-4">
      <rect id="Rectángulo_401932" data-name="Rectángulo 401932" width="64" height="64" fill="#35a064"/>
    </clipPath>
    <clipPath id="clip-path-5">
      <rect id="Rectángulo_401933" data-name="Rectángulo 401933" width="61.912" height="46.576" fill="#8a803d"/>
    </clipPath>
    <clipPath id="clip-path-6">
      <rect id="Rectángulo_401929" data-name="Rectángulo 401929" width="71.953" height="42.889" fill="#35a064"/>
    </clipPath>
    <clipPath id="clip-path-7">
      <rect id="Rectángulo_401934" data-name="Rectángulo 401934" width="65.578" height="61.602" fill="#8a803d"/>
    </clipPath>
    <clipPath id="clip-path-8">
      <rect id="Rectángulo_401935" data-name="Rectángulo 401935" width="71" height="57.026" fill="#8a803d"/>
    </clipPath>
    <clipPath id="clip-path-9">
      <rect id="Rectángulo_401936" data-name="Rectángulo 401936" width="54.883" height="58.834" fill="#77af8f" stroke="#179989" stroke-width="1"/>
    </clipPath>
  </defs>
  <g id="Grupo_1100307" data-name="Grupo 1100307" transform="translate(-459.606 -4491)">
    <g id="Grupo_1100208" data-name="Grupo 1100208" transform="translate(459.606 4491)">
      <g id="Grupo_1100207" data-name="Grupo 1100207" clip-path="url(#clip-path)">
        <path id="Trazado_877497" data-name="Trazado 877497" d="M255.487,297.94a115.224,115.224,0,0,1-44.244-8.787l-55.878,134.9a262.271,262.271,0,0,0,200.246,0l-55.878-134.9a115.232,115.232,0,0,1-44.245,8.787" transform="translate(84.907 158.022)" fill="#f6f0ca"/>
        <path id="Trazado_877499" data-name="Trazado 877499" d="M242.633,357.318a64.063,64.063,0,1,0,62.837,51.588,63.438,63.438,0,0,0-62.837-51.588" transform="translate(97.563 195.275)" fill="#fcf9e8"/>
        <path id="Trazado_877500" data-name="Trazado 877500" d="M238.807,470.794a53.238,53.238,0,1,1,20.336-4.038A52.971,52.971,0,0,1,238.807,470.794Z" transform="translate(101.391 199.099)" fill="none" stroke="#b8aa52" stroke-miterlimit="10" stroke-width="1"/>
        <path id="Trazado_877501" data-name="Trazado 877501" d="M255.487,196.916a115.233,115.233,0,0,1,44.245,8.787L355.611,70.8a262.271,262.271,0,0,0-200.246,0l55.878,134.9a115.219,115.219,0,0,1,44.244-8.787" transform="translate(84.907 27.838)" fill="#f6f0ca"/>
        <path id="Trazado_877503" data-name="Trazado 877503" d="M267.45,4.895a64.064,64.064,0,0,0-87.4,71.643,64.064,64.064,0,0,0,125.666.043A63.438,63.438,0,0,0,267.45,4.895" transform="translate(97.702)" fill="#fcf9e8"/>
        <path id="Trazado_877504" data-name="Trazado 877504" d="M239.061,113.475A52.712,52.712,0,0,1,186.844,70.6a53.237,53.237,0,1,1,104.429.036A52.722,52.722,0,0,1,239.061,113.475Z" transform="translate(101.531 3.826)" fill="none" stroke="#b8aa52" stroke-miterlimit="10" stroke-width="1"/>
        <path id="Trazado_877505" data-name="Trazado 877505" d="M424.077,155.342l-134.9,55.878a115.782,115.782,0,0,1,0,88.489l134.9,55.878a262.272,262.272,0,0,0,0-200.246" transform="translate(158.035 84.894)" fill="#f6f0ca"/>
        <path id="Trazado_877507" data-name="Trazado 877507" d="M480.607,218.384a63.707,63.707,0,0,0-58.968-39.614c-36.055,0-64.3,28.151-64.3,64.089s28.241,64.085,64.294,64.087h0a64.086,64.086,0,0,0,58.968-88.562" transform="translate(195.288 97.698)" fill="#fcf9e8"/>
        <path id="Trazado_877508" data-name="Trazado 877508" d="M417.81,292.294c-29.984,0-53.469-23.4-53.469-53.261s23.487-53.261,53.472-53.261a53.262,53.262,0,0,1,0,106.523Z" transform="translate(199.113 101.524)" fill="none" stroke="#b8aa52" stroke-miterlimit="10" stroke-width="1"/>
        <path id="Trazado_877509" data-name="Trazado 877509" d="M196.939,255.464a115.219,115.219,0,0,1,8.787-44.244l-134.9-55.878a262.271,262.271,0,0,0,0,200.246l134.9-55.878a115.233,115.233,0,0,1-8.787-44.245" transform="translate(27.851 84.894)" fill="#f6f0ca"/>
        <path id="Trazado_877511" data-name="Trazado 877511" d="M128.16,242.6c0-35.938-28.242-64.087-64.3-64.087a64.088,64.088,0,0,0,0,128.174h.008a64.682,64.682,0,0,0,43.418-16.6A63.09,63.09,0,0,0,128.16,242.6" transform="translate(0 97.559)" fill="#fcf9e8"/>
        <path id="Trazado_877512" data-name="Trazado 877512" d="M60.03,292.039a53.263,53.263,0,0,1,0-106.524c29.985,0,53.473,23.4,53.473,53.263a52.392,52.392,0,0,1-17.3,39.453,53.874,53.874,0,0,1-36.168,13.809Z" transform="translate(3.828 101.384)" fill="none" stroke="#b8aa52" stroke-miterlimit="10" stroke-width="1"/>
        <path id="Trazado_877513" data-name="Trazado 877513" d="M261.28,198.685,205.4,63.784A262.459,262.459,0,0,0,63.807,205.378l134.9,55.878a115.981,115.981,0,0,1,62.573-62.571" transform="translate(34.871 34.858)" fill="#95dbb3"/>
        <path id="Trazado_877515" data-name="Trazado 877515" d="M116.84,52.159A64.563,64.563,0,0,0,92.057,57.14,64.168,64.168,0,0,0,63,151.69a64.557,64.557,0,0,0,53.746,28.856,64.195,64.195,0,0,0,.093-128.387" transform="translate(28.632 28.505)" fill="#effaf4"/>
        <path id="Trazado_877516" data-name="Trazado 877516" d="M112.922,165.894a53.75,53.75,0,0,1-44.742-24.04A53.343,53.343,0,0,1,92.367,63.318a53.8,53.8,0,0,1,20.647-4.16,53.37,53.37,0,0,1-.093,106.736Z" transform="translate(32.459 32.33)" fill="none" stroke="#5178aa" stroke-miterlimit="10" stroke-width="1"/>
        <path id="Trazado_877517" data-name="Trazado 877517" d="M311.287,261.257l134.9-55.878A262.459,262.459,0,0,0,304.594,63.784l-55.878,134.9a115.973,115.973,0,0,1,62.571,62.571" transform="translate(135.923 34.858)" fill="#95dbb3"/>
        <path id="Trazado_877519" data-name="Trazado 877519" d="M368.975,180.725h.009A64.564,64.564,0,0,0,422.7,151.917a64.168,64.168,0,0,0-28.944-94.562,64.582,64.582,0,0,0-24.865-5.017,64.2,64.2,0,0,0,.085,128.387" transform="translate(166.706 28.603)" fill="#daf2e4"/>
        <path id="Trazado_877520" data-name="Trazado 877520" d="M365.147,166.075a53.37,53.37,0,0,1-.085-106.736,53.788,53.788,0,0,1,20.717,4.189,53.345,53.345,0,0,1,24.095,78.545,53.756,53.756,0,0,1-44.716,24Z" transform="translate(170.533 32.429)" fill="none" stroke="#179989" stroke-miterlimit="10" stroke-width="1"/>
        <path id="Trazado_877521" data-name="Trazado 877521" d="M248.716,311.264l55.878,134.9A262.459,262.459,0,0,0,446.189,304.571l-134.9-55.878a115.973,115.973,0,0,1-62.571,62.571" transform="translate(135.923 135.911)" fill="#95dbb3"/>
        <path id="Trazado_877523" data-name="Trazado 877523" d="M368.8,304.99a64.195,64.195,0,0,0-.094,128.387h0a64.6,64.6,0,0,0,24.776-4.978,64.171,64.171,0,0,0,29.059-94.555A64.563,64.563,0,0,0,368.8,304.99" transform="translate(166.608 166.677)" fill="#effaf4"/>
        <path id="Trazado_877524" data-name="Trazado 877524" d="M364.878,418.726a53.37,53.37,0,0,1,.094-106.736,53.754,53.754,0,0,1,44.742,24.039,53.344,53.344,0,0,1-24.19,78.539,53.8,53.8,0,0,1-20.641,4.159Z" transform="translate(170.435 170.503)" fill="none" stroke="#59836b" stroke-miterlimit="10" stroke-width="1"/>
        <path id="Trazado_877525" data-name="Trazado 877525" d="M198.707,248.693l-134.9,55.878A262.461,262.461,0,0,0,205.4,446.166l55.877-134.9a115.978,115.978,0,0,1-62.571-62.571" transform="translate(34.87 135.911)" fill="#95dbb3"/>
        <path id="Trazado_877527" data-name="Trazado 877527" d="M116.567,304.81a64.566,64.566,0,0,0-53.721,28.816,64.171,64.171,0,0,0,28.947,94.556,64.617,64.617,0,0,0,24.865,5.017h0a64.2,64.2,0,0,0-.093-128.389" transform="translate(28.534 166.579)" fill="#daf2e4"/>
        <path id="Trazado_877528" data-name="Trazado 877528" d="M112.833,418.547a53.862,53.862,0,0,1-20.718-4.19,53.346,53.346,0,0,1-24.1-78.539,53.758,53.758,0,0,1,44.722-24.008,53.37,53.37,0,0,1,.091,106.736Z" transform="translate(32.36 170.405)" fill="none" stroke="#59836b" stroke-miterlimit="10" stroke-width="1"/>
        <path id="Trazado_877529" data-name="Trazado 877529" d="M273.9,174.768H215.842L174.791,215.82v58.057l41.052,41.052H273.9l41.052-41.052V215.82Z" transform="translate(95.523 95.511)" fill="none" stroke="#d83a51" stroke-miterlimit="10" stroke-width="1"/>
        <path id="Trazado_877530" data-name="Trazado 877530" d="M256.674,153.17A103.482,103.482,0,1,0,360.157,256.651,103.481,103.481,0,0,0,256.674,153.17" transform="translate(83.72 83.707)" fill="#fff"/>
        <path id="Trazado_877531" data-name="Trazado 877531" d="M235.866,211.893l-21.388-51.635a100.463,100.463,0,0,0-54.2,54.2l51.635,21.388a44.389,44.389,0,0,1,23.951-23.951" transform="translate(87.594 87.581)" fill="#95dbb3"/>
        <path id="Trazado_877532" data-name="Trazado 877532" d="M255.006,235.843l51.635-21.388a100.458,100.458,0,0,0-54.2-54.2l-21.387,51.636a44.388,44.388,0,0,1,23.949,23.949" transform="translate(126.273 87.581)" fill="#77af8f"/>
        <path id="Trazado_877533" data-name="Trazado 877533" d="M211.239,233.625A44.109,44.109,0,0,1,214.6,216.69L162.968,195.3a100.387,100.387,0,0,0,0,76.645L214.6,250.561a44.109,44.109,0,0,1-3.364-16.936" transform="translate(84.907 106.733)" fill="#082952"/>
        <path id="Trazado_877534" data-name="Trazado 877534" d="M233.648,211.216a44.108,44.108,0,0,1,16.936,3.364l21.388-51.635a100.391,100.391,0,0,0-76.646,0l21.388,51.635a44.094,44.094,0,0,1,16.934-3.364" transform="translate(106.746 84.894)" fill="#e6d567"/>
        <path id="Trazado_877535" data-name="Trazado 877535" d="M211.916,231.034l-51.635,21.388a100.45,100.45,0,0,0,54.2,54.2l21.388-51.635a44.386,44.386,0,0,1-23.951-23.949" transform="translate(87.594 126.26)" fill="#59836b"/>
        <path id="Trazado_877536" data-name="Trazado 877536" d="M298.178,195.3l-51.635,21.388a44.313,44.313,0,0,1,0,33.87l51.635,21.388a100.391,100.391,0,0,0,0-76.646" transform="translate(134.736 106.733)" fill="#082952"/>
        <path id="Trazado_877537" data-name="Trazado 877537" d="M231.057,254.983l21.388,51.635a100.45,100.45,0,0,0,54.2-54.2l-51.635-21.387a44.389,44.389,0,0,1-23.949,23.949" transform="translate(126.273 126.26)" fill="#95dbb3"/>
        <path id="Trazado_877538" data-name="Trazado 877538" d="M233.648,249.884a44.1,44.1,0,0,1-16.934-3.364l-21.388,51.635a100.387,100.387,0,0,0,76.645,0L250.584,246.52a44.108,44.108,0,0,1-16.936,3.364" transform="translate(106.746 134.723)" fill="#e6d567"/>
        <path id="Trazado_877539" data-name="Trazado 877539" d="M251.636,162.388a89.226,89.226,0,1,0,89.225,89.227,89.226,89.226,0,0,0-89.225-89.227" transform="translate(88.758 88.745)" fill="#fff"/>
      </g>
    </g>
    <path id="Trazado_877779" data-name="Trazado 877779" d="M-43.255-10.819h-3.656V0h-2.566V-10.819h-3.6V-12.8h9.826Zm4.553,11a4.279,4.279,0,0,1-3.322-1.305,4.784,4.784,0,0,1-1.2-3.362v-.352a5.207,5.207,0,0,1,1.16-3.5,3.944,3.944,0,0,1,3.19-1.354,3.692,3.692,0,0,1,2.94,1.173,4.637,4.637,0,0,1,1.024,3.16v1.327h-5.669l-.026.053a2.569,2.569,0,0,0,.593,1.582,1.987,1.987,0,0,0,1.578.606,5.279,5.279,0,0,0,1.463-.176A5.971,5.971,0,0,0-35.723-2.5l.694,1.582a4.764,4.764,0,0,1-1.547.782A6.86,6.86,0,0,1-38.7.185Zm-.167-7.893a1.425,1.425,0,0,0-1.191.532,2.667,2.667,0,0,0-.505,1.411l.018.044h3.129v-.193a2.221,2.221,0,0,0-.343-1.314A1.268,1.268,0,0,0-38.87-7.708Zm5.063,2.865a5.1,5.1,0,0,1,1.187-3.485,4.136,4.136,0,0,1,3.287-1.358,4.18,4.18,0,0,1,3.3,1.354,5.076,5.076,0,0,1,1.2,3.489v.185a5.084,5.084,0,0,1-1.191,3.494A4.162,4.162,0,0,1-29.316.185a4.173,4.173,0,0,1-3.3-1.349,5.084,5.084,0,0,1-1.191-3.494Zm2.558.185a4.137,4.137,0,0,0,.457,2.087,1.578,1.578,0,0,0,1.477.787,1.562,1.562,0,0,0,1.455-.791A4.11,4.11,0,0,0-27.4-4.658v-.185a4.068,4.068,0,0,0-.466-2.065,1.576,1.576,0,0,0-1.468-.8,1.557,1.557,0,0,0-1.455.8,4.1,4.1,0,0,0-.461,2.061Zm13-2.646-.94-.026a1.709,1.709,0,0,0-.94.237,1.5,1.5,0,0,0-.562.668V0h-2.558V-9.51h2.382l.114,1.406a3,3,0,0,1,.866-1.165,1.93,1.93,0,0,1,1.226-.417,1.918,1.918,0,0,1,.356.031q.163.031.33.075ZM-14.216,0h-2.566V-9.51h2.566Zm0-11.786h-2.566v-1.925h2.566ZM-6.5,0a5.4,5.4,0,0,1-.242-.686,4.769,4.769,0,0,1-.145-.738A3.518,3.518,0,0,1-7.932-.272,2.621,2.621,0,0,1-9.479.185a3.211,3.211,0,0,1-2.3-.769,2.755,2.755,0,0,1-.809-2.1,2.508,2.508,0,0,1,1.077-2.167,5.377,5.377,0,0,1,3.142-.769H-6.93v-.756a1.48,1.48,0,0,0-.36-1.063,1.414,1.414,0,0,0-1.072-.378,1.394,1.394,0,0,0-.962.3,1.059,1.059,0,0,0-.338.831h-2.47l-.018-.053A2.412,2.412,0,0,1-11.1-8.811a4.562,4.562,0,0,1,2.9-.875,4.257,4.257,0,0,1,2.773.861,3,3,0,0,1,1.059,2.47v3.929a7.43,7.43,0,0,0,.1,1.257A6.307,6.307,0,0,0-3.942,0ZM-8.846-1.714a2.187,2.187,0,0,0,1.2-.334,1.8,1.8,0,0,0,.721-.773V-4.166H-8.372a1.708,1.708,0,0,0-1.235.4,1.329,1.329,0,0,0-.417.993A.992.992,0,0,0-9.712-2,1.234,1.234,0,0,0-8.846-1.714ZM1.648-4.676a6.18,6.18,0,0,1,.971-3.63,3.154,3.154,0,0,1,2.738-1.38,2.663,2.663,0,0,1,1.283.308,3.087,3.087,0,0,1,1,.879v-5.212h2.575V0H8.029l-.22-1.169A3.179,3.179,0,0,1,6.746-.163,2.812,2.812,0,0,1,5.339.185,3.215,3.215,0,0,1,2.619-1.1a5.479,5.479,0,0,1-.971-3.393Zm2.558.185a3.874,3.874,0,0,0,.422,1.964A1.469,1.469,0,0,0,6-1.811a2,2,0,0,0,.967-.224,1.788,1.788,0,0,0,.677-.655V-6.741a1.975,1.975,0,0,0-.672-.7,1.788,1.788,0,0,0-.954-.25,1.448,1.448,0,0,0-1.375.835,4.718,4.718,0,0,0-.435,2.18ZM16.326.185A4.279,4.279,0,0,1,13-1.121a4.784,4.784,0,0,1-1.2-3.362v-.352a5.207,5.207,0,0,1,1.16-3.5,3.944,3.944,0,0,1,3.19-1.354A3.692,3.692,0,0,1,19.1-8.512a4.637,4.637,0,0,1,1.024,3.16v1.327H14.454l-.026.053a2.569,2.569,0,0,0,.593,1.582,1.987,1.987,0,0,0,1.578.606,5.279,5.279,0,0,0,1.463-.176A5.971,5.971,0,0,0,19.305-2.5L20-.914a4.764,4.764,0,0,1-1.547.782A6.86,6.86,0,0,1,16.326.185Zm-.167-7.893a1.425,1.425,0,0,0-1.191.532,2.667,2.667,0,0,0-.505,1.411l.018.044h3.129v-.193a2.221,2.221,0,0,0-.343-1.314A1.268,1.268,0,0,0,16.159-7.708ZM28.8,0H26.231V-13.711H28.8Zm7.717,0a5.4,5.4,0,0,1-.242-.686,4.769,4.769,0,0,1-.145-.738A3.518,3.518,0,0,1,35.082-.272a2.621,2.621,0,0,1-1.547.457,3.211,3.211,0,0,1-2.3-.769,2.755,2.755,0,0,1-.809-2.1A2.508,2.508,0,0,1,31.5-4.847a5.377,5.377,0,0,1,3.142-.769h1.441v-.756a1.48,1.48,0,0,0-.36-1.063,1.414,1.414,0,0,0-1.072-.378,1.394,1.394,0,0,0-.962.3,1.059,1.059,0,0,0-.338.831H30.88l-.018-.053a2.412,2.412,0,0,1,1.05-2.079,4.562,4.562,0,0,1,2.9-.875,4.257,4.257,0,0,1,2.773.861,3,3,0,0,1,1.059,2.47v3.929a7.431,7.431,0,0,0,.1,1.257A6.307,6.307,0,0,0,39.072,0ZM34.167-1.714a2.187,2.187,0,0,0,1.2-.334,1.8,1.8,0,0,0,.721-.773V-4.166H34.642a1.708,1.708,0,0,0-1.235.4,1.329,1.329,0,0,0-.417.993A.992.992,0,0,0,33.3-2,1.234,1.234,0,0,0,34.167-1.714Zm11.549-.923a.885.885,0,0,0-.409-.725,4.151,4.151,0,0,0-1.516-.532A6.047,6.047,0,0,1,41.256-4.9a2.208,2.208,0,0,1-.866-1.837,2.62,2.62,0,0,1,1.037-2.083,4.182,4.182,0,0,1,2.76-.861,4.513,4.513,0,0,1,2.887.861A2.517,2.517,0,0,1,48.116-6.68l-.018.053H45.62a1.245,1.245,0,0,0-.369-.932,1.461,1.461,0,0,0-1.063-.36,1.453,1.453,0,0,0-.976.308.957.957,0,0,0-.36.756.854.854,0,0,0,.374.716,4.158,4.158,0,0,0,1.516.5A6.17,6.17,0,0,1,47.347-4.61,2.265,2.265,0,0,1,48.2-2.733a2.51,2.51,0,0,1-1.1,2.1,4.742,4.742,0,0,1-2.9.817,4.408,4.408,0,0,1-3-.962,2.691,2.691,0,0,1-1.05-2.193l.018-.053h2.347a1.334,1.334,0,0,0,.5,1.107,2.068,2.068,0,0,0,1.239.343,1.762,1.762,0,0,0,1.085-.286A.927.927,0,0,0,45.716-2.637ZM-47.834,24H-50.4V14.49h2.566Zm0-11.786H-50.4V10.289h2.566Zm4.456,2.276.114,1.362A3.478,3.478,0,0,1-42.1,14.719a3.034,3.034,0,0,1,1.556-.4,2.828,2.828,0,0,1,2.25.927,4.4,4.4,0,0,1,.809,2.931V24h-2.575V18.182a2.277,2.277,0,0,0-.356-1.446,1.312,1.312,0,0,0-1.068-.426,2.241,2.241,0,0,0-1.006.215,1.964,1.964,0,0,0-.716.593V24h-2.566V14.49Zm10.89-2.329V14.49h1.608v1.8h-1.608v4.843a1.105,1.105,0,0,0,.233.791.818.818,0,0,0,.611.237,2.45,2.45,0,0,0,.352-.022,2.961,2.961,0,0,0,.343-.075l.211,1.854a5.2,5.2,0,0,1-.751.2,4.48,4.48,0,0,1-.8.066,2.735,2.735,0,0,1-2.043-.729,3.2,3.2,0,0,1-.716-2.312V16.292h-1.389v-1.8h1.389V12.161Zm7.313,12.023A4.279,4.279,0,0,1-28.5,22.879a4.784,4.784,0,0,1-1.2-3.362v-.352a5.207,5.207,0,0,1,1.16-3.5,3.944,3.944,0,0,1,3.19-1.354,3.692,3.692,0,0,1,2.94,1.173,4.637,4.637,0,0,1,1.024,3.16v1.327h-5.669l-.026.053a2.569,2.569,0,0,0,.593,1.582,1.987,1.987,0,0,0,1.578.606,5.279,5.279,0,0,0,1.463-.176A5.971,5.971,0,0,0-22.2,21.5l.694,1.582a4.764,4.764,0,0,1-1.547.782A6.86,6.86,0,0,1-25.176,24.185Zm-.167-7.893a1.425,1.425,0,0,0-1.191.532,2.667,2.667,0,0,0-.505,1.411l.018.044h3.129v-.193a2.221,2.221,0,0,0-.343-1.314A1.268,1.268,0,0,0-25.343,16.292ZM-17.187,24h-2.566V10.289h2.566Zm4.808,0h-2.566V14.49h2.566Zm0-11.786h-2.566V10.289h2.566Zm1.731,7.11a6.159,6.159,0,0,1,.976-3.63,3.165,3.165,0,0,1,2.742-1.38,2.7,2.7,0,0,1,1.406.36A3.156,3.156,0,0,1-4.487,15.7l.2-1.213h2.206v9.466a3.534,3.534,0,0,1-1.213,2.87,5.121,5.121,0,0,1-3.384,1.015,6.446,6.446,0,0,1-1.529-.2A7.1,7.1,0,0,1-9.7,27.1l.431-1.916a5.89,5.89,0,0,0,1.217.426,6.032,6.032,0,0,0,1.358.145,2.3,2.3,0,0,0,1.551-.439,1.74,1.74,0,0,0,.5-1.371v-.861a2.871,2.871,0,0,1-.993.817,2.928,2.928,0,0,1-1.31.281A3.227,3.227,0,0,1-9.672,22.9a5.462,5.462,0,0,1-.976-3.393Zm2.566.185a3.907,3.907,0,0,0,.417,1.964,1.459,1.459,0,0,0,1.367.716,2.118,2.118,0,0,0,1-.215,1.645,1.645,0,0,0,.655-.628V17.224a1.754,1.754,0,0,0-.655-.677,1.919,1.919,0,0,0-.98-.237,1.439,1.439,0,0,0-1.371.835,4.759,4.759,0,0,0-.431,2.18ZM4.012,24.185A4.279,4.279,0,0,1,.69,22.879a4.784,4.784,0,0,1-1.2-3.362v-.352a5.207,5.207,0,0,1,1.16-3.5,3.944,3.944,0,0,1,3.19-1.354,3.692,3.692,0,0,1,2.94,1.173,4.637,4.637,0,0,1,1.024,3.16v1.327H2.14l-.026.053a2.569,2.569,0,0,0,.593,1.582,1.987,1.987,0,0,0,1.578.606,5.279,5.279,0,0,0,1.463-.176A5.971,5.971,0,0,0,6.992,21.5l.694,1.582a4.764,4.764,0,0,1-1.547.782A6.86,6.86,0,0,1,4.012,24.185Zm-.167-7.893a1.425,1.425,0,0,0-1.191.532,2.667,2.667,0,0,0-.505,1.411l.018.044H5.3v-.193a2.221,2.221,0,0,0-.343-1.314A1.268,1.268,0,0,0,3.845,16.292Zm7.8-1.8.114,1.362a3.478,3.478,0,0,1,1.169-1.134,3.034,3.034,0,0,1,1.556-.4,2.828,2.828,0,0,1,2.25.927,4.4,4.4,0,0,1,.809,2.931V24H14.972V18.182a2.277,2.277,0,0,0-.356-1.446,1.312,1.312,0,0,0-1.068-.426,2.241,2.241,0,0,0-1.006.215,1.964,1.964,0,0,0-.716.593V24H9.259V14.49Zm11.786,7.726a1.428,1.428,0,0,0,1.063-.4,1.452,1.452,0,0,0,.4-1.068h2.338l.018.053a2.976,2.976,0,0,1-1.072,2.413,4.01,4.01,0,0,1-2.742.971,4.052,4.052,0,0,1-3.261-1.349,5.128,5.128,0,0,1-1.151-3.45v-.264a5.161,5.161,0,0,1,1.147-3.45,4.016,4.016,0,0,1,3.248-1.358,3.922,3.922,0,0,1,2.8,1,3.348,3.348,0,0,1,1.028,2.637l-.018.053H24.9A1.9,1.9,0,0,0,24.5,16.78a1.314,1.314,0,0,0-1.085-.488,1.465,1.465,0,0,0-1.411.8,4.362,4.362,0,0,0-.417,2.035v.264a4.346,4.346,0,0,0,.417,2.048A1.485,1.485,0,0,0,23.436,22.216ZM31.443,24H28.876V14.49h2.566Zm0-11.786H28.876V10.289h2.566ZM39.16,24a5.4,5.4,0,0,1-.242-.686,4.769,4.769,0,0,1-.145-.738,3.518,3.518,0,0,1-1.046,1.151,2.621,2.621,0,0,1-1.547.457,3.211,3.211,0,0,1-2.3-.769,2.755,2.755,0,0,1-.809-2.1,2.508,2.508,0,0,1,1.077-2.167,5.377,5.377,0,0,1,3.142-.769h1.441v-.756a1.48,1.48,0,0,0-.36-1.063,1.414,1.414,0,0,0-1.072-.378,1.394,1.394,0,0,0-.962.3A1.059,1.059,0,0,0,36,17.32h-2.47l-.018-.053a2.412,2.412,0,0,1,1.05-2.079,4.562,4.562,0,0,1,2.9-.875,4.257,4.257,0,0,1,2.773.861,3,3,0,0,1,1.059,2.47v3.929a7.431,7.431,0,0,0,.1,1.257A6.307,6.307,0,0,0,41.717,24Zm-2.347-1.714a2.187,2.187,0,0,0,1.2-.334,1.8,1.8,0,0,0,.721-.773V19.834H37.288a1.708,1.708,0,0,0-1.235.4,1.329,1.329,0,0,0-.417.993.992.992,0,0,0,.312.769A1.234,1.234,0,0,0,36.813,22.286Zm11.549-.923a.885.885,0,0,0-.409-.725,4.151,4.151,0,0,0-1.516-.532A6.047,6.047,0,0,1,43.9,19.1a2.208,2.208,0,0,1-.866-1.837,2.62,2.62,0,0,1,1.037-2.083,4.182,4.182,0,0,1,2.76-.861,4.513,4.513,0,0,1,2.887.861,2.517,2.517,0,0,1,1.042,2.145l-.018.053H48.265a1.245,1.245,0,0,0-.369-.932,1.726,1.726,0,0,0-2.039-.053.957.957,0,0,0-.36.756.854.854,0,0,0,.374.716,4.158,4.158,0,0,0,1.516.5,6.17,6.17,0,0,1,2.606,1.033,2.265,2.265,0,0,1,.857,1.876,2.51,2.51,0,0,1-1.1,2.1,4.742,4.742,0,0,1-2.9.817,4.408,4.408,0,0,1-3-.962,2.691,2.691,0,0,1-1.05-2.193l.018-.053h2.347a1.334,1.334,0,0,0,.5,1.107,2.068,2.068,0,0,0,1.239.343,1.762,1.762,0,0,0,1.085-.286A.927.927,0,0,0,48.362,21.363ZM-29.887,44.634h.053l3.287-9.431H-23.2V48h-2.566V39.264l-.053-.009L-28.982,48h-1.74l-3.164-8.763-.053.009V48h-2.566V35.2h3.366Zm14.678,1.96a3.229,3.229,0,0,1-1.116,1.178,2.959,2.959,0,0,1-1.573.413,2.892,2.892,0,0,1-2.351-1.02A4.89,4.89,0,0,1-21.1,44V38.49h2.558v5.528a3.07,3.07,0,0,0,.338,1.709,1.216,1.216,0,0,0,1.05.461,2.557,2.557,0,0,0,1.055-.2,1.778,1.778,0,0,0,.721-.584V38.49h2.566V48h-2.127ZM-8.178,48h-2.566V34.289h2.566Zm5.186-11.839V38.49h1.608v1.8H-2.993v4.843a1.105,1.105,0,0,0,.233.791.818.818,0,0,0,.611.237,2.45,2.45,0,0,0,.352-.022,2.961,2.961,0,0,0,.343-.075l.211,1.854a5.2,5.2,0,0,1-.751.2,4.48,4.48,0,0,1-.8.066,2.735,2.735,0,0,1-2.043-.729,3.2,3.2,0,0,1-.716-2.312V40.292H-6.939v-1.8H-5.55V36.161ZM2.9,48H.33V38.49H2.9Zm0-11.786H.33V34.289H2.9Zm10.688,7.295a5.462,5.462,0,0,1-.976,3.393,3.227,3.227,0,0,1-2.725,1.283,3.045,3.045,0,0,1-1.327-.277,2.726,2.726,0,0,1-.993-.813v4.562H5.005V38.49H7.317l.149,1.125a3.047,3.047,0,0,1,1.015-.962,2.746,2.746,0,0,1,1.384-.338,3.165,3.165,0,0,1,2.742,1.38,6.159,6.159,0,0,1,.976,3.63Zm-2.566-.185a4.6,4.6,0,0,0-.448-2.18A1.462,1.462,0,0,0,9.2,40.31a1.938,1.938,0,0,0-.989.237,1.693,1.693,0,0,0-.646.677V45.39A1.573,1.573,0,0,0,8.209,46a2.176,2.176,0,0,0,1.006.211,1.476,1.476,0,0,0,1.367-.729,3.851,3.851,0,0,0,.435-1.978ZM17.864,48H15.3V34.289h2.566Zm6.231.185a4.279,4.279,0,0,1-3.322-1.305,4.784,4.784,0,0,1-1.2-3.362v-.352a5.207,5.207,0,0,1,1.16-3.5,3.944,3.944,0,0,1,3.19-1.354,3.692,3.692,0,0,1,2.94,1.173,4.637,4.637,0,0,1,1.024,3.16v1.327H22.223l-.026.053a2.569,2.569,0,0,0,.593,1.582,1.987,1.987,0,0,0,1.578.606,5.279,5.279,0,0,0,1.463-.176,5.971,5.971,0,0,0,1.244-.536l.694,1.582a4.764,4.764,0,0,1-1.547.782A6.86,6.86,0,0,1,24.1,48.185Zm-.167-7.893a1.425,1.425,0,0,0-1.191.532,2.667,2.667,0,0,0-.505,1.411l.018.044h3.129v-.193a2.221,2.221,0,0,0-.343-1.314A1.268,1.268,0,0,0,23.928,40.292Zm10.6,5.071a.885.885,0,0,0-.409-.725,4.151,4.151,0,0,0-1.516-.532A6.047,6.047,0,0,1,30.067,43.1a2.208,2.208,0,0,1-.866-1.837,2.62,2.62,0,0,1,1.037-2.083A4.182,4.182,0,0,1,33,38.314a4.513,4.513,0,0,1,2.887.861,2.517,2.517,0,0,1,1.042,2.145l-.018.053H34.431a1.245,1.245,0,0,0-.369-.932,1.726,1.726,0,0,0-2.039-.053.957.957,0,0,0-.36.756.854.854,0,0,0,.374.716,4.158,4.158,0,0,0,1.516.5,6.17,6.17,0,0,1,2.606,1.033,2.265,2.265,0,0,1,.857,1.876,2.51,2.51,0,0,1-1.1,2.1,4.742,4.742,0,0,1-2.9.817,4.408,4.408,0,0,1-3-.962,2.691,2.691,0,0,1-1.05-2.193l.018-.053h2.347a1.334,1.334,0,0,0,.5,1.107,2.068,2.068,0,0,0,1.239.343,1.762,1.762,0,0,0,1.085-.286A.927.927,0,0,0,34.528,45.363Z" transform="translate(799.606 4813.859)" fill="#12263f"/>
    <path id="Trazado_877780" data-name="Trazado 877780" d="M-24.038-3.366h.053L-20.7-12.8h3.349V0h-2.566V-8.736l-.053-.009L-23.133,0h-1.74l-3.164-8.763-.053.009V0h-2.566V-12.8h3.366ZM-9.36-1.406A3.229,3.229,0,0,1-10.477-.229,2.959,2.959,0,0,1-12.05.185,2.892,2.892,0,0,1-14.4-.835,4.89,4.89,0,0,1-15.249-4V-9.51h2.558v5.528a3.07,3.07,0,0,0,.338,1.709,1.216,1.216,0,0,0,1.05.461,2.557,2.557,0,0,0,1.055-.2,1.778,1.778,0,0,0,.721-.584V-9.51h2.566V0H-9.088ZM.114-2.637a.885.885,0,0,0-.409-.725,4.151,4.151,0,0,0-1.516-.532A6.047,6.047,0,0,1-4.346-4.9a2.208,2.208,0,0,1-.866-1.837A2.62,2.62,0,0,1-4.175-8.824a4.182,4.182,0,0,1,2.76-.861,4.513,4.513,0,0,1,2.887.861A2.517,2.517,0,0,1,2.514-6.68L2.5-6.627H.018a1.245,1.245,0,0,0-.369-.932,1.461,1.461,0,0,0-1.063-.36,1.453,1.453,0,0,0-.976.308.957.957,0,0,0-.36.756.854.854,0,0,0,.374.716,4.158,4.158,0,0,0,1.516.5A6.17,6.17,0,0,1,1.745-4.61,2.265,2.265,0,0,1,2.6-2.733a2.51,2.51,0,0,1-1.1,2.1A4.742,4.742,0,0,1-1.4.185a4.408,4.408,0,0,1-3-.962,2.691,2.691,0,0,1-1.05-2.193l.018-.053h2.347a1.334,1.334,0,0,0,.5,1.107,2.068,2.068,0,0,0,1.239.343A1.762,1.762,0,0,0-.259-1.859.927.927,0,0,0,.114-2.637ZM6.952,0H4.386V-9.51H6.952Zm0-11.786H4.386v-1.925H6.952Zm6.082,10a1.428,1.428,0,0,0,1.063-.4,1.452,1.452,0,0,0,.4-1.068h2.338l.018.053A2.976,2.976,0,0,1,15.776-.787a4.01,4.01,0,0,1-2.742.971A4.052,4.052,0,0,1,9.773-1.165a5.128,5.128,0,0,1-1.151-3.45v-.264a5.161,5.161,0,0,1,1.147-3.45,4.016,4.016,0,0,1,3.248-1.358,3.922,3.922,0,0,1,2.8,1,3.348,3.348,0,0,1,1.028,2.637l-.018.053H14.493A1.9,1.9,0,0,0,14.1-7.22a1.314,1.314,0,0,0-1.085-.488,1.465,1.465,0,0,0-1.411.8,4.362,4.362,0,0,0-.417,2.035v.264a4.346,4.346,0,0,0,.417,2.048A1.485,1.485,0,0,0,13.034-1.784ZM23.95,0a5.4,5.4,0,0,1-.242-.686,4.769,4.769,0,0,1-.145-.738A3.518,3.518,0,0,1,22.518-.272a2.621,2.621,0,0,1-1.547.457,3.211,3.211,0,0,1-2.3-.769,2.755,2.755,0,0,1-.809-2.1,2.508,2.508,0,0,1,1.077-2.167,5.377,5.377,0,0,1,3.142-.769H23.52v-.756a1.48,1.48,0,0,0-.36-1.063,1.414,1.414,0,0,0-1.072-.378,1.394,1.394,0,0,0-.962.3,1.059,1.059,0,0,0-.338.831h-2.47L18.3-6.732a2.412,2.412,0,0,1,1.05-2.079,4.562,4.562,0,0,1,2.9-.875,4.257,4.257,0,0,1,2.773.861,3,3,0,0,1,1.059,2.47v3.929a7.431,7.431,0,0,0,.1,1.257A6.307,6.307,0,0,0,26.508,0ZM21.6-1.714a2.187,2.187,0,0,0,1.2-.334,1.8,1.8,0,0,0,.721-.773V-4.166H22.078a1.708,1.708,0,0,0-1.235.4,1.329,1.329,0,0,0-.417.993A.992.992,0,0,0,20.738-2,1.234,1.234,0,0,0,21.6-1.714ZM30.709,0H28.143V-13.711h2.566Z" transform="translate(672.606 4722)" fill="#12263f"/>
    <path id="Trazado_877781" data-name="Trazado 877781" d="M-23.766-4.236l.018.053A4.006,4.006,0,0,1-25-.976,5.089,5.089,0,0,1-28.538.185,4.906,4.906,0,0,1-32.256-1.3a5.312,5.312,0,0,1-1.415-3.828v-2.54a5.41,5.41,0,0,1,1.38-3.828,4.7,4.7,0,0,1,3.621-1.49,5.4,5.4,0,0,1,3.656,1.143A3.934,3.934,0,0,1-23.73-8.622l-.018.053h-2.5a2.516,2.516,0,0,0-.593-1.833A2.474,2.474,0,0,0-28.67-11a2.069,2.069,0,0,0-1.8.927,4.1,4.1,0,0,0-.646,2.4v2.558a3.98,3.98,0,0,0,.681,2.408,2.214,2.214,0,0,0,1.894.932,2.253,2.253,0,0,0,1.718-.6,2.619,2.619,0,0,0,.567-1.85Zm1.266-.606a5.1,5.1,0,0,1,1.187-3.485,4.136,4.136,0,0,1,3.287-1.358,4.18,4.18,0,0,1,3.3,1.354,5.076,5.076,0,0,1,1.2,3.489v.185a5.084,5.084,0,0,1-1.191,3.494A4.162,4.162,0,0,1-18.009.185a4.173,4.173,0,0,1-3.3-1.349A5.084,5.084,0,0,1-22.5-4.658Zm2.558.185a4.137,4.137,0,0,0,.457,2.087,1.578,1.578,0,0,0,1.477.787,1.562,1.562,0,0,0,1.455-.791,4.11,4.11,0,0,0,.461-2.083v-.185a4.068,4.068,0,0,0-.466-2.065,1.576,1.576,0,0,0-1.468-.8,1.557,1.557,0,0,0-1.455.8,4.1,4.1,0,0,0-.461,2.061Zm13-2.646-.94-.026a1.709,1.709,0,0,0-.94.237,1.5,1.5,0,0,0-.562.668V0h-2.558V-9.51h2.382L-9.448-8.1a3,3,0,0,1,.866-1.165,1.93,1.93,0,0,1,1.226-.417A1.918,1.918,0,0,1-7-9.655q.163.031.33.075ZM2.971-4.491A5.462,5.462,0,0,1,2-1.1,3.227,3.227,0,0,1-.729.185,3.045,3.045,0,0,1-2.057-.092,2.726,2.726,0,0,1-3.05-.905V3.656H-5.607V-9.51H-3.3l.149,1.125a3.047,3.047,0,0,1,1.015-.962A2.746,2.746,0,0,1-.747-9.686,3.165,3.165,0,0,1,2-8.306a6.159,6.159,0,0,1,.976,3.63ZM.4-4.676a4.6,4.6,0,0,0-.448-2.18A1.462,1.462,0,0,0-1.415-7.69a1.938,1.938,0,0,0-.989.237,1.693,1.693,0,0,0-.646.677V-2.61A1.573,1.573,0,0,0-2.4-2,2.176,2.176,0,0,0-1.4-1.784,1.476,1.476,0,0,0-.031-2.514,3.851,3.851,0,0,0,.4-4.491Zm3.753-.167A5.1,5.1,0,0,1,5.344-8.328,4.136,4.136,0,0,1,8.631-9.686a4.18,4.18,0,0,1,3.3,1.354,5.076,5.076,0,0,1,1.2,3.489v.185A5.084,5.084,0,0,1,11.94-1.165,4.162,4.162,0,0,1,8.648.185a4.173,4.173,0,0,1-3.3-1.349A5.084,5.084,0,0,1,4.157-4.658Zm2.558.185a4.137,4.137,0,0,0,.457,2.087,1.578,1.578,0,0,0,1.477.787A1.562,1.562,0,0,0,10.1-2.575a4.11,4.11,0,0,0,.461-2.083v-.185A4.068,4.068,0,0,0,10.1-6.908a1.576,1.576,0,0,0-1.468-.8,1.557,1.557,0,0,0-1.455.8,4.1,4.1,0,0,0-.461,2.061Zm13-2.646-.94-.026a1.709,1.709,0,0,0-.94.237,1.5,1.5,0,0,0-.562.668V0H14.713V-9.51h2.382L17.209-8.1a3,3,0,0,1,.866-1.165A1.93,1.93,0,0,1,19.3-9.686a1.918,1.918,0,0,1,.356.031q.163.031.33.075ZM26.657,0a5.4,5.4,0,0,1-.242-.686,4.769,4.769,0,0,1-.145-.738A3.518,3.518,0,0,1,25.225-.272a2.621,2.621,0,0,1-1.547.457,3.211,3.211,0,0,1-2.3-.769,2.755,2.755,0,0,1-.809-2.1,2.508,2.508,0,0,1,1.077-2.167,5.377,5.377,0,0,1,3.142-.769h1.441v-.756a1.48,1.48,0,0,0-.36-1.063,1.414,1.414,0,0,0-1.072-.378,1.394,1.394,0,0,0-.962.3,1.059,1.059,0,0,0-.338.831h-2.47l-.018-.053a2.412,2.412,0,0,1,1.05-2.079,4.562,4.562,0,0,1,2.9-.875,4.257,4.257,0,0,1,2.773.861,3,3,0,0,1,1.059,2.47v3.929a7.431,7.431,0,0,0,.1,1.257A6.307,6.307,0,0,0,29.215,0ZM24.311-1.714a2.187,2.187,0,0,0,1.2-.334,1.8,1.8,0,0,0,.721-.773V-4.166H24.785a1.708,1.708,0,0,0-1.235.4,1.329,1.329,0,0,0-.417.993A.992.992,0,0,0,23.445-2,1.234,1.234,0,0,0,24.311-1.714ZM33.416,0H30.85V-13.711h2.566Z" transform="translate(799.606 4676)" fill="#12263f"/>
    <path id="Trazado_877782" data-name="Trazado 877782" d="M-44.383,0h-2.281V-11.375h2.281Zm4.172-8.453.1,1.211A3.092,3.092,0,0,1-39.07-8.25a2.7,2.7,0,0,1,1.383-.359,2.513,2.513,0,0,1,2,.824,3.908,3.908,0,0,1,.719,2.605V0h-2.289V-5.172a2.024,2.024,0,0,0-.316-1.285,1.166,1.166,0,0,0-.949-.379,1.992,1.992,0,0,0-.895.191,1.746,1.746,0,0,0-.637.527V0h-2.281V-8.453Zm9.68-2.07v2.07h1.43v1.6h-1.43v4.3a.982.982,0,0,0,.207.7.727.727,0,0,0,.543.211,2.178,2.178,0,0,0,.313-.02,2.632,2.632,0,0,0,.3-.066l.188,1.648a4.618,4.618,0,0,1-.668.176,3.982,3.982,0,0,1-.707.059,2.431,2.431,0,0,1-1.816-.648A2.843,2.843,0,0,1-32.8-2.539V-6.852h-1.234v-1.6H-32.8v-2.07Zm7.281,4.031-.836-.023a1.519,1.519,0,0,0-.836.211,1.337,1.337,0,0,0-.5.594V0H-27.7V-8.453h2.117l.1,1.25a2.667,2.667,0,0,1,.77-1.035,1.715,1.715,0,0,1,1.09-.371,1.7,1.7,0,0,1,.316.027q.145.027.293.066ZM-17.078,0a4.8,4.8,0,0,1-.215-.609,4.239,4.239,0,0,1-.129-.656,3.127,3.127,0,0,1-.93,1.023,2.33,2.33,0,0,1-1.375.406A2.855,2.855,0,0,1-21.773-.52a2.449,2.449,0,0,1-.719-1.863,2.229,2.229,0,0,1,.957-1.926,4.78,4.78,0,0,1,2.793-.684h1.281v-.672a1.315,1.315,0,0,0-.32-.945,1.257,1.257,0,0,0-.953-.336,1.239,1.239,0,0,0-.855.27.941.941,0,0,0-.3.738h-2.2l-.016-.047a2.144,2.144,0,0,1,.934-1.848,4.055,4.055,0,0,1,2.582-.777,3.784,3.784,0,0,1,2.465.766,2.667,2.667,0,0,1,.941,2.2v3.492a6.6,6.6,0,0,0,.09,1.117A5.606,5.606,0,0,0-14.8,0Zm-2.086-1.523a1.944,1.944,0,0,0,1.063-.3,1.6,1.6,0,0,0,.641-.687V-3.7h-1.281a1.519,1.519,0,0,0-1.1.359,1.181,1.181,0,0,0-.371.883.881.881,0,0,0,.277.684A1.1,1.1,0,0,0-19.164-1.523Zm13.32-2.469A4.855,4.855,0,0,1-6.711-.977,2.869,2.869,0,0,1-9.133.164a2.707,2.707,0,0,1-1.18-.246A2.423,2.423,0,0,1-11.2-.8V3.25h-2.273v-11.7h2.055l.133,1a2.709,2.709,0,0,1,.9-.855,2.441,2.441,0,0,1,1.23-.3A2.813,2.813,0,0,1-6.711-7.383a5.474,5.474,0,0,1,.867,3.227Zm-2.281-.164a4.09,4.09,0,0,0-.4-1.937,1.3,1.3,0,0,0-1.219-.742,1.722,1.722,0,0,0-.879.211,1.505,1.505,0,0,0-.574.6v3.7a1.4,1.4,0,0,0,.574.547,1.935,1.935,0,0,0,.895.188,1.312,1.312,0,0,0,1.215-.648,3.423,3.423,0,0,0,.387-1.758ZM-.773.164A3.8,3.8,0,0,1-3.727-1,4.252,4.252,0,0,1-4.789-3.984V-4.3A4.628,4.628,0,0,1-3.758-7.406a3.506,3.506,0,0,1,2.836-1.2A3.282,3.282,0,0,1,1.691-7.566,4.122,4.122,0,0,1,2.6-4.758v1.18H-2.437l-.023.047a2.284,2.284,0,0,0,.527,1.406,1.766,1.766,0,0,0,1.4.539,4.692,4.692,0,0,0,1.3-.156,5.307,5.307,0,0,0,1.105-.477L2.492-.812a4.234,4.234,0,0,1-1.375.7A6.1,6.1,0,0,1-.773.164ZM-.922-6.852a1.267,1.267,0,0,0-1.059.473A2.371,2.371,0,0,0-2.43-5.125l.016.039H.367v-.172a1.974,1.974,0,0,0-.3-1.168A1.127,1.127,0,0,0-.922-6.852Zm9.3.359-.836-.023A1.519,1.519,0,0,0,6.7-6.3a1.337,1.337,0,0,0-.5.594V0H3.93V-8.453H6.047l.1,1.25a2.667,2.667,0,0,1,.77-1.035,1.715,1.715,0,0,1,1.09-.371,1.705,1.705,0,0,1,.316.027q.145.027.293.066Zm5.758,4.148a.787.787,0,0,0-.363-.645,3.69,3.69,0,0,0-1.348-.473,5.375,5.375,0,0,1-2.254-.9A1.962,1.962,0,0,1,9.4-5.992a2.329,2.329,0,0,1,.922-1.852,3.717,3.717,0,0,1,2.453-.766,4.011,4.011,0,0,1,2.566.766,2.237,2.237,0,0,1,.926,1.906l-.016.047h-2.2a1.106,1.106,0,0,0-.328-.828,1.3,1.3,0,0,0-.945-.32,1.292,1.292,0,0,0-.867.273.85.85,0,0,0-.32.672.759.759,0,0,0,.332.637,3.7,3.7,0,0,0,1.348.441,5.484,5.484,0,0,1,2.316.918,2.014,2.014,0,0,1,.762,1.668,2.231,2.231,0,0,1-.977,1.867,4.215,4.215,0,0,1-2.578.727,3.918,3.918,0,0,1-2.668-.855,2.392,2.392,0,0,1-.934-1.949L9.2-2.687h2.086a1.186,1.186,0,0,0,.445.984,1.838,1.838,0,0,0,1.1.3,1.567,1.567,0,0,0,.965-.254A.824.824,0,0,0,14.133-2.344ZM17.461-4.3a4.536,4.536,0,0,1,1.055-3.1,3.676,3.676,0,0,1,2.922-1.207,3.715,3.715,0,0,1,2.938,1.2,4.512,4.512,0,0,1,1.063,3.1v.164a4.519,4.519,0,0,1-1.059,3.105,3.7,3.7,0,0,1-2.926,1.2,3.709,3.709,0,0,1-2.934-1.2,4.519,4.519,0,0,1-1.059-3.105Zm2.273.164a3.677,3.677,0,0,0,.406,1.855,1.4,1.4,0,0,0,1.313.7,1.389,1.389,0,0,0,1.293-.7,3.653,3.653,0,0,0,.41-1.852V-4.3a3.616,3.616,0,0,0-.414-1.836,1.4,1.4,0,0,0-1.3-.711,1.384,1.384,0,0,0-1.293.715,3.648,3.648,0,0,0-.41,1.832Zm9.2-4.312.1,1.211A3.092,3.092,0,0,1,30.07-8.25a2.7,2.7,0,0,1,1.383-.359,2.513,2.513,0,0,1,2,.824,3.908,3.908,0,0,1,.719,2.605V0H31.883V-5.172a2.024,2.024,0,0,0-.316-1.285,1.166,1.166,0,0,0-.949-.379,1.992,1.992,0,0,0-.895.191,1.746,1.746,0,0,0-.637.527V0H26.8V-8.453ZM40.859,0a4.8,4.8,0,0,1-.215-.609,4.239,4.239,0,0,1-.129-.656,3.127,3.127,0,0,1-.93,1.023,2.33,2.33,0,0,1-1.375.406A2.855,2.855,0,0,1,36.164-.52a2.449,2.449,0,0,1-.719-1.863A2.229,2.229,0,0,1,36.4-4.309,4.78,4.78,0,0,1,39.2-4.992h1.281v-.672a1.315,1.315,0,0,0-.32-.945,1.257,1.257,0,0,0-.953-.336,1.239,1.239,0,0,0-.855.27.941.941,0,0,0-.3.738h-2.2l-.016-.047a2.144,2.144,0,0,1,.934-1.848,4.055,4.055,0,0,1,2.582-.777,3.784,3.784,0,0,1,2.465.766,2.667,2.667,0,0,1,.941,2.2v3.492a6.605,6.605,0,0,0,.09,1.117A5.606,5.606,0,0,0,43.133,0ZM38.773-1.523a1.944,1.944,0,0,0,1.063-.3,1.6,1.6,0,0,0,.641-.687V-3.7H39.2a1.519,1.519,0,0,0-1.1.359,1.181,1.181,0,0,0-.371.883A.881.881,0,0,0,38-1.777,1.1,1.1,0,0,0,38.773-1.523ZM46.867,0H44.586V-12.187h2.281Z" transform="translate(927.606 4722)" fill="#12263f"/>
    <path id="Trazado_877783" data-name="Trazado 877783" d="M-34.43,0h-2.281V-12.187h2.281Zm4.273,0h-2.281V-8.453h2.281Zm0-10.477h-2.281v-1.711h2.281ZM-26.2-8.453l.1,1.211A3.092,3.092,0,0,1-25.055-8.25a2.7,2.7,0,0,1,1.383-.359,2.513,2.513,0,0,1,2,.824,3.908,3.908,0,0,1,.719,2.605V0h-2.289V-5.172a2.024,2.024,0,0,0-.316-1.285,1.166,1.166,0,0,0-.949-.379,1.992,1.992,0,0,0-.895.191,1.746,1.746,0,0,0-.637.527V0H-28.32V-8.453Zm6.609,4.3a5.474,5.474,0,0,1,.867-3.227,2.813,2.813,0,0,1,2.438-1.227,2.4,2.4,0,0,1,1.25.32,2.806,2.806,0,0,1,.922.914l.18-1.078h1.961V-.039a3.142,3.142,0,0,1-1.078,2.551,4.552,4.552,0,0,1-3.008.9,5.73,5.73,0,0,1-1.359-.176,6.313,6.313,0,0,1-1.328-.48l.383-1.7a5.235,5.235,0,0,0,1.082.379,5.362,5.362,0,0,0,1.207.129,2.042,2.042,0,0,0,1.379-.391A1.546,1.546,0,0,0-14.25-.047V-.812a2.552,2.552,0,0,1-.883.727A2.6,2.6,0,0,1-16.3.164,2.869,2.869,0,0,1-18.719-.977a4.855,4.855,0,0,1-.867-3.016Zm2.281.164a3.473,3.473,0,0,0,.371,1.746,1.3,1.3,0,0,0,1.215.637,1.883,1.883,0,0,0,.887-.191,1.462,1.462,0,0,0,.582-.559V-6.023a1.559,1.559,0,0,0-.582-.6,1.706,1.706,0,0,0-.871-.211,1.279,1.279,0,0,0-1.219.742A4.231,4.231,0,0,0-17.3-4.156ZM-5.039-1.25A2.87,2.87,0,0,1-6.031-.2a2.63,2.63,0,0,1-1.4.367A2.57,2.57,0,0,1-9.52-.742a4.347,4.347,0,0,1-.754-2.812v-4.9H-8v4.914a2.729,2.729,0,0,0,.3,1.52,1.081,1.081,0,0,0,.934.41,2.273,2.273,0,0,0,.938-.176,1.58,1.58,0,0,0,.641-.52V-8.453h2.281V0H-4.8ZM-3.6-9.828H-5.68v-1.594H-3.6Zm-3.906,0H-9.586v-1.594h2.078ZM1.258,0H-1.023V-8.453H1.258ZM.578-11.9H3.117l.016.047L.969-9.82H-.977Zm7.2,9.555a.787.787,0,0,0-.363-.645,3.69,3.69,0,0,0-1.348-.473,5.375,5.375,0,0,1-2.254-.9,1.962,1.962,0,0,1-.77-1.633,2.329,2.329,0,0,1,.922-1.852,3.717,3.717,0,0,1,2.453-.766,4.011,4.011,0,0,1,2.566.766,2.237,2.237,0,0,1,.926,1.906l-.016.047h-2.2a1.106,1.106,0,0,0-.328-.828,1.3,1.3,0,0,0-.945-.32,1.292,1.292,0,0,0-.867.273.85.85,0,0,0-.32.672.759.759,0,0,0,.332.637,3.7,3.7,0,0,0,1.348.441A5.484,5.484,0,0,1,9.223-4.1,2.014,2.014,0,0,1,9.984-2.43,2.231,2.231,0,0,1,9.008-.562,4.215,4.215,0,0,1,6.43.164,3.918,3.918,0,0,1,3.762-.691a2.392,2.392,0,0,1-.934-1.949l.016-.047H4.93a1.186,1.186,0,0,0,.445.984,1.838,1.838,0,0,0,1.1.3,1.567,1.567,0,0,0,.965-.254A.824.824,0,0,0,7.773-2.344Zm6.414-8.18v2.07h1.43v1.6h-1.43v4.3a.982.982,0,0,0,.207.7.727.727,0,0,0,.543.211,2.178,2.178,0,0,0,.313-.02,2.632,2.632,0,0,0,.3-.066L15.742-.07a4.618,4.618,0,0,1-.668.176,3.982,3.982,0,0,1-.707.059,2.431,2.431,0,0,1-1.816-.648,2.843,2.843,0,0,1-.637-2.055V-6.852H10.68v-1.6h1.234v-2.07ZM19.422,0H17.141V-8.453h2.281Zm0-10.477H17.141v-1.711h2.281Zm5.406,8.891a1.27,1.27,0,0,0,.945-.355,1.291,1.291,0,0,0,.352-.949H28.2l.016.047A2.645,2.645,0,0,1,27.266-.7a3.564,3.564,0,0,1-2.437.863,3.6,3.6,0,0,1-2.9-1.2A4.558,4.558,0,0,1,20.906-4.1v-.234A4.588,4.588,0,0,1,21.926-7.4a3.57,3.57,0,0,1,2.887-1.207,3.486,3.486,0,0,1,2.492.891,2.976,2.976,0,0,1,.914,2.344l-.016.047H26.125a1.687,1.687,0,0,0-.348-1.09,1.168,1.168,0,0,0-.965-.434,1.3,1.3,0,0,0-1.254.707,3.878,3.878,0,0,0-.371,1.809V-4.1a3.863,3.863,0,0,0,.371,1.82A1.32,1.32,0,0,0,24.828-1.586ZM29.2-4.3A4.536,4.536,0,0,1,30.25-7.4a3.676,3.676,0,0,1,2.922-1.207,3.715,3.715,0,0,1,2.938,1.2,4.512,4.512,0,0,1,1.063,3.1v.164a4.519,4.519,0,0,1-1.059,3.105,3.7,3.7,0,0,1-2.926,1.2,3.709,3.709,0,0,1-2.934-1.2A4.519,4.519,0,0,1,29.2-4.141Zm2.273.164a3.677,3.677,0,0,0,.406,1.855,1.4,1.4,0,0,0,1.313.7,1.389,1.389,0,0,0,1.293-.7,3.653,3.653,0,0,0,.41-1.852V-4.3a3.616,3.616,0,0,0-.414-1.836,1.4,1.4,0,0,0-1.3-.711,1.384,1.384,0,0,0-1.293.715,3.648,3.648,0,0,0-.41,1.832Z" transform="translate(967.606 4834.859)" fill="#12263f"/>
    <path id="Trazado_877784" data-name="Trazado 877784" d="M-26.141,0h-2.281V-12.187h2.281Zm1.523-4.3a4.536,4.536,0,0,1,1.055-3.1,3.676,3.676,0,0,1,2.922-1.207,3.715,3.715,0,0,1,2.938,1.2,4.512,4.512,0,0,1,1.063,3.1v.164A4.519,4.519,0,0,1-17.7-1.035a3.7,3.7,0,0,1-2.926,1.2,3.709,3.709,0,0,1-2.934-1.2,4.519,4.519,0,0,1-1.059-3.105Zm2.273.164a3.677,3.677,0,0,0,.406,1.855,1.4,1.4,0,0,0,1.313.7,1.389,1.389,0,0,0,1.293-.7,3.653,3.653,0,0,0,.41-1.852V-4.3a3.616,3.616,0,0,0-.414-1.836,1.4,1.4,0,0,0-1.3-.711,1.384,1.384,0,0,0-1.293.715,3.648,3.648,0,0,0-.41,1.832Zm2.164-7.922h2.539l.016.047-2.164,2.031h-1.945Zm4.609,7.906A5.474,5.474,0,0,1-14.7-7.383a2.813,2.813,0,0,1,2.438-1.227,2.4,2.4,0,0,1,1.25.32,2.806,2.806,0,0,1,.922.914l.18-1.078h1.961V-.039A3.142,3.142,0,0,1-9.031,2.512a4.552,4.552,0,0,1-3.008.9A5.73,5.73,0,0,1-13.4,3.238a6.313,6.313,0,0,1-1.328-.48l.383-1.7a5.235,5.235,0,0,0,1.082.379,5.362,5.362,0,0,0,1.207.129,2.042,2.042,0,0,0,1.379-.391,1.546,1.546,0,0,0,.441-1.219V-.812a2.552,2.552,0,0,1-.883.727,2.6,2.6,0,0,1-1.164.25A2.869,2.869,0,0,1-14.7-.977a4.855,4.855,0,0,1-.867-3.016Zm2.281.164a3.473,3.473,0,0,0,.371,1.746,1.3,1.3,0,0,0,1.215.637,1.883,1.883,0,0,0,.887-.191,1.462,1.462,0,0,0,.582-.559V-6.023a1.559,1.559,0,0,0-.582-.6,1.706,1.706,0,0,0-.871-.211,1.279,1.279,0,0,0-1.219.742,4.231,4.231,0,0,0-.383,1.938ZM-3.8,0H-6.086V-8.453H-3.8Zm0-10.477H-6.086v-1.711H-3.8ZM1.6-1.586a1.27,1.27,0,0,0,.945-.355A1.291,1.291,0,0,0,2.9-2.891H4.977l.016.047A2.645,2.645,0,0,1,4.039-.7,3.564,3.564,0,0,1,1.6.164a3.6,3.6,0,0,1-2.9-1.2A4.558,4.558,0,0,1-2.32-4.1v-.234A4.588,4.588,0,0,1-1.3-7.4,3.57,3.57,0,0,1,1.586-8.609a3.486,3.486,0,0,1,2.492.891,2.976,2.976,0,0,1,.914,2.344l-.016.047H2.9a1.687,1.687,0,0,0-.348-1.09,1.168,1.168,0,0,0-.965-.434,1.3,1.3,0,0,0-1.254.707A3.878,3.878,0,0,0-.039-4.336V-4.1a3.863,3.863,0,0,0,.371,1.82A1.32,1.32,0,0,0,1.6-1.586ZM5.969-4.3A4.536,4.536,0,0,1,7.023-7.4,3.676,3.676,0,0,1,9.945-8.609a3.715,3.715,0,0,1,2.938,1.2,4.512,4.512,0,0,1,1.063,3.1v.164a4.519,4.519,0,0,1-1.059,3.105A3.7,3.7,0,0,1,9.961.164a3.709,3.709,0,0,1-2.934-1.2A4.519,4.519,0,0,1,5.969-4.141Zm2.273.164a3.677,3.677,0,0,0,.406,1.855,1.4,1.4,0,0,0,1.313.7,1.389,1.389,0,0,0,1.293-.7,3.653,3.653,0,0,0,.41-1.852V-4.3a3.616,3.616,0,0,0-.414-1.836,1.4,1.4,0,0,0-1.3-.711,1.384,1.384,0,0,0-1.293.715A3.648,3.648,0,0,0,8.242-4.3ZM24.2-3.984H19.6V-5.742h4.6ZM-36.078,19.008h.047l2.922-8.383h2.977V22h-2.281V14.234l-.047-.008L-35.273,22H-36.82l-2.812-7.789-.047.008V22h-2.281V10.625h2.992ZM-23.227,22a4.8,4.8,0,0,1-.215-.609,4.239,4.239,0,0,1-.129-.656,3.127,3.127,0,0,1-.93,1.023,2.33,2.33,0,0,1-1.375.406,2.855,2.855,0,0,1-2.047-.684,2.449,2.449,0,0,1-.719-1.863,2.229,2.229,0,0,1,.957-1.926,4.78,4.78,0,0,1,2.793-.684h1.281v-.672a1.315,1.315,0,0,0-.32-.945,1.257,1.257,0,0,0-.953-.336,1.239,1.239,0,0,0-.855.27.941.941,0,0,0-.3.738h-2.2l-.016-.047a2.144,2.144,0,0,1,.934-1.848,4.055,4.055,0,0,1,2.582-.777,3.784,3.784,0,0,1,2.465.766,2.667,2.667,0,0,1,.941,2.2v3.492a6.6,6.6,0,0,0,.09,1.117A5.606,5.606,0,0,0-20.953,22Zm-2.086-1.523a1.944,1.944,0,0,0,1.063-.3,1.6,1.6,0,0,0,.641-.687V18.3h-1.281a1.519,1.519,0,0,0-1.1.359,1.181,1.181,0,0,0-.371.883.881.881,0,0,0,.277.684A1.1,1.1,0,0,0-25.312,20.477Zm8.43-9v2.07h1.43v1.6h-1.43v4.3a.982.982,0,0,0,.207.7.727.727,0,0,0,.543.211,2.178,2.178,0,0,0,.313-.02,2.632,2.632,0,0,0,.3-.066l.188,1.648a4.618,4.618,0,0,1-.668.176,3.982,3.982,0,0,1-.707.059,2.431,2.431,0,0,1-1.816-.648,2.843,2.843,0,0,1-.637-2.055V15.148h-1.234v-1.6h1.234v-2.07Zm6.5,10.688A3.8,3.8,0,0,1-13.336,21,4.252,4.252,0,0,1-14.4,18.016V17.7a4.628,4.628,0,0,1,1.031-3.109,3.506,3.506,0,0,1,2.836-1.2,3.282,3.282,0,0,1,2.613,1.043,4.122,4.122,0,0,1,.91,2.809v1.18h-5.039l-.023.047a2.284,2.284,0,0,0,.527,1.406,1.766,1.766,0,0,0,1.4.539,4.692,4.692,0,0,0,1.3-.156,5.307,5.307,0,0,0,1.105-.477l.617,1.406a4.234,4.234,0,0,1-1.375.7A6.1,6.1,0,0,1-10.383,22.164Zm-.148-7.016a1.267,1.267,0,0,0-1.059.473,2.371,2.371,0,0,0-.449,1.254l.016.039h2.781v-.172a1.974,1.974,0,0,0-.3-1.168A1.127,1.127,0,0,0-10.531,15.148Zm6.969-1.6.094,1.117a2.84,2.84,0,0,1,1.02-.941,2.932,2.932,0,0,1,1.418-.332,2.582,2.582,0,0,1,1.391.359,2.217,2.217,0,0,1,.875,1.086A2.93,2.93,0,0,1,2.25,13.773a2.756,2.756,0,0,1,1.469-.383,2.408,2.408,0,0,1,1.973.887,4.233,4.233,0,0,1,.723,2.707V22H4.133V16.977a2.369,2.369,0,0,0-.312-1.414,1.109,1.109,0,0,0-.93-.4,1.592,1.592,0,0,0-.84.215,1.565,1.565,0,0,0-.566.6q0,.148.008.254t.008.215V22H-.773V16.977a2.376,2.376,0,0,0-.312-1.4,1.1,1.1,0,0,0-.937-.41,1.769,1.769,0,0,0-.809.176,1.551,1.551,0,0,0-.574.5V22H-5.68V13.547ZM13.148,22a4.8,4.8,0,0,1-.215-.609,4.239,4.239,0,0,1-.129-.656,3.127,3.127,0,0,1-.93,1.023,2.33,2.33,0,0,1-1.375.406,2.855,2.855,0,0,1-2.047-.684,2.449,2.449,0,0,1-.719-1.863,2.229,2.229,0,0,1,.957-1.926,4.78,4.78,0,0,1,2.793-.684h1.281v-.672a1.315,1.315,0,0,0-.32-.945,1.257,1.257,0,0,0-.953-.336,1.239,1.239,0,0,0-.855.27.941.941,0,0,0-.3.738h-2.2l-.016-.047a2.144,2.144,0,0,1,.934-1.848,4.055,4.055,0,0,1,2.582-.777,3.784,3.784,0,0,1,2.465.766,2.667,2.667,0,0,1,.941,2.2v3.492a6.6,6.6,0,0,0,.09,1.117A5.606,5.606,0,0,0,15.422,22Zm-2.086-1.523a1.944,1.944,0,0,0,1.063-.3,1.6,1.6,0,0,0,.641-.687V18.3H11.484a1.519,1.519,0,0,0-1.1.359,1.181,1.181,0,0,0-.371.883.881.881,0,0,0,.277.684A1.1,1.1,0,0,0,11.063,20.477Zm.945-10.539h2.539l.016.047L12.4,12.016H10.453Zm7.484,1.539v2.07h1.43v1.6h-1.43v4.3a.982.982,0,0,0,.207.7.727.727,0,0,0,.543.211,2.178,2.178,0,0,0,.313-.02,2.632,2.632,0,0,0,.3-.066l.188,1.648a4.618,4.618,0,0,1-.668.176,3.982,3.982,0,0,1-.707.059,2.431,2.431,0,0,1-1.816-.648,2.843,2.843,0,0,1-.637-2.055V15.148H15.984v-1.6h1.234v-2.07ZM24.727,22H22.445V13.547h2.281Zm0-10.477H22.445V9.813h2.281Zm5.406,8.891a1.27,1.27,0,0,0,.945-.355,1.291,1.291,0,0,0,.352-.949h2.078l.016.047A2.645,2.645,0,0,1,32.57,21.3a3.564,3.564,0,0,1-2.437.863,3.6,3.6,0,0,1-2.9-1.2A4.558,4.558,0,0,1,26.211,17.9v-.234A4.588,4.588,0,0,1,27.23,14.6a3.57,3.57,0,0,1,2.887-1.207,3.486,3.486,0,0,1,2.492.891,2.976,2.976,0,0,1,.914,2.344l-.016.047H31.43a1.687,1.687,0,0,0-.348-1.09,1.168,1.168,0,0,0-.965-.434,1.3,1.3,0,0,0-1.254.707,3.878,3.878,0,0,0-.371,1.809V17.9a3.863,3.863,0,0,0,.371,1.82A1.32,1.32,0,0,0,30.133,20.414ZM34.5,17.7a4.536,4.536,0,0,1,1.055-3.1,3.676,3.676,0,0,1,2.922-1.207,3.715,3.715,0,0,1,2.938,1.2,4.512,4.512,0,0,1,1.063,3.1v.164a4.519,4.519,0,0,1-1.059,3.105,3.7,3.7,0,0,1-2.926,1.2,3.709,3.709,0,0,1-2.934-1.2A4.519,4.519,0,0,1,34.5,17.859Zm2.273.164a3.677,3.677,0,0,0,.406,1.855,1.561,1.561,0,0,0,2.605,0,3.653,3.653,0,0,0,.41-1.852V17.7a3.616,3.616,0,0,0-.414-1.836,1.4,1.4,0,0,0-1.3-.711,1.384,1.384,0,0,0-1.293.715,3.648,3.648,0,0,0-.41,1.832Z" transform="translate(937.606 4931.925)" fill="#12263f"/>
    <path id="Trazado_877785" data-name="Trazado 877785" d="M-29.594,0h-2.281l-4.586-7.672-.047.008V0h-2.281V-11.375h2.281l4.586,7.664.047-.008v-7.656h2.281Zm6.906,0A4.8,4.8,0,0,1-22.9-.609a4.239,4.239,0,0,1-.129-.656,3.127,3.127,0,0,1-.93,1.023,2.33,2.33,0,0,1-1.375.406A2.855,2.855,0,0,1-27.383-.52,2.449,2.449,0,0,1-28.1-2.383a2.229,2.229,0,0,1,.957-1.926,4.78,4.78,0,0,1,2.793-.684h1.281v-.672a1.315,1.315,0,0,0-.32-.945,1.257,1.257,0,0,0-.953-.336,1.239,1.239,0,0,0-.855.27.941.941,0,0,0-.3.738h-2.2l-.016-.047a2.144,2.144,0,0,1,.934-1.848A4.055,4.055,0,0,1-24.2-8.609a3.784,3.784,0,0,1,2.465.766,2.667,2.667,0,0,1,.941,2.2v3.492a6.6,6.6,0,0,0,.09,1.117A5.606,5.606,0,0,0-20.414,0Zm-2.086-1.523a1.944,1.944,0,0,0,1.063-.3,1.6,1.6,0,0,0,.641-.687V-3.7h-1.281a1.519,1.519,0,0,0-1.1.359,1.181,1.181,0,0,0-.371.883.881.881,0,0,0,.277.684A1.1,1.1,0,0,0-24.773-1.523Zm8.43-9v2.07h1.43v1.6h-1.43v4.3a.982.982,0,0,0,.207.7.727.727,0,0,0,.543.211,2.178,2.178,0,0,0,.313-.02,2.632,2.632,0,0,0,.3-.066l.188,1.648a4.618,4.618,0,0,1-.668.176,3.982,3.982,0,0,1-.707.059A2.431,2.431,0,0,1-17.98-.484a2.843,2.843,0,0,1-.637-2.055V-6.852h-1.234v-1.6h1.234v-2.07ZM-8.328-1.25A2.87,2.87,0,0,1-9.32-.2a2.63,2.63,0,0,1-1.4.367,2.57,2.57,0,0,1-2.09-.906,4.347,4.347,0,0,1-.754-2.812v-4.9h2.273v4.914a2.729,2.729,0,0,0,.3,1.52,1.081,1.081,0,0,0,.934.41,2.273,2.273,0,0,0,.938-.176,1.58,1.58,0,0,0,.641-.52V-8.453H-6.2V0H-8.086Zm8.3-5.242-.836-.023A1.519,1.519,0,0,0-1.7-6.3a1.337,1.337,0,0,0-.5.594V0H-4.477V-8.453h2.117l.1,1.25a2.667,2.667,0,0,1,.77-1.035A1.715,1.715,0,0,1-.4-8.609a1.705,1.705,0,0,1,.316.027q.145.027.293.066ZM6.141,0a4.8,4.8,0,0,1-.215-.609A4.239,4.239,0,0,1,5.8-1.266a3.127,3.127,0,0,1-.93,1.023A2.33,2.33,0,0,1,3.492.164,2.855,2.855,0,0,1,1.445-.52,2.449,2.449,0,0,1,.727-2.383a2.229,2.229,0,0,1,.957-1.926,4.78,4.78,0,0,1,2.793-.684H5.758v-.672a1.315,1.315,0,0,0-.32-.945,1.257,1.257,0,0,0-.953-.336,1.239,1.239,0,0,0-.855.27.941.941,0,0,0-.3.738h-2.2l-.016-.047a2.144,2.144,0,0,1,.934-1.848,4.055,4.055,0,0,1,2.582-.777A3.784,3.784,0,0,1,7.1-7.844a2.667,2.667,0,0,1,.941,2.2v3.492a6.6,6.6,0,0,0,.09,1.117A5.606,5.606,0,0,0,8.414,0ZM4.055-1.523a1.944,1.944,0,0,0,1.063-.3,1.6,1.6,0,0,0,.641-.687V-3.7H4.477a1.519,1.519,0,0,0-1.1.359,1.181,1.181,0,0,0-.371.883.881.881,0,0,0,.277.684A1.1,1.1,0,0,0,4.055-1.523ZM12.148,0H9.867V-12.187h2.281Zm4.273,0H14.141V-8.453h2.281Zm0-10.477H14.141v-1.711h2.281Zm6.445,8.133a.787.787,0,0,0-.363-.645,3.69,3.69,0,0,0-1.348-.473,5.375,5.375,0,0,1-2.254-.9,1.962,1.962,0,0,1-.77-1.633,2.329,2.329,0,0,1,.922-1.852,3.717,3.717,0,0,1,2.453-.766,4.011,4.011,0,0,1,2.566.766A2.237,2.237,0,0,1,25-5.937l-.016.047h-2.2a1.106,1.106,0,0,0-.328-.828,1.3,1.3,0,0,0-.945-.32,1.292,1.292,0,0,0-.867.273.85.85,0,0,0-.32.672.759.759,0,0,0,.332.637A3.7,3.7,0,0,0,22-5.016a5.484,5.484,0,0,1,2.316.918,2.014,2.014,0,0,1,.762,1.668A2.231,2.231,0,0,1,24.1-.562a4.215,4.215,0,0,1-2.578.727,3.918,3.918,0,0,1-2.668-.855,2.392,2.392,0,0,1-.934-1.949l.016-.047h2.086a1.186,1.186,0,0,0,.445.984,1.838,1.838,0,0,0,1.1.3,1.567,1.567,0,0,0,.965-.254A.824.824,0,0,0,22.867-2.344Zm6.414-8.18v2.07h1.43v1.6h-1.43v4.3a.982.982,0,0,0,.207.7.727.727,0,0,0,.543.211,2.178,2.178,0,0,0,.313-.02,2.632,2.632,0,0,0,.3-.066L30.836-.07a4.618,4.618,0,0,1-.668.176,3.982,3.982,0,0,1-.707.059,2.431,2.431,0,0,1-1.816-.648,2.843,2.843,0,0,1-.637-2.055V-6.852H25.773v-1.6h1.234v-2.07ZM37.1,0a4.8,4.8,0,0,1-.215-.609,4.239,4.239,0,0,1-.129-.656,3.127,3.127,0,0,1-.93,1.023,2.33,2.33,0,0,1-1.375.406A2.855,2.855,0,0,1,32.406-.52a2.449,2.449,0,0,1-.719-1.863,2.229,2.229,0,0,1,.957-1.926,4.78,4.78,0,0,1,2.793-.684h1.281v-.672a1.315,1.315,0,0,0-.32-.945,1.257,1.257,0,0,0-.953-.336,1.239,1.239,0,0,0-.855.27.941.941,0,0,0-.3.738h-2.2l-.016-.047a2.144,2.144,0,0,1,.934-1.848,4.055,4.055,0,0,1,2.582-.777,3.784,3.784,0,0,1,2.465.766A2.667,2.667,0,0,1,39-5.648v3.492a6.605,6.605,0,0,0,.09,1.117A5.606,5.606,0,0,0,39.375,0ZM35.016-1.523a1.944,1.944,0,0,0,1.063-.3,1.6,1.6,0,0,0,.641-.687V-3.7H35.438a1.519,1.519,0,0,0-1.1.359,1.181,1.181,0,0,0-.371.883.881.881,0,0,0,.277.684A1.1,1.1,0,0,0,35.016-1.523Z" transform="translate(802.606 5007.425)" fill="#12263f"/>
    <path id="Trazado_877786" data-name="Trazado 877786" d="M-19.371-3.086l.141.625h.047l.133-.6,2.477-8.312h2.406L-18.035,0h-2.344l-3.859-11.375h2.406ZM-10.84,0h-2.281V-8.453h2.281Zm0-10.477h-2.281v-1.711h2.281Zm6.445,8.133a.787.787,0,0,0-.363-.645,3.69,3.69,0,0,0-1.348-.473,5.375,5.375,0,0,1-2.254-.9,1.962,1.962,0,0,1-.77-1.633,2.329,2.329,0,0,1,.922-1.852,3.717,3.717,0,0,1,2.453-.766,4.011,4.011,0,0,1,2.566.766,2.237,2.237,0,0,1,.926,1.906l-.016.047h-2.2a1.106,1.106,0,0,0-.328-.828,1.3,1.3,0,0,0-.945-.32,1.292,1.292,0,0,0-.867.273.85.85,0,0,0-.32.672.759.759,0,0,0,.332.637,3.7,3.7,0,0,0,1.348.441A5.484,5.484,0,0,1-2.945-4.1,2.014,2.014,0,0,1-2.184-2.43,2.231,2.231,0,0,1-3.16-.562,4.215,4.215,0,0,1-5.738.164,3.918,3.918,0,0,1-8.406-.691,2.392,2.392,0,0,1-9.34-2.641l.016-.047h2.086a1.186,1.186,0,0,0,.445.984,1.838,1.838,0,0,0,1.1.3,1.567,1.567,0,0,0,.965-.254A.824.824,0,0,0-4.395-2.344ZM4.465-1.25A2.87,2.87,0,0,1,3.473-.2a2.63,2.63,0,0,1-1.4.367A2.57,2.57,0,0,1-.016-.742,4.347,4.347,0,0,1-.77-3.555v-4.9H1.5v4.914a2.729,2.729,0,0,0,.3,1.52,1.081,1.081,0,0,0,.934.41,2.273,2.273,0,0,0,.938-.176,1.58,1.58,0,0,0,.641-.52V-8.453H6.6V0H4.707ZM13.3,0a4.8,4.8,0,0,1-.215-.609,4.239,4.239,0,0,1-.129-.656,3.127,3.127,0,0,1-.93,1.023,2.33,2.33,0,0,1-1.375.406A2.855,2.855,0,0,1,8.605-.52a2.449,2.449,0,0,1-.719-1.863,2.229,2.229,0,0,1,.957-1.926,4.78,4.78,0,0,1,2.793-.684h1.281v-.672a1.315,1.315,0,0,0-.32-.945,1.257,1.257,0,0,0-.953-.336,1.239,1.239,0,0,0-.855.27.941.941,0,0,0-.3.738h-2.2l-.016-.047a2.144,2.144,0,0,1,.934-1.848,4.055,4.055,0,0,1,2.582-.777,3.784,3.784,0,0,1,2.465.766,2.667,2.667,0,0,1,.941,2.2v3.492a6.6,6.6,0,0,0,.09,1.117A5.606,5.606,0,0,0,15.574,0ZM11.215-1.523a1.944,1.944,0,0,0,1.063-.3,1.6,1.6,0,0,0,.641-.687V-3.7H11.637a1.519,1.519,0,0,0-1.1.359,1.181,1.181,0,0,0-.371.883.881.881,0,0,0,.277.684A1.1,1.1,0,0,0,11.215-1.523ZM19.309,0H17.027V-12.187h2.281Z" transform="translate(680.606 4963.425)" fill="#12263f"/>
    <path id="Trazado_877787" data-name="Trazado 877787" d="M-22.535-5h-4.219v3.25h5.016V0h-7.3V-11.375h7.281v1.758h-5v2.859h4.219Zm6.8,2.656a.787.787,0,0,0-.363-.645,3.69,3.69,0,0,0-1.348-.473,5.375,5.375,0,0,1-2.254-.9,1.962,1.962,0,0,1-.77-1.633,2.329,2.329,0,0,1,.922-1.852A3.717,3.717,0,0,1-17.1-8.609a4.011,4.011,0,0,1,2.566.766,2.237,2.237,0,0,1,.926,1.906l-.016.047h-2.2a1.106,1.106,0,0,0-.328-.828,1.3,1.3,0,0,0-.945-.32,1.292,1.292,0,0,0-.867.273.85.85,0,0,0-.32.672.759.759,0,0,0,.332.637,3.7,3.7,0,0,0,1.348.441,5.484,5.484,0,0,1,2.316.918,2.014,2.014,0,0,1,.762,1.668A2.231,2.231,0,0,1-14.5-.562a4.215,4.215,0,0,1-2.578.727A3.918,3.918,0,0,1-19.75-.691a2.392,2.392,0,0,1-.934-1.949l.016-.047h2.086a1.186,1.186,0,0,0,.445.984,1.838,1.838,0,0,0,1.1.3,1.567,1.567,0,0,0,.965-.254A.824.824,0,0,0-15.738-2.344Zm11.3-1.648A4.855,4.855,0,0,1-5.3-.977,2.869,2.869,0,0,1-7.723.164,2.707,2.707,0,0,1-8.9-.082,2.423,2.423,0,0,1-9.785-.8V3.25h-2.273v-11.7H-10l.133,1a2.709,2.709,0,0,1,.9-.855,2.441,2.441,0,0,1,1.23-.3A2.813,2.813,0,0,1-5.3-7.383a5.474,5.474,0,0,1,.867,3.227Zm-2.281-.164a4.09,4.09,0,0,0-.4-1.937,1.3,1.3,0,0,0-1.219-.742,1.722,1.722,0,0,0-.879.211,1.505,1.505,0,0,0-.574.6v3.7a1.4,1.4,0,0,0,.574.547,1.935,1.935,0,0,0,.895.188A1.312,1.312,0,0,0-7.1-2.234a3.423,3.423,0,0,0,.387-1.758ZM1.957,0a4.8,4.8,0,0,1-.215-.609,4.239,4.239,0,0,1-.129-.656A3.127,3.127,0,0,1,.684-.242,2.33,2.33,0,0,1-.691.164,2.855,2.855,0,0,1-2.738-.52a2.449,2.449,0,0,1-.719-1.863A2.229,2.229,0,0,1-2.5-4.309,4.78,4.78,0,0,1,.293-4.992H1.574v-.672a1.315,1.315,0,0,0-.32-.945A1.257,1.257,0,0,0,.3-6.945a1.239,1.239,0,0,0-.855.27.941.941,0,0,0-.3.738h-2.2l-.016-.047a2.144,2.144,0,0,1,.934-1.848A4.055,4.055,0,0,1,.449-8.609a3.784,3.784,0,0,1,2.465.766,2.667,2.667,0,0,1,.941,2.2v3.492a6.6,6.6,0,0,0,.09,1.117A5.606,5.606,0,0,0,4.23,0ZM-.129-1.523a1.944,1.944,0,0,0,1.063-.3,1.6,1.6,0,0,0,.641-.687V-3.7H.293a1.519,1.519,0,0,0-1.1.359,1.181,1.181,0,0,0-.371.883A.881.881,0,0,0-.9-1.777,1.1,1.1,0,0,0-.129-1.523ZM9.1-1.586a1.27,1.27,0,0,0,.945-.355,1.291,1.291,0,0,0,.352-.949h2.078l.016.047A2.645,2.645,0,0,1,11.535-.7,3.564,3.564,0,0,1,9.1.164a3.6,3.6,0,0,1-2.9-1.2A4.558,4.558,0,0,1,5.176-4.1v-.234A4.588,4.588,0,0,1,6.2-7.4,3.57,3.57,0,0,1,9.082-8.609a3.486,3.486,0,0,1,2.492.891,2.976,2.976,0,0,1,.914,2.344l-.016.047H10.395a1.687,1.687,0,0,0-.348-1.09,1.168,1.168,0,0,0-.965-.434,1.3,1.3,0,0,0-1.254.707,3.878,3.878,0,0,0-.371,1.809V-4.1a3.863,3.863,0,0,0,.371,1.82A1.32,1.32,0,0,0,9.1-1.586ZM16.215,0H13.934V-8.453h2.281Zm0-10.477H13.934v-1.711h2.281ZM23.074,0a4.8,4.8,0,0,1-.215-.609,4.239,4.239,0,0,1-.129-.656A3.127,3.127,0,0,1,21.8-.242a2.33,2.33,0,0,1-1.375.406A2.855,2.855,0,0,1,18.379-.52a2.449,2.449,0,0,1-.719-1.863,2.229,2.229,0,0,1,.957-1.926,4.78,4.78,0,0,1,2.793-.684h1.281v-.672a1.315,1.315,0,0,0-.32-.945,1.257,1.257,0,0,0-.953-.336,1.239,1.239,0,0,0-.855.27.941.941,0,0,0-.3.738h-2.2l-.016-.047a2.144,2.144,0,0,1,.934-1.848,4.055,4.055,0,0,1,2.582-.777,3.784,3.784,0,0,1,2.465.766,2.667,2.667,0,0,1,.941,2.2v3.492a6.6,6.6,0,0,0,.09,1.117A5.606,5.606,0,0,0,25.348,0ZM20.988-1.523a1.944,1.944,0,0,0,1.063-.3,1.6,1.6,0,0,0,.641-.687V-3.7H21.41a1.519,1.519,0,0,0-1.1.359,1.181,1.181,0,0,0-.371.883.881.881,0,0,0,.277.684A1.1,1.1,0,0,0,20.988-1.523ZM29.082,0H26.8V-12.187h2.281Z" transform="translate(629.606 4834.859)" fill="#12263f"/>
    <g id="Grupo_1100212" data-name="Grupo 1100212" transform="translate(970.404 4606.293)">
      <g id="Grupo_1100211" data-name="Grupo 1100211" transform="translate(0 0)" clip-path="url(#clip-path-2)">
        <path id="Trazado_877544" data-name="Trazado 877544" d="M21.338,58.665c-4.829,0-9.664-1.108-11.88-3.335a1.174,1.174,0,0,1-.314-1.118c.062-.247,1.541-6.84-1.149-12.782a14.852,14.852,0,0,0-2.18-3.17C3.227,35.09,0,31.152,0,19.813L.005,19.7C.1.572,19.266.026,21.452.026c.1,0,.216-.005.366-.01C22.091.01,22.441,0,22.849,0c4.376,0,18.839,1.386,20.936,19.266.01.1.345,2.118,4.855,9.159a3.324,3.324,0,0,1,.495,2.453,3.231,3.231,0,0,1-1.665,2.1,35.369,35.369,0,0,1-3.732,1.83,37.173,37.173,0,0,1-.021,8.329c-.567,2.969-5,3.592-8.628,3.592-.469,0-.758-.015-.758-.015l-.149-.005a2.229,2.229,0,0,0-.619.077V54.5a1.188,1.188,0,0,1-.345.83c-2.216,2.227-7.051,3.335-11.88,3.335m-9.772-4.618c3.958,3.046,15.808,3.026,19.638-.072V46.62c0-1.041.778-2.268,2.979-2.268.17,0,.278.01.294.01a5.585,5.585,0,0,0,.613.01c3.933,0,6.154-.845,6.309-1.675.531-2.757-.088-8.463-.088-8.52a1.187,1.187,0,0,1,.747-1.232,33.374,33.374,0,0,0,4.226-2,1.093,1.093,0,0,0,.546-.562,1,1,0,0,0-.155-.644c-4.886-7.618-5.221-9.9-5.247-10.272C39.569,3.6,26.73,2.361,22.849,2.361c-.387,0-.706.005-.964.015-.175.005-.325.01-.433.01-3.17,0-19.009.83-19.086,17.313v.108c0,10.5,2.922,14.081,5.278,16.962a16.612,16.612,0,0,1,2.5,3.68,23.623,23.623,0,0,1,1.423,13.6" transform="translate(0 0.001)" fill="#35a064"/>
        <path id="Trazado_877545" data-name="Trazado 877545" d="M4.042,5.982a1.181,1.181,0,0,0-1.8,1.526l.046.057a1.209,1.209,0,0,0,.907.423,1.187,1.187,0,0,0,.9-1.943Z" transform="translate(8.132 23.115)" fill="#35a064"/>
        <path id="Trazado_877546" data-name="Trazado 877546" d="M4.5,6.355,4.411,6.3A1.182,1.182,0,1,0,3.262,8.37l.046.021a1.2,1.2,0,0,0,.593.165,1.157,1.157,0,0,0,1.015-.588A1.176,1.176,0,0,0,4.5,6.355" transform="translate(11.025 25.561)" fill="#35a064"/>
        <path id="Trazado_877547" data-name="Trazado 877547" d="M2.255,2.624l-.036.036A1.154,1.154,0,0,0,2.4,4.289a1.134,1.134,0,0,0,.732.258A1.234,1.234,0,0,0,4.095,4.1a1.166,1.166,0,0,0-.17-1.644,1.2,1.2,0,0,0-1.67.165" transform="translate(8.157 9.113)" fill="#35a064"/>
        <path id="Trazado_877548" data-name="Trazado 877548" d="M3.8,5.56a1.182,1.182,0,0,0-2.232.778l.036.093a1.117,1.117,0,0,0,1.072.742A1.149,1.149,0,0,0,3.095,7.1,1.212,1.212,0,0,0,3.8,5.56" transform="translate(6.25 19.831)" fill="#35a064"/>
        <path id="Trazado_877549" data-name="Trazado 877549" d="M3.645,4.671a1.179,1.179,0,1,0-2.227.778l.031.093a1.114,1.114,0,0,0,1.072.737,1.144,1.144,0,0,0,.417-.067,1.214,1.214,0,0,0,.706-1.541" transform="translate(5.612 16.117)" fill="#35a064"/>
        <path id="Trazado_877550" data-name="Trazado 877550" d="M6.521,4.609a1.179,1.179,0,0,0,1.108.773,1.248,1.248,0,0,0,.407-.067A1.187,1.187,0,0,0,8.742,3.8l-.031-.072a1.146,1.146,0,0,0-1.495-.67,1.215,1.215,0,0,0-.7,1.551" transform="translate(26.786 12.39)" fill="#35a064"/>
        <path id="Trazado_877551" data-name="Trazado 877551" d="M3.3,1.761,3.221,1.8A1.15,1.15,0,0,0,2.829,3.39a1.182,1.182,0,0,0,1.031.582,1.327,1.327,0,0,0,.613-.16A1.181,1.181,0,0,0,3.3,1.761" transform="translate(11.061 6.672)" fill="#35a064"/>
        <path id="Trazado_877552" data-name="Trazado 877552" d="M2.292,5.3a1.116,1.116,0,0,0,.387.072,1.239,1.239,0,0,0,1.139-.8,1.181,1.181,0,0,0-2.211-.83l-.031.082A1.152,1.152,0,0,0,2.292,5.3" transform="translate(6.259 12.37)" fill="#35a064"/>
        <path id="Trazado_877553" data-name="Trazado 877553" d="M6.315,4.19a1.178,1.178,0,0,0,1.66.139,1.179,1.179,0,0,0,.144-1.665l-.052-.057a1.182,1.182,0,0,0-1.809,1.52l.057.062" transform="translate(24.858 9.093)" fill="#35a064"/>
        <path id="Trazado_877554" data-name="Trazado 877554" d="M8.048,4.86a1.211,1.211,0,0,0-1.531.732,1.181,1.181,0,0,0,.691,1.52,1.287,1.287,0,0,0,.412.072,1.175,1.175,0,0,0,1.108-.768l.036-.082A1.156,1.156,0,0,0,8.048,4.86" transform="translate(26.758 19.901)" fill="#35a064"/>
        <path id="Trazado_877555" data-name="Trazado 877555" d="M7.11,1.794l-.052-.026A1.179,1.179,0,1,0,5.868,3.8l.088.046a1.1,1.1,0,0,0,.577.155A1.169,1.169,0,0,0,7.564,3.4a1.181,1.181,0,0,0-.454-1.6" transform="translate(21.949 6.67)" fill="#35a064"/>
        <path id="Trazado_877556" data-name="Trazado 877556" d="M6.261,6.017A1.176,1.176,0,0,0,6.4,7.677a1.177,1.177,0,0,0,1.67-.139l.046-.057a1.143,1.143,0,0,0-.165-1.629,1.2,1.2,0,0,0-1.685.165" transform="translate(24.844 23.182)" fill="#35a064"/>
        <path id="Trazado_877557" data-name="Trazado 877557" d="M7.78,3.873a1.176,1.176,0,0,0-1.175,1.18v.119a1.173,1.173,0,0,0,1.16,1.2H7.78a1.184,1.184,0,0,0,1.185-1.16V5.053A1.185,1.185,0,0,0,7.78,3.873" transform="translate(27.438 16.09)" fill="#35a064"/>
        <path id="Trazado_877558" data-name="Trazado 877558" d="M5.855,6.329a1.177,1.177,0,0,0,.613,2.185,1.276,1.276,0,0,0,.608-.16l.041-.026a1.146,1.146,0,0,0,.381-1.6,1.218,1.218,0,0,0-1.644-.4" transform="translate(21.942 25.613)" fill="#35a064"/>
        <path id="Trazado_877559" data-name="Trazado 877559" d="M4.565,1.311l-.108.021a1.141,1.141,0,0,0-.917,1.35,1.2,1.2,0,0,0,1.2.974c.062,0,.124-.005.18-.01A1.189,1.189,0,0,0,5.911,2.3a1.177,1.177,0,0,0-1.345-.99" transform="translate(14.629 5.385)" fill="#35a064"/>
        <path id="Trazado_877560" data-name="Trazado 877560" d="M4.973,6.5l-.108-.021a1.181,1.181,0,0,0-.356,2.335l.041.005a1.012,1.012,0,0,0,.211.021A1.179,1.179,0,0,0,4.973,6.5" transform="translate(14.582 26.876)" fill="#35a064"/>
        <path id="Trazado_877561" data-name="Trazado 877561" d="M5.428,6.488A1.179,1.179,0,0,0,5.6,8.834a1.022,1.022,0,0,0,.18-.015L5.892,8.8a1.147,1.147,0,0,0,.917-1.345,1.22,1.22,0,0,0-1.381-.964" transform="translate(18.364 26.896)" fill="#35a064"/>
        <path id="Trazado_877562" data-name="Trazado 877562" d="M5.845,1.327l-.077-.015a1.154,1.154,0,0,0-1.319.974,1.217,1.217,0,0,0,.995,1.366.973.973,0,0,0,.211.015,1.178,1.178,0,0,0,.191-2.34" transform="translate(18.415 5.385)" fill="#35a064"/>
        <path id="Trazado_877563" data-name="Trazado 877563" d="M12.1,21.8a9.8,9.8,0,1,1,9.8-9.8,9.806,9.806,0,0,1-9.8,9.8m0-17.23a7.438,7.438,0,1,0,7.432,7.432A7.437,7.437,0,0,0,12.1,4.574" transform="translate(9.58 9.194)" fill="#35a064"/>
        <path id="Trazado_877564" data-name="Trazado 877564" d="M7.577,12.8a1.2,1.2,0,0,1-.809-.32L3.608,9.5A1.18,1.18,0,0,1,5.221,7.777l2.015,1.9L10.108,3.9a1.178,1.178,0,1,1,2.108,1.051l-3.577,7.2a1.2,1.2,0,0,1-.856.639c-.067.005-.134.015-.206.015" transform="translate(13.442 13.47)" fill="#35a064"/>
      </g>
    </g>
    <g id="Grupo_1100214" data-name="Grupo 1100214" transform="translate(773 5072.313)">
      <g id="Grupo_1100213" data-name="Grupo 1100213" transform="translate(0 0)" clip-path="url(#clip-path-3)">
        <path id="Trazado_877565" data-name="Trazado 877565" d="M22.279,35.688c-.161,0-.321,0-.488-.006a1.326,1.326,0,0,1-1.222-.941l-1.263-4.247-3.214,3.053a1.322,1.322,0,0,1-1.532.207,16.687,16.687,0,0,1-4.224-3.237,1.328,1.328,0,0,1-.2-1.532l2.106-3.891-4.43-.115a1.3,1.3,0,0,1-1.217-.93,16.193,16.193,0,0,1-.58-2.611,17.358,17.358,0,0,1-.126-2.674,1.309,1.309,0,0,1,.935-1.217l4.247-1.268L8.029,13.071a1.306,1.306,0,0,1-.212-1.521,16.513,16.513,0,0,1,3.237-4.235,1.32,1.32,0,0,1,1.527-.2l3.9,2.106L16.6,4.8a1.3,1.3,0,0,1,.924-1.222,16.038,16.038,0,0,1,5.286-.706,1.3,1.3,0,0,1,1.217.941L25.3,8.055l3.208-3.047A1.312,1.312,0,0,1,30.032,4.8a16.255,16.255,0,0,1,4.224,3.242,1.313,1.313,0,0,1,.2,1.527L32.35,13.455l4.43.109A1.328,1.328,0,0,1,38,14.5a16.514,16.514,0,0,1,.574,2.611,17.114,17.114,0,0,1,.132,2.674A1.323,1.323,0,0,1,37.762,21l-4.247,1.263,3.053,3.214A1.313,1.313,0,0,1,36.781,27a16.379,16.379,0,0,1-3.242,4.23,1.311,1.311,0,0,1-1.521.2l-3.9-2.112L28,33.754a1.3,1.3,0,0,1-.93,1.222,16.658,16.658,0,0,1-2.611.568,16.373,16.373,0,0,1-2.181.143m-3.317-7.994a1.575,1.575,0,0,1,.436.069,7.481,7.481,0,0,0,1.2.327,1.322,1.322,0,0,1,1,.912l1.205,4.046a12.569,12.569,0,0,0,1.308-.109c.43-.057.861-.138,1.286-.23l.115-4.23a1.285,1.285,0,0,1,.729-1.136,9.371,9.371,0,0,0,1.073-.626,1.29,1.29,0,0,1,1.366-.075L32.4,28.658a14.191,14.191,0,0,0,1.584-2.077l-2.91-3.07a1.3,1.3,0,0,1-.287-1.326,8.981,8.981,0,0,0,.327-1.2,1.31,1.31,0,0,1,.912-1.016l4.052-1.205c-.017-.442-.052-.878-.109-1.3s-.143-.861-.235-1.291l-4.224-.109a1.3,1.3,0,0,1-1.154-.74,8.58,8.58,0,0,0-.626-1.073,1.308,1.308,0,0,1-.069-1.354l2.014-3.719a13.882,13.882,0,0,0-2.072-1.59l-3.065,2.91a1.3,1.3,0,0,1-1.331.287,9.873,9.873,0,0,0-1.2-.321,1.326,1.326,0,0,1-1.022-.912L21.785,5.5c-.436.017-.872.052-1.3.109s-.867.138-1.286.235l-.1,4.218a1.336,1.336,0,0,1-.74,1.154,8.877,8.877,0,0,0-1.085.626,1.307,1.307,0,0,1-1.354.069L12.19,9.9a14.238,14.238,0,0,0-1.584,2.072l2.91,3.065a1.311,1.311,0,0,1,.293,1.331,7.738,7.738,0,0,0-.321,1.2,1.335,1.335,0,0,1-.918,1.016L8.522,19.785a12.332,12.332,0,0,0,.109,1.3c.057.436.138.867.23,1.291l4.23.109a1.3,1.3,0,0,1,1.148.735,7.9,7.9,0,0,0,.614,1.067,1.313,1.313,0,0,1,.075,1.372l-2.009,3.719A13.984,13.984,0,0,0,15,30.965l3.059-2.91a1.29,1.29,0,0,1,.907-.362m18.433-7.954h0Z" transform="translate(27.891 13.544)" fill="#8a803d"/>
        <path id="Trazado_877566" data-name="Trazado 877566" d="M13.98,7.854A36.8,36.8,0,0,0,5.36,25.2a1.312,1.312,0,0,0,1.056,1.532,1.108,1.108,0,0,0,.241.023,1.308,1.308,0,0,0,1.286-1.079A34.319,34.319,0,0,1,16.092,9.449a15.8,15.8,0,0,1-2.112-1.6" transform="translate(25.297 37.217)" fill="#8a803d"/>
        <path id="Trazado_877567" data-name="Trazado 877567" d="M12.974,15.039a5.118,5.118,0,1,1,.683-.046,5.534,5.534,0,0,1-.683.046m.011-7.587a3.027,3.027,0,0,0-.327.023,2.489,2.489,0,0,0-2.135,2.783,2.481,2.481,0,1,0,2.462-2.806" transform="translate(37.316 22.881)" fill="#8a803d"/>
        <path id="Trazado_877568" data-name="Trazado 877568" d="M29.989,37.219c8.31-8.23,7.489-15.019,5.291-19.311C29.519,6.676,9.1,1.178,1.071,2.7l-.04.017a1.421,1.421,0,0,0-.367.138l-.046.034a1.423,1.423,0,0,0-.287.241L.3,3.164A1.093,1.093,0,0,0,.152,3.4l-.046.1-.029.08a1.423,1.423,0,0,0-.069.373L0,3.979C-.014,5.161-.244,32.932,11.992,39.973a12.075,12.075,0,0,0,6.146,1.618,20.526,20.526,0,0,0,9.613-2.818,66.164,66.164,0,0,1,2.9,12.425,1.311,1.311,0,0,0,1.3,1.142.813.813,0,0,0,.172-.011,1.325,1.325,0,0,0,1.136-1.475,68.085,68.085,0,0,0-3.265-13.636m2.956-18.112c2.468,4.809,1.125,9.986-3.971,15.4A66.453,66.453,0,0,0,5.541,5.1c8.769.453,23.082,5.6,27.4,14.009M13.312,37.7C4.29,32.513,2.89,13.069,2.672,6.332A63.383,63.383,0,0,1,26.838,36.278c-5.4,3-9.951,3.478-13.527,1.423" transform="translate(0.003 11.628)" fill="#8a803d"/>
        <path id="Trazado_877569" data-name="Trazado 877569" d="M8.272,3.377l-.023.006L8.2,5.317c.046-.643.063-1.291.075-1.94" transform="translate(38.845 16)" fill="#8a803d"/>
        <path id="Trazado_877570" data-name="Trazado 877570" d="M27.457,18.3a1.293,1.293,0,0,1,.918-1.182A13.9,13.9,0,0,1,30,16.729,68.3,68.3,0,0,0,26.9.9l-.011-.04L26.815.717A1.084,1.084,0,0,0,26.625.43L26.591.379a.259.259,0,0,1-.08-.057,2.793,2.793,0,0,0-.27-.184L26.069.08a.8.8,0,0,0-.281-.063A.691.691,0,0,0,25.6.011L25.5,0C19.469.735,6.786,8.672,3.595,17.8c.8.344,1.607.694,2.393,1.079C8.071,12.453,15.922,6.342,21.851,3.8a51.979,51.979,0,0,0-8.918,19.432,26.722,26.722,0,0,1,2.313,2.141,50.569,50.569,0,0,1,9.837-21.4A63.349,63.349,0,0,1,27.457,18.3" transform="translate(17.036 -0.003)" fill="#8a803d"/>
        <path id="Trazado_877571" data-name="Trazado 877571" d="M7.794,4.736l.023-.93c-.023.3-.057.591-.1.89Z" transform="translate(36.58 18.033)" fill="#8a803d"/>
      </g>
    </g>
    <g id="Grupo_1100216" data-name="Grupo 1100216" transform="translate(962.606 4992.425)">
      <g id="Grupo_1100215" data-name="Grupo 1100215" transform="translate(0 0)" clip-path="url(#clip-path-4)">
        <path id="Trazado_877572" data-name="Trazado 877572" d="M63.107,4.941,59.061.9A3.011,3.011,0,0,0,54.8.872L52.493,3.178l-.009.009,0,0-4,4L5.373,50.3a.227.227,0,0,0-.057.08l-.057.052a1.81,1.81,0,0,0-.1.184l-.009.024-.009,0v.009L.087,62.5a1.082,1.082,0,0,0,.231,1.188A1.058,1.058,0,0,0,1.078,64a1.1,1.1,0,0,0,.424-.08l11.867-5.064a.968.968,0,0,0,.3-.207l.033-.019,43.108-43.1,0-.014.009,0,3.989-3.989,0,0,.009-.009L63.135,9.2A2.989,2.989,0,0,0,64,7.063a3.036,3.036,0,0,0-.9-2.122M49.24,9.486c.533.537,1.259,1.259,1.867,1.877L9.55,52.929c-.641-.641-1.353-1.348-1.881-1.877ZM3.124,60.879,6.5,52.953l4.54,4.545Zm9.821-4.545c-.561-.556-1.325-1.311-1.881-1.867L52.644,12.886l1.877,1.877ZM56.058,13.221,50.773,7.959l2.48-2.48,5.271,5.276ZM61.6,7.671,60.061,9.218,54.785,3.942,56.331,2.4a.858.858,0,0,1,1.2.019l4.05,4.05a.871.871,0,0,1,.264.618.824.824,0,0,1-.245.585" transform="translate(0.002 -0.001)" fill="#35a064"/>
        <path id="Trazado_877573" data-name="Trazado 877573" d="M8.026,11.875l9.449-9.449Z" transform="translate(29.816 9.011)" fill="#35a064"/>
        <path id="Trazado_877574" data-name="Trazado 877574" d="M9.615,10.39A10.08,10.08,0,0,1,16.8,7.42a9.977,9.977,0,0,1,1.495.118l3.989-3.989L20.115,5.718A12.3,12.3,0,0,0,4.947,20.881l1.82-1.815A10.057,10.057,0,0,1,9.615,10.39" transform="translate(16.661 13.183)" fill="#35a064"/>
        <path id="Trazado_877575" data-name="Trazado 877575" d="M17.164,16.6a10.067,10.067,0,0,1-7.171,2.97,10.621,10.621,0,0,1-1.9-.179L6.324,21.161a12.387,12.387,0,0,0,3.668.566,12.222,12.222,0,0,0,8.7-3.6A12.356,12.356,0,0,0,21.742,5.748L19.955,7.53A10.159,10.159,0,0,1,17.164,16.6" transform="translate(23.493 21.352)" fill="#35a064"/>
        <path id="Trazado_877576" data-name="Trazado 877576" d="M2.352,34.353l8.657,1.381c.156.429.335.868.537,1.3L8.481,41.251l5.059-5.059a16.279,16.279,0,0,1-.7-1.773,1.115,1.115,0,0,0-.863-.721L3.469,32.345a26.488,26.488,0,0,1,.009-6.964l8.5-1.353a1.135,1.135,0,0,0,.863-.731,17.652,17.652,0,0,1,.929-2.254,1.107,1.107,0,0,0-.1-1.122L8.609,12.966a26.83,26.83,0,0,1,2.3-2.631,26.275,26.275,0,0,1,2.636-2.3L20.5,13.094a1.074,1.074,0,0,0,1.122.094,17.005,17.005,0,0,1,2.249-.929,1.083,1.083,0,0,0,.721-.853L25.955,2.9a26.453,26.453,0,0,1,6.959,0l1.358,8.506a1.071,1.071,0,0,0,.731.853,12.419,12.419,0,0,1,1.617.853l4.993-4.988L38.2,11.538l-.335-.193c-.523-.311-1.07-.632-1.556-.868L34.927,1.783a1.076,1.076,0,0,0-.891-.9,28.567,28.567,0,0,0-9.2,0,1.092,1.092,0,0,0-.891.9l-1.377,8.652c-.467.17-.891.349-1.306.537L14.172,5.823a1.1,1.1,0,0,0-1.268,0A29.6,29.6,0,0,0,9.382,8.808,27.634,27.634,0,0,0,6.4,12.33a1.083,1.083,0,0,0,0,1.268l5.144,7.077c-.2.424-.372.868-.537,1.315L2.361,23.372a1.066,1.066,0,0,0-.891.886,28.3,28.3,0,0,0-.014,9.2,1.076,1.076,0,0,0,.9.891" transform="translate(4.037 1.899)" fill="#35a064"/>
        <path id="Trazado_877577" data-name="Trazado 877577" d="M45.248,8.128,36.535,6.737c-.245-.5-.6-1.061-.952-1.612-.1-.17-.217-.344-.316-.509L33.7,6.185l.057.09a11.894,11.894,0,0,1,1.009,1.778,1.107,1.107,0,0,0,.858.731l8.51,1.353a26.289,26.289,0,0,1-.009,6.964l-8.5,1.353a1.081,1.081,0,0,0-.853.721,16.774,16.774,0,0,1-.929,2.244,1.084,1.084,0,0,0,.094,1.122l5.054,6.969A28.412,28.412,0,0,1,36.7,32.145a25.648,25.648,0,0,1-2.636,2.287l-6.969-5.054a1.086,1.086,0,0,0-1.113-.094,19.162,19.162,0,0,1-2.254.938A1.075,1.075,0,0,0,23,31.07l-1.353,8.5a26.9,26.9,0,0,1-6.964,0L13.328,31.07a1.063,1.063,0,0,0-.717-.849,19.57,19.57,0,0,1-2.089-.858l-6.4,6.393L9.995,31.5c.424.193.858.372,1.306.538l1.377,8.652a1.092,1.092,0,0,0,.886.9,29.336,29.336,0,0,0,4.592.372,29.87,29.87,0,0,0,4.616-.372,1.076,1.076,0,0,0,.886-.9l1.377-8.652c.457-.17.886-.349,1.306-.538l7.091,5.139a1.091,1.091,0,0,0,1.264,0,29.1,29.1,0,0,0,3.527-2.975,28.049,28.049,0,0,0,2.98-3.531,1.1,1.1,0,0,0,0-1.264l-5.144-7.086c.189-.405.368-.844.537-1.3l8.647-1.381a1.081,1.081,0,0,0,.9-.886,28.464,28.464,0,0,0,.009-9.208,1.081,1.081,0,0,0-.9-.886" transform="translate(15.305 17.143)" fill="#35a064"/>
        <path id="Trazado_877578" data-name="Trazado 877578" d="M16.874,3.551l-7.266,7.27,7.28-7.28-.014.009" transform="translate(35.695 13.157)" fill="#35a064"/>
      </g>
    </g>
    <g id="Grupo_1100218" data-name="Grupo 1100218" transform="translate(1047.694 4805.289)">
      <g id="Grupo_1100217" data-name="Grupo 1100217" transform="translate(0 0)" clip-path="url(#clip-path-5)">
        <path id="Trazado_877579" data-name="Trazado 877579" d="M41.03,5.886H5.151a1.2,1.2,0,0,0-1.2,1.208V20.329a1.182,1.182,0,0,0,.352.856,1.22,1.22,0,0,0,.846.352H41.03c2.28,0,4.067-2.506,4.067-5.711V11.6c0-3.2-1.786-5.711-4.067-5.711M33.333,8.3c.767,0,1.655,1.44,1.655,3.3v4.229c0,1.86-.888,3.3-1.655,3.3H28.972a7.448,7.448,0,0,0,.725-3.3V11.6a7.408,7.408,0,0,0-.725-3.3ZM6.359,8.3H25.641c.762,0,1.65,1.44,1.65,3.3v4.229c0,1.86-.888,3.3-1.65,3.3H6.359ZM42.69,15.826c0,1.86-.893,3.3-1.66,3.3H36.659a7.45,7.45,0,0,0,.736-3.3V11.6a7.41,7.41,0,0,0-.736-3.3H41.03c.767,0,1.66,1.44,1.66,3.3Z" transform="translate(16.816 25.038)" fill="#8a803d"/>
        <path id="Trazado_877580" data-name="Trazado 877580" d="M24.57,5.886H1.2A1.209,1.209,0,0,0,.187,7.735a12.334,12.334,0,0,1,0,11.953A1.2,1.2,0,0,0,1.2,21.537H24.57c2.275,0,4.061-2.506,4.061-5.711V11.6c0-3.2-1.786-5.711-4.061-5.711m1.655,9.94c0,1.86-.893,3.3-1.655,3.3H3.155a14.358,14.358,0,0,0,.951-4.214H21.292a1.2,1.2,0,0,0,0-2.406H4.106A14.4,14.4,0,0,0,3.155,8.3H24.57c.762,0,1.655,1.44,1.655,3.3Z" transform="translate(0.002 25.038)" fill="#8a803d"/>
        <path id="Trazado_877581" data-name="Trazado 877581" d="M46.837,25.518a8.107,8.107,0,0,1,2.391-5.774,1.206,1.206,0,0,0-.856-2.054H42.429V1.208A1.206,1.206,0,0,0,41.231,0H8.284c-6.6,0-6.6,0-6.951.357a1.209,1.209,0,0,0-.152,1.518,15.929,15.929,0,0,1,0,16.35,1.21,1.21,0,0,0-.053,1.235,1.193,1.193,0,0,0,1.056.641H6.929A5.627,5.627,0,0,0,5.867,23.4V27.63a5.708,5.708,0,0,0,5.706,5.706h36.8a1.191,1.191,0,0,0,1.114-.741,1.207,1.207,0,0,0-.257-1.313,8.083,8.083,0,0,1-2.391-5.764M5.379,14.285H35.867a1.206,1.206,0,0,0,0-2.412H5.767a20.125,20.125,0,0,0,0-3.646h30.1a1.2,1.2,0,1,0,0-2.406H5.379a17.154,17.154,0,0,0-1.14-3.415H40.023V17.69H4.239a17.17,17.17,0,0,0,1.14-3.4M11.573,30.93a3.3,3.3,0,0,1-3.3-3.3V23.4a3.3,3.3,0,0,1,3.3-3.294H45.918A10.45,10.45,0,0,0,44.5,24.31H14.342a1.2,1.2,0,0,0,0,2.406H44.5a10.473,10.473,0,0,0,1.419,4.214Z" transform="translate(4.173 -0.001)" fill="#8a803d"/>
      </g>
    </g>
    <g id="Grupo_1100210" data-name="Grupo 1100210" transform="translate(568.629 5011.424)">
      <g id="Grupo_1100209" data-name="Grupo 1100209" transform="translate(0 0)" clip-path="url(#clip-path-6)">
        <path id="Trazado_877540" data-name="Trazado 877540" d="M35.976,1.035C16.5,1.035,1.056,18.033.406,18.76a1.566,1.566,0,0,0,0,2.1c.65.722,16.1,17.725,35.569,17.725s34.929-17,35.579-17.725a1.589,1.589,0,0,0,0-2.1c-.65-.727-16.1-17.725-35.579-17.725M3.765,19.813C6.473,17.1,14.392,9.846,24.554,6.261a17.7,17.7,0,0,0-.01,27.093C14.392,29.764,6.473,22.516,3.765,19.813m32.211,13.8a13.8,13.8,0,1,1,13.8-13.8,13.818,13.818,0,0,1-13.8,13.8M47.4,33.364a17.7,17.7,0,0,0,.01-27.093C57.565,9.861,65.478,17.109,68.2,19.813,65.483,22.521,57.57,29.774,47.4,33.364" transform="translate(0.001 4.302)" fill="#35a064"/>
        <path id="Trazado_877541" data-name="Trazado 877541" d="M1.261,17.163a1.169,1.169,0,0,0,.815-.33c.15-.144,15.3-14.475,33.583-14.475a1.179,1.179,0,1,0,0-2.358C16.412,0,1.08,14.506.44,15.125a1.186,1.186,0,0,0,.82,2.038" transform="translate(0.318 -0.003)" fill="#35a064"/>
        <path id="Trazado_877542" data-name="Trazado 877542" d="M13.842,7.74a3.8,3.8,0,1,0-3.807,3.8,3.81,3.81,0,0,0,3.807-3.8M8.6,7.74a1.439,1.439,0,1,1,1.434,1.439A1.439,1.439,0,0,1,8.6,7.74" transform="translate(25.942 16.374)" fill="#35a064"/>
        <path id="Trazado_877543" data-name="Trazado 877543" d="M15.433,2.64A10.509,10.509,0,0,0,4.94,13.138a1.179,1.179,0,1,0,2.358,0,8.138,8.138,0,1,1,8.135,8.135,1.181,1.181,0,0,0,0,2.363,10.5,10.5,0,1,0,0-21" transform="translate(20.544 10.976)" fill="#35a064"/>
      </g>
    </g>
    <g id="Grupo_1100220" data-name="Grupo 1100220" transform="translate(492.606 4797.323)">
      <g id="Grupo_1100219" data-name="Grupo 1100219" transform="translate(0 0)" clip-path="url(#clip-path-7)">
        <path id="Trazado_877582" data-name="Trazado 877582" d="M7.282,10.669A1.333,1.333,0,0,1,5.95,9.337V1.327a1.332,1.332,0,0,1,2.665,0v8.01a1.33,1.33,0,0,1-1.332,1.332" transform="translate(25.507 -0.002)" fill="#8a803d"/>
        <path id="Trazado_877583" data-name="Trazado 877583" d="M11.315,6.645H3.305a1.335,1.335,0,0,1,0-2.67h8.01a1.335,1.335,0,0,1,0,2.67" transform="translate(8.458 17.039)" fill="#8a803d"/>
        <path id="Trazado_877584" data-name="Trazado 877584" d="M17.754,6.645H9.739a1.335,1.335,0,0,1,0-2.67h8.015a1.335,1.335,0,0,1,0,2.67" transform="translate(36.061 17.039)" fill="#8a803d"/>
        <path id="Trazado_877585" data-name="Trazado 877585" d="M16.354,11.88a1.333,1.333,0,0,1-.671-.18L8.752,7.692a1.331,1.331,0,1,1,1.332-2.305l6.936,4a1.333,1.333,0,0,1-.666,2.49" transform="translate(34.643 22.319)" fill="#8a803d"/>
        <path id="Trazado_877586" data-name="Trazado 877586" d="M10.775,8.655a1.328,1.328,0,0,1-.666-.18l-6.931-4A1.33,1.33,0,1,1,4.5,2.168l6.936,4a1.332,1.332,0,0,1-.666,2.485" transform="translate(10.742 8.52)" fill="#8a803d"/>
        <path id="Trazado_877587" data-name="Trazado 877587" d="M8.513,10.135a1.378,1.378,0,0,1-.666-.174A1.338,1.338,0,0,1,7.36,8.136l4-6.936a1.333,1.333,0,0,1,2.31,1.332l-4,6.931a1.331,1.331,0,0,1-1.158.671" transform="translate(30.784 2.283)" fill="#8a803d"/>
        <path id="Trazado_877588" data-name="Trazado 877588" d="M9.415,8.655a1.332,1.332,0,0,1-.666-2.485l6.936-4a1.331,1.331,0,1,1,1.332,2.305l-6.936,4a1.328,1.328,0,0,1-.666.18" transform="translate(34.646 8.52)" fill="#8a803d"/>
        <path id="Trazado_877589" data-name="Trazado 877589" d="M3.841,11.88a1.333,1.333,0,0,1-.666-2.49l6.936-4a1.33,1.33,0,0,1,1.327,2.305L4.507,11.7a1.328,1.328,0,0,1-.666.18" transform="translate(10.745 22.319)" fill="#8a803d"/>
        <path id="Trazado_877590" data-name="Trazado 877590" d="M9.3,10.135a1.334,1.334,0,0,1-1.153-.671l-4-6.931A1.331,1.331,0,1,1,6.447,1.2l4.007,6.931a1.339,1.339,0,0,1-1.158,2" transform="translate(16.984 2.283)" fill="#8a803d"/>
        <path id="Trazado_877591" data-name="Trazado 877591" d="M13.4,20.308a8.879,8.879,0,1,1,8.882-8.877A8.886,8.886,0,0,1,13.4,20.308m0-15.094a6.217,6.217,0,1,0,6.217,6.217A6.225,6.225,0,0,0,13.4,5.214" transform="translate(19.385 10.926)" fill="#8a803d"/>
        <path id="Trazado_877592" data-name="Trazado 877592" d="M61.824,10.164a3.757,3.757,0,0,0-3.754,3.748,1.086,1.086,0,1,1-2.173,0,3.751,3.751,0,0,0-7.5,0,1.089,1.089,0,1,1-2.178,0,3.757,3.757,0,0,0-3.754-3.748l-.058.005L40.45,6.775a1.333,1.333,0,0,0-2.31,1.332l1.771,3.072a3.748,3.748,0,0,0-1.195,2.733,1.086,1.086,0,1,1-2.173,0,3.749,3.749,0,0,0-2.421-3.495V9.186a1.332,1.332,0,1,0-2.665,0v1.232a3.749,3.749,0,0,0-2.421,3.495,1.086,1.086,0,1,1-2.173,0,3.738,3.738,0,0,0-1.205-2.733l1.776-3.072a1.331,1.331,0,0,0-2.305-1.332l-1.961,3.394-.058-.005a3.753,3.753,0,0,0-3.754,3.748,1.086,1.086,0,1,1-2.173,0,3.754,3.754,0,0,0-7.507,0,1.086,1.086,0,1,1-2.173,0,3.751,3.751,0,0,0-7.5,0,1.33,1.33,0,1,0,2.659,0,1.089,1.089,0,1,1,2.178,0,3.754,3.754,0,0,0,7.507,0,1.086,1.086,0,1,1,2.173,0,3.751,3.751,0,1,0,7.5,0,1.094,1.094,0,0,1,1.089-1.089,1.292,1.292,0,0,1,.4.079l.026.011a1.113,1.113,0,0,1,.661,1,3.748,3.748,0,1,0,7.5,0,1.089,1.089,0,1,1,2.178,0,3.754,3.754,0,0,0,7.507,0,1.086,1.086,0,1,1,2.173,0,3.754,3.754,0,0,0,7.507,0,1.086,1.086,0,1,1,2.173,0,3.751,3.751,0,1,0,7.5,0,1.089,1.089,0,1,1,2.178,0,1.332,1.332,0,1,0,2.665,0,3.757,3.757,0,0,0-3.754-3.748" transform="translate(0 26.182)" fill="#8a803d"/>
        <path id="Trazado_877593" data-name="Trazado 877593" d="M51.1,16.061a3.754,3.754,0,0,1-3.754-3.754,1.086,1.086,0,1,0-2.173,0,3.754,3.754,0,0,1-7.507,0,1.086,1.086,0,1,0-2.173,0,3.754,3.754,0,1,1-7.507,0,1.089,1.089,0,1,0-2.178,0,3.748,3.748,0,1,1-7.5,0,1.089,1.089,0,1,0-2.178,0,3.751,3.751,0,1,1-7.5,0,1.086,1.086,0,1,0-2.173,0,3.758,3.758,0,0,1-3.754,3.754,1.332,1.332,0,1,1,0-2.665,1.09,1.09,0,0,0,1.084-1.089,3.754,3.754,0,1,1,7.507,0,1.086,1.086,0,1,0,2.173,0,3.754,3.754,0,1,1,7.507,0,1.086,1.086,0,1,0,2.173,0,3.754,3.754,0,1,1,7.507,0,1.086,1.086,0,1,0,2.173,0,3.751,3.751,0,1,1,7.5,0,1.089,1.089,0,1,0,2.178,0,3.751,3.751,0,1,1,7.5,0A1.091,1.091,0,0,0,51.1,13.4a1.332,1.332,0,1,1,0,2.665" transform="translate(5.886 36.668)" fill="#8a803d"/>
        <path id="Trazado_877594" data-name="Trazado 877594" d="M35.535,17.735a3.758,3.758,0,0,1-3.754-3.754,1.086,1.086,0,0,0-2.173,0,3.754,3.754,0,1,1-7.507,0,1.089,1.089,0,0,0-2.178,0,3.748,3.748,0,1,1-7.5,0,1.089,1.089,0,0,0-2.178,0,3.751,3.751,0,1,1-7.5,0,1.332,1.332,0,0,1,2.665,0,1.086,1.086,0,1,0,2.173,0,3.754,3.754,0,0,1,7.507,0,1.086,1.086,0,1,0,2.173,0,3.754,3.754,0,0,1,7.507,0,1.086,1.086,0,1,0,2.173,0,3.751,3.751,0,0,1,7.5,0,1.089,1.089,0,1,0,2.178,0,1.332,1.332,0,0,1,2.665,0,3.754,3.754,0,0,1-3.754,3.754" transform="translate(11.772 43.866)" fill="#8a803d"/>
      </g>
    </g>
    <g id="Grupo_1100222" data-name="Grupo 1100222" transform="translate(764.106 4522.768)">
      <g id="Grupo_1100221" data-name="Grupo 1100221" transform="translate(0 0)" clip-path="url(#clip-path-8)">
        <path id="Trazado_877595" data-name="Trazado 877595" d="M49.841,26.29H4.015A4.02,4.02,0,0,1,0,22.275V21.208a10.185,10.185,0,0,1,5.531-9.15c12.8-6.509,30-6.509,42.788,0a10.18,10.18,0,0,1,5.537,9.15v1.067a4.017,4.017,0,0,1-4.015,4.015M26.928,9.585a45.2,45.2,0,0,0-20.3,4.628A7.882,7.882,0,0,0,2.42,21.208v1.067a1.6,1.6,0,0,0,1.6,1.6H49.841a1.6,1.6,0,0,0,1.6-1.6V21.208a7.887,7.887,0,0,0-4.211-6.995,45.221,45.221,0,0,0-20.3-4.628" transform="translate(0 30.736)" fill="#8a803d"/>
        <path id="Trazado_877596" data-name="Trazado 877596" d="M26.31,6.525a42.33,42.33,0,0,0-9.034,0A19.668,19.668,0,0,0,6.282,11.4q1.648.2,3.27.518a17.209,17.209,0,0,1,7.988-2.98,39.069,39.069,0,0,1,8.511,0A17.613,17.613,0,0,1,41.679,26.606,1.1,1.1,0,0,1,40.591,27.7H26.617a4.036,4.036,0,0,1-3.688,2.414H40.591a3.512,3.512,0,0,0,3.5-3.508A20.038,20.038,0,0,0,26.31,6.525" transform="translate(26.907 26.912)" fill="#8a803d"/>
        <path id="Trazado_877597" data-name="Trazado 877597" d="M6.688,21.917a1.213,1.213,0,0,1-1.21-1.21V9.412a1.21,1.21,0,1,1,2.42,0v11.3a1.213,1.213,0,0,1-1.21,1.21" transform="translate(23.463 35.109)" fill="#8a803d"/>
        <path id="Trazado_877598" data-name="Trazado 877598" d="M5.466,21.917a1.21,1.21,0,0,1-1.21-1.21V9.412a1.212,1.212,0,1,1,2.425,0v11.3a1.214,1.214,0,0,1-1.215,1.21" transform="translate(18.229 35.109)" fill="#8a803d"/>
        <path id="Trazado_877599" data-name="Trazado 877599" d="M32.043,14.273l-.016-.328c-.032-.687-.085-1.358-.174-2.06V11.9l.005-.048C30.881,4.1,26.406.331,18.186.331c-5.632,0-13.2,1.389-13.831,13.377l.005.069-.005-.063v.021c-.011.18-.021.354-.026.539-1.532.544-2.478,2.594-2.256,5.082a5.837,5.837,0,0,0,1.78,3.936A2.733,2.733,0,0,0,5.2,23.92a17.047,17.047,0,0,0,6.06,8.907,11.7,11.7,0,0,0,6.921,2.335A11.735,11.735,0,0,0,25.1,32.838a17.076,17.076,0,0,0,6.06-8.918,2.729,2.729,0,0,0,1.358-.629,5.767,5.767,0,0,0,1.78-3.936c.222-2.488-.724-4.538-2.256-5.082M18.186,2.756c6.747,0,10.122,2.557,11.137,8.516a21.83,21.83,0,0,1-2.779.988A7.735,7.735,0,0,0,22.5,6.824a1.222,1.222,0,0,0-1.22.111,1.206,1.206,0,0,0-.5,1.115,7.123,7.123,0,0,1-.6,3.693l-.312-.148a11.61,11.61,0,0,0-5.246-1.358A11.779,11.779,0,0,0,9.167,11.42a14.891,14.891,0,0,1-2.256.84c1.009-8.337,6.224-9.5,11.274-9.5m13.7,16.388c-.143,1.611-.877,2.372-1.1,2.377a1.243,1.243,0,0,0-1.035-.005,1.206,1.206,0,0,0-.655.8,14.99,14.99,0,0,1-5.42,8.559,9.161,9.161,0,0,1-11-.005,15.027,15.027,0,0,1-5.4-8.553,1.242,1.242,0,0,0-.666-.8,1.249,1.249,0,0,0-1.041.005c-.2-.011-.946-.771-1.088-2.383-.143-1.585.444-2.546.676-2.578a1.243,1.243,0,0,0,1.083-.185,1.229,1.229,0,0,0,.486-.972c0-.217.005-.423.011-.623a16.365,16.365,0,0,0,3.408-1.146,9.426,9.426,0,0,1,8.7.148c.412.2.835.391,1.257.56a1.268,1.268,0,0,0,.777.042,1.234,1.234,0,0,0,.475-.259l.053-.048a6.44,6.44,0,0,0,1.706-3.693,5,5,0,0,1,1.115,3.323,1.213,1.213,0,0,0,.417.94,1.181,1.181,0,0,0,.983.28,19.007,19.007,0,0,0,3.962-1.162v.005l.016.275c.021.438.037.888.037,1.358a1.2,1.2,0,0,0,.5.967,1.211,1.211,0,0,0,1.078.174c.227.048.814,1.009.671,2.594" transform="translate(8.737 1.418)" fill="#8a803d"/>
        <path id="Trazado_877600" data-name="Trazado 877600" d="M18.745,0A15.989,15.989,0,0,0,6.995,5.051,10.654,10.654,0,0,1,8.548,6.958a13.607,13.607,0,0,1,10.2-4.538C27,2.42,33.21,9.457,33.21,18.792A22.873,22.873,0,0,1,27.266,34.3a19.029,19.029,0,0,1,2.425.972,25.345,25.345,0,0,0,5.944-16.478C35.635,8.078,28.371,0,18.745,0" transform="translate(29.961 0)" fill="#8a803d"/>
        <path id="Trazado_877601" data-name="Trazado 877601" d="M6.767,7.807a22.689,22.689,0,0,0,2.013,2.7A19.628,19.628,0,0,1,11.2,9.53,20.065,20.065,0,0,1,8.415,5.784,16.277,16.277,0,0,1,6.767,7.807" transform="translate(28.984 24.774)" fill="#8a803d"/>
        <path id="Trazado_877602" data-name="Trazado 877602" d="M28.315,7.5l-.005-.122a18.139,18.139,0,0,0-.481-3.587,1.186,1.186,0,0,0-.6-.777,1.175,1.175,0,0,0-.977-.074C21.055,4.76,20.3,4.39,18.3,3.387A26.73,26.73,0,0,0,15.83,2.277,8.189,8.189,0,0,0,8.181,3.36a19,19,0,0,1,.454,2.367l-.005.048V5.759L8.656,6c1.743-1.358,3.973-2.351,6.313-1.458a23.344,23.344,0,0,1,2.24,1.014c2.356,1.173,3.709,1.664,8.527.116.074.565.127,1.173.159,1.812.016.359.026.724.026,1.1A1.219,1.219,0,0,0,27.4,9.763a2.762,2.762,0,0,1,.37,1.86,2.622,2.622,0,0,1-.676,1.738,1.218,1.218,0,0,0-1.611.835,12.089,12.089,0,0,1-4.353,6.9,7.315,7.315,0,0,1-8.77-.005,10.855,10.855,0,0,1-3.2-3.82,2.661,2.661,0,0,1-1.215.523c-.148.47-.306.93-.481,1.379a12.957,12.957,0,0,0,3.471,3.878,9.837,9.837,0,0,0,5.811,1.955,9.884,9.884,0,0,0,5.8-1.949,14.155,14.155,0,0,0,5-7.3,2.576,2.576,0,0,0,1.094-.534,5,5,0,0,0,1.532-3.381c.19-2.06-.592-3.783-1.86-4.337" transform="translate(31.961 7.544)" fill="#8a803d"/>
        <path id="Trazado_877603" data-name="Trazado 877603" d="M7.41,2.5l-.021-.122c-.079.069-.158.148-.232.222.09-.037.164-.058.254-.1" transform="translate(30.65 10.185)" fill="#8a803d"/>
        <path id="Trazado_877604" data-name="Trazado 877604" d="M5.407.343C5.328.337,5.259.332,5.185.332H5.127c.1,0,.185.011.28.011" transform="translate(21.96 1.422)" fill="#8a803d"/>
        <path id="Trazado_877605" data-name="Trazado 877605" d="M7.977,6.676A12.524,12.524,0,0,1,6.038,7.833a10.281,10.281,0,0,0,1,2.858c1.115.132,2.219.306,3.313.507a7.857,7.857,0,0,1-2.071-4.76c-.1.079-.2.164-.3.238" transform="translate(25.862 27.575)" fill="#8a803d"/>
        <path id="Trazado_877606" data-name="Trazado 877606" d="M5.718,6.675c-.106-.074-.2-.158-.306-.238a7.849,7.849,0,0,1-2.076,4.776c1.1-.206,2.2-.38,3.323-.507a10.577,10.577,0,0,0,1-2.869A12.813,12.813,0,0,1,5.718,6.675" transform="translate(14.284 27.57)" fill="#8a803d"/>
        <path id="Trazado_877607" data-name="Trazado 877607" d="M9.824,6.014c-.116-.09-.227-.185-.338-.275a6.241,6.241,0,0,1-1.765,3.8A19.7,19.7,0,0,1,11.1,8.856,8.569,8.569,0,0,0,11.7,7.1,10.454,10.454,0,0,1,9.824,6.014" transform="translate(33.07 24.581)" fill="#8a803d"/>
        <path id="Trazado_877608" data-name="Trazado 877608" d="M11.842,6.015A10.683,10.683,0,0,1,9.961,7.1a8.5,8.5,0,0,0,.6,1.754,20.076,20.076,0,0,1,3.365.666A6.169,6.169,0,0,1,12.18,5.74l-.338.275" transform="translate(42.664 24.585)" fill="#8a803d"/>
      </g>
    </g>
    <g id="Grupo_1100224" data-name="Grupo 1100224" transform="translate(579.606 4606.293)">
      <g id="Grupo_1100223" data-name="Grupo 1100223" clip-path="url(#clip-path-9)">
        <path id="Trazado_877609" data-name="Trazado 877609" d="M25.85,51.7a25.966,25.966,0,0,0,5.87-.671,12.064,12.064,0,0,0,3.991,5.379,11.953,11.953,0,1,0,13.58-19.647A25.568,25.568,0,0,0,51.7,25.85,25.85,25.85,0,1,0,25.85,51.7m27.364-4.819a10.279,10.279,0,1,1-5.406-9.055,10.28,10.28,0,0,1,5.406,9.055M25.85,1.668A24.21,24.21,0,0,1,50.033,25.85a23.906,23.906,0,0,1-2.216,10.124A11.957,11.957,0,0,0,31.249,49.426a24.184,24.184,0,1,1-5.4-47.758" fill="#77af8f" stroke="#179989" stroke-width="1"/>
        <path id="Trazado_877610" data-name="Trazado 877610" d="M53.359,71.43c2.682,0,4.865-1.878,4.865-4.187V53.053l15.286-3.77v7.576a5.314,5.314,0,0,0-3.2-1.035c-2.683,0-4.865,1.879-4.865,4.187S67.63,64.2,70.313,64.2s4.865-1.878,4.865-4.187V41.587a.834.834,0,0,0-1.034-.81L57.191,44.959a.834.834,0,0,0-.635.81V64.092a5.313,5.313,0,0,0-3.2-1.035c-2.682,0-4.865,1.879-4.865,4.187s2.182,4.186,4.865,4.186m16.954-8.9c-1.763,0-3.2-1.13-3.2-2.519s1.434-2.519,3.2-2.519,3.2,1.13,3.2,2.519-1.434,2.519-3.2,2.519ZM58.224,46.421l15.286-3.77v4.913L58.224,51.335Zm-4.865,18.3c1.763,0,3.2,1.13,3.2,2.519s-1.434,2.518-3.2,2.518-3.2-1.13-3.2-2.519,1.434-2.519,3.2-2.519" transform="translate(-35.986 -30.242)" fill="#77af8f" stroke="#179989" stroke-width="1"/>
        <path id="Trazado_877611" data-name="Trazado 877611" d="M150.877,164.532V160.5a.834.834,0,1,0-1.668,0v4.03h-4.03a.834.834,0,0,0,0,1.668h4.03v4.03a.834.834,0,0,0,1.668,0V166.2h4.03a.834.834,0,0,0,0-1.668Z" transform="translate(-107.114 -118.484)" fill="#77af8f" stroke="#179989" stroke-width="1"/>
      </g>
    </g>
  </g>
</svg>
