<svg xmlns="http://www.w3.org/2000/svg" xmlns:xlink="http://www.w3.org/1999/xlink" width="295" height="204" viewBox="0 0 295 204">
  <defs>
    <clipPath id="clip-path">
      <rect id="Rectángulo_401363" data-name="Rectángulo 401363" width="89.174" height="146.577" fill="none"/>
    </clipPath>
    <clipPath id="clip-path-2">
      <rect id="Rectángulo_401364" data-name="Rectángulo 401364" width="116.756" height="42.581" fill="none"/>
    </clipPath>
  </defs>
  <g id="Grupo_1100230" data-name="Grupo 1100230" transform="translate(-1125 -5372)">
    <rect id="Rectángulo_401362" data-name="Rectángulo 401362" width="295" height="204" transform="translate(1125 5372)" fill="#daf2e4"/>
    <g id="Grupo_1099185" data-name="Grupo 1099185" transform="translate(995.674 3248.404)">
      <g id="Grupo_1099182" data-name="Grupo 1099182" transform="translate(206.516 2145.351)">
        <g id="Grupo_1099181" data-name="Grupo 1099181" clip-path="url(#clip-path)">
          <path id="Trazado_875459" data-name="Trazado 875459" d="M13.3,269.825s-.913,4.068.083,4.9,7.472,3.57,27.48,4.567,37.027-4.152,38.273-5.48.166-7.389.166-7.389-10.045,5.895-21.5,7.223-28.227-.25-34.7-2.076-9.382-2.657-9.382-2.657Z" transform="translate(-6.454 -133.089)" fill="#92e3a9"/>
          <path id="Trazado_875460" data-name="Trazado 875460" d="M13.3,269.825s-.913,4.068.083,4.9,7.472,3.57,27.48,4.567,37.027-4.152,38.273-5.48.166-7.389.166-7.389-10.045,5.895-21.5,7.223-28.227-.25-34.7-2.076-9.382-2.657-9.382-2.657Z" transform="translate(-6.454 -133.089)" fill="none" stroke="#263238" stroke-linecap="round" stroke-linejoin="round" stroke-width="1"/>
          <path id="Trazado_875461" data-name="Trazado 875461" d="M39.692,104.493s-16.014.311-17.258,1.4-6.53,62.034-7.929,67.942-5.131,13.371-3.731,15.392,23.943,6.219,37.158,6.219,26.742-5.286,29.385-8.24,1.244-6.841.778-8.707-2.954-14.614-2.8-15.081S79.96,147.56,79.96,147.56s11.194-25.187,9.639-27.83-17.258-11.194-17.258-11.194l-28.607-4.509Z" transform="translate(-5.228 -51.966)" fill="#92e3a9"/>
          <path id="Trazado_875462" data-name="Trazado 875462" d="M39.692,104.493s-16.014.311-17.258,1.4-6.53,62.034-7.929,67.942-5.131,13.371-3.731,15.392,23.943,6.219,37.158,6.219,26.742-5.286,29.385-8.24,1.244-6.841.778-8.707-2.954-14.614-2.8-15.081S79.96,147.56,79.96,147.56s11.194-25.187,9.639-27.83-17.258-11.194-17.258-11.194l-28.607-4.509Z" transform="translate(-5.228 -51.966)" fill="none" stroke="#263238" stroke-linecap="round" stroke-linejoin="round" stroke-width="1"/>
          <path id="Trazado_875463" data-name="Trazado 875463" d="M18.538,238.186a41.128,41.128,0,0,1,8.5-.723,32.782,32.782,0,0,1,6.641.991s-4.361-5.154-6.74-5.551-7.434,1.387-7.434,1.387Z" transform="translate(-9.261 -116.317)" fill="#263238"/>
          <path id="Trazado_875464" data-name="Trazado 875464" d="M18.538,238.186a41.128,41.128,0,0,1,8.5-.723,32.782,32.782,0,0,1,6.641.991s-4.361-5.154-6.74-5.551-7.434,1.387-7.434,1.387Z" transform="translate(-9.261 -116.317)" fill="none" stroke="#263238" stroke-linecap="round" stroke-linejoin="round" stroke-width="1"/>
          <path id="Trazado_875465" data-name="Trazado 875465" d="M95.04,92.809c0-5.493-6.208-9.947-13.865-9.947s-13.864,4.454-13.864,9.947,6.207,9.947,13.864,9.947S95.04,98.3,95.04,92.809" transform="translate(-33.625 -41.393)" fill="#263238"/>
          <path id="Trazado_875466" data-name="Trazado 875466" d="M95.04,92.809c0-5.493-6.208-9.947-13.865-9.947s-13.864,4.454-13.864,9.947,6.207,9.947,13.864,9.947S95.04,98.3,95.04,92.809Z" transform="translate(-33.625 -41.393)" fill="none" stroke="#263238" stroke-linecap="round" stroke-linejoin="round" stroke-width="1"/>
          <path id="Trazado_875467" data-name="Trazado 875467" d="M87.018,171.4a14.607,14.607,0,0,1,2.165-1.311" transform="translate(-43.469 -84.968)" fill="none" stroke="#263238" stroke-linecap="round" stroke-linejoin="round" stroke-width="1"/>
          <path id="Trazado_875468" data-name="Trazado 875468" d="M62.894,186.056a93.758,93.758,0,0,1,10.422-10.8" transform="translate(-31.418 -87.55)" fill="none" stroke="#263238" stroke-linecap="round" stroke-linejoin="round" stroke-width="1"/>
          <path id="Trazado_875469" data-name="Trazado 875469" d="M70.012,173.788s-4.556,5.838-5.7,7.973" transform="translate(-32.129 -86.815)" fill="none" stroke="#263238" stroke-linecap="round" stroke-linejoin="round" stroke-width="1"/>
          <path id="Trazado_875470" data-name="Trazado 875470" d="M78.309,139.37a11.265,11.265,0,0,0,.828.993" transform="translate(-39.119 -69.622)" fill="none" stroke="#263238" stroke-linecap="round" stroke-linejoin="round" stroke-width="1"/>
          <path id="Trazado_875471" data-name="Trazado 875471" d="M65.739,116.318A89.218,89.218,0,0,0,71.4,126.971" transform="translate(-32.84 -58.106)" fill="none" stroke="#263238" stroke-linecap="round" stroke-linejoin="round" stroke-width="1"/>
          <path id="Trazado_875472" data-name="Trazado 875472" d="M62.61,115.18s2.705,8.685,3.844,10.394" transform="translate(-31.277 -57.538)" fill="none" stroke="#263238" stroke-linecap="round" stroke-linejoin="round" stroke-width="1"/>
          <path id="Trazado_875473" data-name="Trazado 875473" d="M53.945,169.408c.137.842.279,1.56.424,2.1" transform="translate(-26.948 -84.627)" fill="none" stroke="#263238" stroke-linecap="round" stroke-linejoin="round" stroke-width="1"/>
          <path id="Trazado_875474" data-name="Trazado 875474" d="M50.571,133.7s.646,10.626,1.524,16.786" transform="translate(-25.263 -66.79)" fill="none" stroke="#263238" stroke-linecap="round" stroke-linejoin="round" stroke-width="1"/>
          <path id="Trazado_875475" data-name="Trazado 875475" d="M32.921,272.355a37.229,37.229,0,0,0,12,6.057" transform="translate(-16.446 -136.054)" fill="none" stroke="#263238" stroke-linecap="round" stroke-linejoin="round" stroke-width="1"/>
          <path id="Trazado_875476" data-name="Trazado 875476" d="M29.245,269.468s.4.347,1.113.9" transform="translate(-14.609 -134.612)" fill="none" stroke="#263238" stroke-linecap="round" stroke-linejoin="round" stroke-width="1"/>
          <path id="Trazado_875477" data-name="Trazado 875477" d="M9.079,219.844s-1.222,3.438-1.681,4.431a2.494,2.494,0,0,0,.458,2.75c.611.534,1.833,1.833,3.055,2.062s1.6-.077,1.757-.611l.153-.535a10.76,10.76,0,0,0,4.125.917,8.225,8.225,0,0,0,3.284-1.222l2.521.305,2.6-6.951s-3.819-1.223-5.271-1.681-7.562-2.063-9.243-1.681a2.411,2.411,0,0,0-1.757,2.215" transform="translate(-3.586 -108.686)" fill="#fcf9e8"/>
          <path id="Trazado_875478" data-name="Trazado 875478" d="M9.079,219.844s-1.222,3.438-1.681,4.431a2.494,2.494,0,0,0,.458,2.75c.611.534,1.833,1.833,3.055,2.062s1.6-.077,1.757-.611l.153-.535a10.76,10.76,0,0,0,4.125.917,8.225,8.225,0,0,0,3.284-1.222l2.521.305,2.6-6.951s-3.819-1.223-5.271-1.681-7.562-2.063-9.243-1.681A2.411,2.411,0,0,0,9.079,219.844Z" transform="translate(-3.586 -108.686)" fill="none" stroke="#263238" stroke-linecap="round" stroke-linejoin="round" stroke-width="1"/>
          <line id="Línea_584" data-name="Línea 584" x1="2.903" y1="0.688" transform="translate(6.334 118.567)" fill="none" stroke="#263238" stroke-linecap="round" stroke-linejoin="round" stroke-width="1"/>
          <path id="Trazado_875479" data-name="Trazado 875479" d="M39.274,223.765s-2.99,3.844-3.132,5.7,1.424,1.993,2.7,2.421,7.048-8.543,6.625-8.649-4.576-1.153-6.2.533" transform="translate(-18.05 -111.306)" fill="#263238"/>
          <path id="Trazado_875480" data-name="Trazado 875480" d="M39.274,223.765s-2.99,3.844-3.132,5.7,1.424,1.993,2.7,2.421,7.048-8.543,6.625-8.649S40.9,222.079,39.274,223.765Z" transform="translate(-18.05 -111.306)" fill="none" stroke="#263238" stroke-linecap="round" stroke-linejoin="round" stroke-width="1"/>
          <path id="Trazado_875481" data-name="Trazado 875481" d="M87.306,133.62s-10.963,20.93-12.957,26.056-2.421,6.692-2.421,6.692l-.712,4.271s-23.92-.142-25.629.427-7.831,6.407-4.841,8.828,12.529,4.556,22.639,7.262,17.513,3.559,19.221.57,16.8-31.609,19.649-41.291,9.112-16.374,5.553-21.926-17.086-5.98-18.937-5.7" transform="translate(-19.95 -59.32)" fill="#92e3a9"/>
          <path id="Trazado_875482" data-name="Trazado 875482" d="M87.306,133.62s-10.963,20.93-12.957,26.056-2.421,6.692-2.421,6.692l-.712,4.271s-23.92-.142-25.629.427-7.831,6.407-4.841,8.828,12.529,4.556,22.639,7.262,17.513,3.559,19.221.57,16.8-31.609,19.649-41.291,9.112-16.374,5.553-21.926-17.086-5.98-18.937-5.7" transform="translate(-19.95 -59.32)" fill="none" stroke="#263238" stroke-linecap="round" stroke-linejoin="round" stroke-width="1"/>
          <path id="Trazado_875483" data-name="Trazado 875483" d="M147.544,168.67c-3.4,2.773-9.239,7.245-13.405,8.954" transform="translate(-67.009 -84.258)" fill="none" stroke="#263238" stroke-linecap="round" stroke-linejoin="round" stroke-width="1"/>
          <path id="Trazado_875484" data-name="Trazado 875484" d="M165.08,163.68s-.664.571-1.751,1.463" transform="translate(-81.59 -81.766)" fill="none" stroke="#263238" stroke-linecap="round" stroke-linejoin="round" stroke-width="1"/>
          <path id="Trazado_875485" data-name="Trazado 875485" d="M138.158,183s-4.462,2.231-7.585,3.421" transform="translate(-65.227 -91.415)" fill="none" stroke="#263238" stroke-linecap="round" stroke-linejoin="round" stroke-width="1"/>
          <path id="Trazado_875486" data-name="Trazado 875486" d="M101.6,246.772a6.362,6.362,0,0,0,.984,1.214" transform="translate(-50.755 -123.274)" fill="none" stroke="#263238" stroke-linecap="round" stroke-linejoin="round" stroke-width="1"/>
          <path id="Trazado_875487" data-name="Trazado 875487" d="M94.489,226.606a45.806,45.806,0,0,0,2.582,8.269" transform="translate(-47.202 -113.2)" fill="none" stroke="#263238" stroke-linecap="round" stroke-linejoin="round" stroke-width="1"/>
          <path id="Trazado_875488" data-name="Trazado 875488" d="M87.521,230.406s.106,5.389.634,6.657" transform="translate(-43.721 -115.098)" fill="none" stroke="#263238" stroke-linecap="round" stroke-linejoin="round" stroke-width="1"/>
          <path id="Trazado_875489" data-name="Trazado 875489" d="M106.123,228l14.135,5.837,1.641-2.28Z" transform="translate(-53.013 -113.898)" fill="#263238"/>
          <path id="Trazado_875490" data-name="Trazado 875490" d="M106.123,228l14.135,5.837,1.641-2.28Z" transform="translate(-53.013 -113.898)" fill="none" stroke="#263238" stroke-linecap="round" stroke-linejoin="round" stroke-width="1"/>
          <path id="Trazado_875491" data-name="Trazado 875491" d="M100.563,201.356s8.34-1.042,9.383-2.085,4.17-3.886,5.118-4.075,5.4.853,6.444.853,2.559-1.9,3.7-1.8,1.706,1.516,1.327,2.653-2.559,2.37-3.033,2.465a10.393,10.393,0,0,0-1.232.378,52.162,52.162,0,0,1,5.213,1.232c1.232.474,1.232,1.611.758,2.748a4.58,4.58,0,0,1-1.516,2.18,13.911,13.911,0,0,0-1.8,1.99,3.476,3.476,0,0,1-.284,2.654,9.1,9.1,0,0,1-1.706,1.9c-.379.284.452.442-.375,1.431-.579.692-.654.968-3.416,1.412-.888.143-4.549-.569-7.108-1.421s-7.013-1.9-7.013-1.9l-6.066-1.421Z" transform="translate(-49.431 -97.034)" fill="#fcf9e8"/>
          <path id="Trazado_875492" data-name="Trazado 875492" d="M100.563,201.356s8.34-1.042,9.383-2.085,4.17-3.886,5.118-4.075,5.4.853,6.444.853,2.559-1.9,3.7-1.8,1.706,1.516,1.327,2.653-2.559,2.37-3.033,2.465a10.393,10.393,0,0,0-1.232.378,52.162,52.162,0,0,1,5.213,1.232c1.232.474,1.232,1.611.758,2.748a4.58,4.58,0,0,1-1.516,2.18,13.911,13.911,0,0,0-1.8,1.99,3.476,3.476,0,0,1-.284,2.654,9.1,9.1,0,0,1-1.706,1.9c-.379.284.452.442-.375,1.431-.579.692-.654.968-3.416,1.412-.888.143-4.549-.569-7.108-1.421s-7.013-1.9-7.013-1.9l-6.066-1.421Z" transform="translate(-49.431 -97.034)" fill="none" stroke="#263238" stroke-linecap="round" stroke-linejoin="round" stroke-width="1"/>
          <path id="Trazado_875493" data-name="Trazado 875493" d="M149.165,212.77s.092,2.105-.458,2.838a4.956,4.956,0,0,1-1.373,1.19,3.578,3.578,0,0,1-.183,2.105l-.458,1.007s-.747.9-.468,1.5" transform="translate(-73.015 -106.288)" fill="none" stroke="#263238" stroke-linecap="round" stroke-linejoin="round" stroke-width="1"/>
          <path id="Trazado_875494" data-name="Trazado 875494" d="M90.613,206.236l5.908.933-1.71,9.328-3.576-.777Z" transform="translate(-45.265 -103.025)" fill="#263238"/>
          <path id="Trazado_875495" data-name="Trazado 875495" d="M90.613,206.236l5.908.933-1.71,9.328-3.576-.777Z" transform="translate(-45.265 -103.025)" fill="none" stroke="#263238" stroke-linecap="round" stroke-linejoin="round" stroke-width="1"/>
          <path id="Trazado_875496" data-name="Trazado 875496" d="M24.919,105.06s-7.774-3.731-12.749-1.866-5.286,12.438-5.441,13.837-5.6,36.692-6.219,42.445,28.918,8.551,35.6,8.4,9.639-2.176,10.106-3.887,2.8-8.862,1.244-9.795-29.385-6.841-29.385-6.841l-1.555-1.866s3.421-20.523,4.042-23.788" transform="translate(-0.25 -51.289)" fill="#92e3a9"/>
          <path id="Trazado_875497" data-name="Trazado 875497" d="M24.919,105.06s-7.774-3.731-12.749-1.866-5.286,12.438-5.441,13.837-5.6,36.692-6.219,42.445,28.918,8.551,35.6,8.4,9.639-2.176,10.106-3.887,2.8-8.862,1.244-9.795-29.385-6.841-29.385-6.841l-1.555-1.866s3.421-20.523,4.042-23.788" transform="translate(-0.25 -51.289)" fill="none" stroke="#263238" stroke-linecap="round" stroke-linejoin="round" stroke-width="1"/>
          <path id="Trazado_875498" data-name="Trazado 875498" d="M15.872,193.728a7.166,7.166,0,0,0-1.062.507" transform="translate(-7.398 -96.776)" fill="none" stroke="#263238" stroke-linecap="round" stroke-linejoin="round" stroke-width="1"/>
          <path id="Trazado_875499" data-name="Trazado 875499" d="M28.05,191.856a29.785,29.785,0,0,0-7.589.378" transform="translate(-10.221 -95.796)" fill="none" stroke="#263238" stroke-linecap="round" stroke-linejoin="round" stroke-width="1"/>
          <path id="Trazado_875500" data-name="Trazado 875500" d="M12.946,185.905s5.131-.622,8.24.777" transform="translate(-6.467 -92.799)" fill="none" stroke="#263238" stroke-linecap="round" stroke-linejoin="round" stroke-width="1"/>
          <path id="Trazado_875501" data-name="Trazado 875501" d="M75.269,98.636s6.389,3.584,11.22,2.493,4.363-12.466,4.363-12.466l-3.9-2.649Z" transform="translate(-37.6 -42.968)" fill="#f6f0ca"/>
          <path id="Trazado_875502" data-name="Trazado 875502" d="M75.269,98.636s6.389,3.584,11.22,2.493,4.363-12.466,4.363-12.466l-3.9-2.649Z" transform="translate(-37.6 -42.968)" fill="none" stroke="#263238" stroke-linecap="round" stroke-linejoin="round" stroke-width="1"/>
          <path id="Trazado_875503" data-name="Trazado 875503" d="M86.858,93.62l-5.065,1.77-6.523,7.045a26,26,0,0,0,4,1.722Z" transform="translate(-37.6 -46.767)" fill="#263238"/>
          <path id="Trazado_875504" data-name="Trazado 875504" d="M86.858,93.62l-5.065,1.77-6.523,7.045a26,26,0,0,0,4,1.722Z" transform="translate(-37.6 -46.767)" fill="none" stroke="#263238" stroke-linecap="round" stroke-linejoin="round" stroke-width="1"/>
          <path id="Trazado_875505" data-name="Trazado 875505" d="M44.047,7.116S31.683,18.106,31.558,27.1s5.62,18.608,5.62,18.608S30.934,56.2,30.809,57.819s3.746,5.245,4.121,5.245a39.336,39.336,0,0,0,4.121-3.122l-2.123,4.621L43.3,67.934s2.99-11.363,4.621-14.986c0,0-6.869-12.738-7.368-17.734S40.3,25.6,41.674,23.226s7.992-5.745,8.367-5.994,8.867,6.744,10.241,12.613S66.3,46.1,66.3,46.1s-2.151,11.344-3.15,14.342-4.371,6.369-4.371,6.369a67.721,67.721,0,0,0,6.993,2.248,18.3,18.3,0,0,0,2.5.374s3-5,3.247-5.37.25,5,.25,5a29.3,29.3,0,0,0,10.74-3.372,34.3,34.3,0,0,0,8.742-6.744s3.372-1.5,5-6.494-1.874-10.116-5.994-14.986-5.62-6.369-6.994-13.612S79.389,8.989,72.645,4.368,56.66-.378,52.164,2.12s-8.117,5-8.117,5" transform="translate(-15.389 -0.25)" fill="#12263f"/>
          <path id="Trazado_875506" data-name="Trazado 875506" d="M44.047,7.116S31.683,18.106,31.558,27.1s5.62,18.608,5.62,18.608S30.934,56.2,30.809,57.819s3.746,5.245,4.121,5.245a39.336,39.336,0,0,0,4.121-3.122l-2.123,4.621L43.3,67.934s2.99-11.363,4.621-14.986c0,0-6.869-12.738-7.368-17.734S40.3,25.6,41.674,23.226s7.992-5.745,8.367-5.994,8.867,6.744,10.241,12.613S66.3,46.1,66.3,46.1s-2.151,11.344-3.15,14.342-4.371,6.369-4.371,6.369a67.721,67.721,0,0,0,6.993,2.248,18.3,18.3,0,0,0,2.5.374s3-5,3.247-5.37.25,5,.25,5a29.3,29.3,0,0,0,10.74-3.372,34.3,34.3,0,0,0,8.742-6.744s3.372-1.5,5-6.494-1.874-10.116-5.994-14.986-5.62-6.369-6.994-13.612S79.389,8.989,72.645,4.368,56.66-.378,52.164,2.12,44.047,7.116,44.047,7.116Z" transform="translate(-15.389 -0.25)" fill="none" stroke="#263238" stroke-linecap="round" stroke-linejoin="round" stroke-width="1"/>
          <path id="Trazado_875507" data-name="Trazado 875507" d="M57.729,24.671S48.224,32,46.821,33.709s-.312,5.454-.623,10.285,2.181,9.973,3.584,12.622,5.143,10.908,7.948,11.531,2.961-.156,2.961-.156,10.285-4.83,13.246-9.817c0,0-1.87-10.908-2.8-15.116a37.822,37.822,0,0,0-1.4-5.3s-5.143-6.857-7.48-9.038-4.519-4.052-4.519-4.052" transform="translate(-23.021 -12.324)" fill="#f6f0ca"/>
          <path id="Trazado_875508" data-name="Trazado 875508" d="M57.729,24.671S48.224,32,46.821,33.709s-.312,5.454-.623,10.285,2.181,9.973,3.584,12.622,5.143,10.908,7.948,11.531,2.961-.156,2.961-.156,10.285-4.83,13.246-9.817c0,0-1.87-10.908-2.8-15.116a37.822,37.822,0,0,0-1.4-5.3s-5.143-6.857-7.48-9.038S57.729,24.671,57.729,24.671Z" transform="translate(-23.021 -12.324)" fill="none" stroke="#263238" stroke-linecap="round" stroke-linejoin="round" stroke-width="1"/>
          <path id="Trazado_875509" data-name="Trazado 875509" d="M54.887,69.581s1.033-1.251,2.164-.63" transform="translate(-27.419 -34.358)" fill="none" stroke="#263238" stroke-linecap="round" stroke-linejoin="round" stroke-width="1"/>
          <path id="Trazado_875510" data-name="Trazado 875510" d="M59.8,70.339c.177.79-.083,1.521-.58,1.632s-1.043-.44-1.22-1.231.083-1.521.58-1.632,1.043.439,1.22,1.23" transform="translate(-28.945 -34.516)" fill="#263238"/>
          <path id="Trazado_875511" data-name="Trazado 875511" d="M80.287,70.135c.177.791-.083,1.521-.58,1.632s-1.042-.44-1.219-1.231.083-1.521.58-1.632,1.043.44,1.22,1.23" transform="translate(-39.181 -34.414)" fill="#263238"/>
          <path id="Trazado_875512" data-name="Trazado 875512" d="M75.011,68.987a2.936,2.936,0,0,1,2.779,0" transform="translate(-37.471 -34.289)" fill="none" stroke="#263238" stroke-linecap="round" stroke-linejoin="round" stroke-width="1"/>
          <path id="Trazado_875513" data-name="Trazado 875513" d="M69.353,23.891s3.734,10.21,12,13.09c0,0-8.339-5.2-9.662-13.871" transform="translate(-34.645 -11.545)" fill="#263238"/>
          <path id="Trazado_875514" data-name="Trazado 875514" d="M69.353,23.891s3.734,10.21,12,13.09c0,0-8.339-5.2-9.662-13.871" transform="translate(-34.645 -11.545)" fill="none" stroke="#263238" stroke-linecap="round" stroke-linejoin="round" stroke-width="1"/>
          <path id="Trazado_875515" data-name="Trazado 875515" d="M69.393,59.408s-.669.664.631,1.208,5.627,1.5,6.538.852-4.775-2.454-7.169-2.06" transform="translate(-34.579 -29.649)" fill="#263238"/>
          <path id="Trazado_875516" data-name="Trazado 875516" d="M69.393,59.408s-.669.664.631,1.208,5.627,1.5,6.538.852S71.787,59.014,69.393,59.408Z" transform="translate(-34.579 -29.649)" fill="none" stroke="#263238" stroke-linecap="round" stroke-linejoin="round" stroke-width="1"/>
          <path id="Trazado_875517" data-name="Trazado 875517" d="M53.455,59.378s-3.654,1.58-4.512,2.459,4.005-.182,4.863-1.06-.351-1.4-.351-1.4" transform="translate(-24.399 -29.662)" fill="#263238"/>
          <path id="Trazado_875518" data-name="Trazado 875518" d="M53.455,59.378s-3.654,1.58-4.512,2.459,4.005-.182,4.863-1.06S53.455,59.378,53.455,59.378Z" transform="translate(-24.399 -29.662)" fill="none" stroke="#263238" stroke-linecap="round" stroke-linejoin="round" stroke-width="1"/>
          <path id="Trazado_875519" data-name="Trazado 875519" d="M60.627,64.641a15.134,15.134,0,0,1,1.457,3.032,23.437,23.437,0,0,1,.284,2.455" transform="translate(-30.286 -32.291)" fill="none" stroke="#263238" stroke-linecap="round" stroke-linejoin="round" stroke-width="1"/>
          <path id="Trazado_875520" data-name="Trazado 875520" d="M64.634,87.117s-.189,1.322.283,1.795,1.606,1.228,3.683.189" transform="translate(-32.269 -43.519)" fill="none" stroke="#263238" stroke-linecap="round" stroke-linejoin="round" stroke-width="1"/>
          <path id="Trazado_875521" data-name="Trazado 875521" d="M68.257,98.063a2.719,2.719,0,0,0,1.983,0" transform="translate(-34.098 -48.987)" fill="none" stroke="#263238" stroke-linecap="round" stroke-linejoin="round" stroke-width="1"/>
          <path id="Trazado_875522" data-name="Trazado 875522" d="M68.314,57.377a3.337,3.337,0,0,1,0-3.305" transform="translate(-33.895 -27.011)" fill="none" stroke="#263238" stroke-linecap="round" stroke-linejoin="round" stroke-width="1"/>
        </g>
      </g>
      <g id="Grupo_1099184" data-name="Grupo 1099184" transform="translate(186 2267.302)">
        <g id="Grupo_1099183" data-name="Grupo 1099183" clip-path="url(#clip-path-2)">
          <path id="Trazado_875523" data-name="Trazado 875523" d="M1,22.488s7.286-1.534,7.861-2.876-.384-5.368,2.3-6.135,7.477.959,8.627.575,3.259-4.985,4.41-5.56a9.9,9.9,0,0,1,3.257-.244" transform="translate(-0.714 -5.884)" fill="none" stroke="#263238" stroke-linecap="round" stroke-linejoin="round" stroke-width="2"/>
          <path id="Trazado_875524" data-name="Trazado 875524" d="M93.238,2.608l-5.794,2.03,1.465-2.251L87.68,0Z" transform="translate(-62.468 0)" fill="#263238"/>
          <path id="Trazado_875525" data-name="Trazado 875525" d="M28.522,70.885s5.56-.575,6.327-2.109-.767-3.834,1.342-6.327,4.218.383,6.327-.575,3.643-3.068,4.218-3.451,1.342.192,2.109-.383a24.513,24.513,0,0,0,2.647-2.99" transform="translate(-20.376 -39.326)" fill="none" stroke="#263238" stroke-linecap="round" stroke-linejoin="round" stroke-width="2"/>
          <path id="Trazado_875526" data-name="Trazado 875526" d="M105.251,46.052l-2.792,5.468-.493-2.64L99.429,48Z" transform="translate(-71.03 -32.898)" fill="#263238"/>
          <path id="Trazado_875527" data-name="Trazado 875527" d="M336.808,50.628s-5.56-.192-7.094-1.15-2.109-3.451-3.451-4.026a46.439,46.439,0,0,0-6.135-1.342,6.231,6.231,0,0,1-2.876-1.917c-1.486-1.486-.7-1.266-1.306-1.543" transform="translate(-225.706 -29.039)" fill="none" stroke="#263238" stroke-linecap="round" stroke-linejoin="round" stroke-width="2"/>
          <path id="Trazado_875528" data-name="Trazado 875528" d="M302.4,36.075l6.135-.232-2.063,1.719.47,2.643Z" transform="translate(-216.026 -25.606)" fill="#263238"/>
          <path id="Trazado_875529" data-name="Trazado 875529" d="M352.633,18.625a45.775,45.775,0,0,1-4.6.383,42.972,42.972,0,0,1-6.327-1.15l-3.451-1.342s-3.643.384-4.793.384c-.675,0-1.944.066-2.877.121" transform="translate(-236.162 -11.799)" fill="none" stroke="#263238" stroke-linecap="round" stroke-linejoin="round" stroke-width="2"/>
          <path id="Trazado_875530" data-name="Trazado 875530" d="M316.492,12.493l5.523-2.682-1.2,2.4,1.495,2.231Z" transform="translate(-226.096 -7.008)" fill="#263238"/>
          <path id="Trazado_875531" data-name="Trazado 875531" d="M320.84,110.85s-2.684-4.026-4.218-4.985a54.284,54.284,0,0,1-4.6-3.643l-.767-4.6-1.289-1.657" transform="translate(-221.433 -68.555)" fill="none" stroke="#263238" stroke-linecap="round" stroke-linejoin="round" stroke-width="2"/>
          <path id="Trazado_875532" data-name="Trazado 875532" d="M303.067,83.642l4.863,3.747h-2.685l-1.33,2.333Z" transform="translate(-216.505 -59.752)" fill="#263238"/>
          <path id="Trazado_875533" data-name="Trazado 875533" d="M83.565,108.356s1.534-3.259,2.3-4.6.959-2.109,1.917-4.026A9.438,9.438,0,0,1,89.656,97.3" transform="translate(-59.697 -69.511)" fill="none" stroke="#263238" stroke-linecap="round" stroke-linejoin="round" stroke-width="2"/>
          <path id="Trazado_875534" data-name="Trazado 875534" d="M100.242,86.327l-1.829,5.861-.932-2.519-2.649-.439Z" transform="translate(-67.747 -61.671)" fill="#263238"/>
        </g>
      </g>
    </g>
  </g>
</svg>
