<svg xmlns="http://www.w3.org/2000/svg" xmlns:xlink="http://www.w3.org/1999/xlink" width="272.371" height="176.456" viewBox="0 0 272.371 176.456">
  <defs>
    <clipPath id="clip-path">
      <rect id="Rectángulo_401759" data-name="Rectángulo 401759" width="272.371" height="176.456" transform="translate(0 0)" fill="none"/>
    </clipPath>
  </defs>
  <g id="Grupo_1099837" data-name="Grupo 1099837" transform="translate(0 0.003)">
    <g id="Grupo_1099836" data-name="Grupo 1099836" transform="translate(0 -0.003)" clip-path="url(#clip-path)">
      <path id="Trazado_876921" data-name="Trazado 876921" d="M1440.268,136.281c-7.292,1.863-13.489,8.7-13.221,15.481s3.831,13.936,9.554,19.455a77.454,77.454,0,0,1,8.883,10.019s1.318-5.136,4.086-4.355,3.93.465,3.93.465-4.387-4.874-.5-12.055c0,0,8.811-7.389,12.557-11.972,5.292-6.475,5.686-8.68,8.667-15.264a14.634,14.634,0,0,0,3.3,5.778c2.35,2.316,10.648,7.386,14.554,4.863s5.821-5.812,4.861-5.556-5.326,1.062-6.861-4.331-5.056-17.854-18.806-19.415c-8.233-.935-32.015,4.432-31.006,16.887" transform="translate(-1246.237 -104.176)" fill="#f9ce00"/>
      <path id="Trazado_876922" data-name="Trazado 876922" d="M1381.382,543.981c-5.116-2.646-10.829-2.678-15.284,1.889s-1.787,10.262-1.059,14.836,1.349,10.066-2.612,13.227-6.25,4.554-9.128,3.716c0,0,5.233,5.58,12.325,5.111s14.226-8.319,13.028-14.695-3.076-11.852-2.595-16.013,4.008-3.926,4.008-3.926Z" transform="translate(-1181.84 -473.482)" fill="#f9ce00"/>
      <path id="Trazado_876923" data-name="Trazado 876923" d="M1354.484,1078.474c-10.894,4.8-32.948,6.276-35.7,6.186a22.227,22.227,0,0,1-4.807-.583c1.3-5.951,2.732-8,8.061-12.038a.934.934,0,0,0-1.127-1.489c-5.658,4.285-7.308,6.626-8.706,12.894a7.412,7.412,0,0,1-1.687-1.083c-3.1-2.679-3.42-7.921-3.387-11.629.068-7.617,2.173-19.025,3.566-26.575a.934.934,0,0,0-1.836-.339c-1.405,7.613-3.528,19.118-3.6,26.9-.039,4.426.384,9.909,4.034,13.06,2.574,2.222,6.05,2.635,9.423,2.751q.124,0,.3,0c3.827,0,25.379-1.568,36.218-6.347a.934.934,0,1,0-.753-1.708" transform="translate(-1139.889 -910.902)"/>
      <path id="Trazado_876924" data-name="Trazado 876924" d="M1494.664,1132.991a.935.935,0,0,0-1.177-.6c-3.34,1.088-6.22,4.335-7.9,8.907a.932.932,0,0,0,.119.868,107.611,107.611,0,0,0-25.268-4.9.913.913,0,0,0-.442.08.93.93,0,0,0-.292-.264,13.3,13.3,0,0,0-10.284-1.282,13.119,13.119,0,0,0-7.8,7.155.934.934,0,0,0,1.675.826c1.6-3.247,3.845-5.331,6.671-6.195a11.4,11.4,0,0,1,8.811,1.117,1.774,1.774,0,0,1,1.532.426c11.447.79,26.06,4.308,30.659,7.382a.934.934,0,1,0,1.037-1.552,26,26,0,0,0-5.292-2.436.931.931,0,0,0,.626-.576c1.482-4.032,3.933-6.866,6.726-7.776a.928.928,0,0,0,.522-.432c-1.479,4.222-2.612,7.56-2.714,9a.933.933,0,0,0,.865,1c.023,0,.045,0,.067,0a.934.934,0,0,0,.93-.867c.093-1.32,1.581-5.566,2.668-8.666.279-.8.541-1.543.761-2.187a.934.934,0,1,0-1.767-.6c-.2.6-.447,1.291-.705,2.028a.922.922,0,0,0-.029-.445" transform="translate(-1258.886 -987.51)"/>
      <path id="Trazado_876925" data-name="Trazado 876925" d="M1444.694,1228.12c-.321.084-.59.154-.8.2a.934.934,0,1,0,.441,1.814c.218-.053.5-.126.83-.213,2.848-.742,10.415-2.712,16.19-1.329a.933.933,0,1,0,.436-1.815c-6.229-1.494-13.844.49-17.1,1.338" transform="translate(-1260.334 -1070.88)"/>
      <path id="Trazado_876926" data-name="Trazado 876926" d="M1639.649,1248.1c-16.291,2.5-27.126-6.943-34.3-13.189-3.184-2.774-5.484-4.778-7.5-5.163a.934.934,0,1,0-.349,1.834c1.523.29,3.888,2.351,6.626,4.736,6.582,5.734,16.143,14.065,30.162,14.065a37.236,37.236,0,0,0,5.642-.438.934.934,0,1,0-.283-1.846" transform="translate(-1394.44 -1073.932)"/>
      <path id="Trazado_876927" data-name="Trazado 876927" d="M1523.439,260.4a1.007,1.007,0,0,0-.715,1.23c.934,3.528,3.183,5.442,6.366,5.442q.275,0,.559-.019a14.238,14.238,0,0,0,5.466-1.747l-.068.157c-1.068,2.456-3.568,8.207,2.518,12.824a.933.933,0,0,0,1.128-1.487c-4.917-3.731-3.05-8.026-1.934-10.593l.082-.188a.927.927,0,0,0-.688-1.287,43.35,43.35,0,0,0,10.547-9.214c6.161-7.211,10.2-15.429,11.094-22.546a1.006,1.006,0,0,0-2-.249c-1.785,14.286-17.425,31.727-26.283,32.323-2.512.166-4.1-1.116-4.844-3.93a1.008,1.008,0,0,0-1.23-.715" transform="translate(-1329.77 -202.467)"/>
      <path id="Trazado_876928" data-name="Trazado 876928" d="M1830.44,529.941a.934.934,0,0,0,.336,1.277l2.967,1.733a19.408,19.408,0,0,1-1.66,1.878.933.933,0,1,0,1.316,1.324,21.217,21.217,0,0,0,2.476-2.954.934.934,0,0,0-.3-1.338l-3.862-2.256a.933.933,0,0,0-1.277.336" transform="translate(-1598.418 -462.394)"/>
      <path id="Trazado_876929" data-name="Trazado 876929" d="M1380.079,576.157a.941.941,0,0,0,.35-.069,14.511,14.511,0,0,0,8.7-15.26,27.393,27.393,0,0,0-1.115-4.271,21.928,21.928,0,0,1-1.12-4.588,10.722,10.722,0,0,1,3.2-8.571,10.368,10.368,0,0,1,3.205-2.075.934.934,0,0,0-.715-1.725,12.221,12.221,0,0,0-3.78,2.449,12.457,12.457,0,0,0-3.769,10.1,23.686,23.686,0,0,0,1.2,4.982,25.667,25.667,0,0,1,1.048,3.979,12.768,12.768,0,0,1-7.558,13.251.934.934,0,0,0,.351,1.8" transform="translate(-1204.411 -471.171)"/>
      <path id="Trazado_876930" data-name="Trazado 876930" d="M1599.866,289.612a.933.933,0,1,0,1.242,1.394,38.314,38.314,0,0,0,10.109-14.473.934.934,0,1,0-1.736-.686,36.447,36.447,0,0,1-9.614,13.764" transform="translate(-1396.895 -240.382)"/>
      <path id="Trazado_876931" data-name="Trazado 876931" d="M1557.614,263.987a.934.934,0,0,0-1.092.743,40.41,40.41,0,0,1-6.64,15.646.934.934,0,1,0,1.525,1.077,42.288,42.288,0,0,0,6.95-16.374.933.933,0,0,0-.743-1.091" transform="translate(-1353.368 -230.526)"/>
      <path id="Trazado_876932" data-name="Trazado 876932" d="M1755.738,764.7a.934.934,0,1,0-1.865-.1c-.041.754-.637,3.316-1.213,5.792-1.2,5.141-2.03,8.889-1.869,10.292a.934.934,0,0,0,.927.828,1.026,1.026,0,0,0,.107-.006.934.934,0,0,0,.822-1.034c-.136-1.191,1-6.084,1.833-9.657a55.657,55.657,0,0,0,1.258-6.114" transform="translate(-1528.955 -666.951)"/>
      <path id="Trazado_876933" data-name="Trazado 876933" d="M1344.759,705.751a.934.934,0,0,0,.7,1.122.944.944,0,0,0,.214.025.934.934,0,0,0,.908-.72c1.482-6.3,2.781-10.933,6.015-13.066,1.306-.862,16.732-6.89,25.792-10.078a.933.933,0,0,0,.533-.479c3.285-6.9,3.791-9.668,5.674-19.982l.258-1.415a.933.933,0,1,0-1.836-.336l-.259,1.415c-1.86,10.194-2.327,12.753-5.357,19.165-8.09,2.864-24.186,9.065-25.833,10.151-3.809,2.512-5.222,7.469-6.8,14.2" transform="translate(-1174.36 -576.429)"/>
      <path id="Trazado_876934" data-name="Trazado 876934" d="M1537.75,901.687a.934.934,0,0,0-1.311.154c-4.177,5.288-12.2,8.067-21.481,7.434-4.848-.33-9.075-2.922-13.551-5.665a58.736,58.736,0,0,0-8.085-4.392.934.934,0,0,0-.713,1.726,57.339,57.339,0,0,1,7.821,4.258c4.472,2.74,9.1,5.574,14.4,5.936q1.363.093,2.691.093c8.748,0,16.242-2.991,20.382-8.232a.934.934,0,0,0-.154-1.311" transform="translate(-1302.995 -785.228)"/>
      <path id="Trazado_876935" data-name="Trazado 876935" d="M1348.719,620.815a14.428,14.428,0,0,0,3.985-.553,15.656,15.656,0,0,0,11.051-15.152,29.508,29.508,0,0,0-1.3-6.864c-.286-1.043-.581-2.12-.809-3.178-.572-2.664-.838-6.377,1.14-8.937a.934.934,0,0,0-1.478-1.142c-1.913,2.475-2.427,6.1-1.488,10.471.238,1.108.54,2.212.833,3.279a27.683,27.683,0,0,1,1.239,6.429,13.4,13.4,0,0,1-24.977,7.17.933.933,0,0,0-1.613.941,15.72,15.72,0,0,0,13.42,7.536" transform="translate(-1166.009 -510.556)"/>
      <path id="Trazado_876936" data-name="Trazado 876936" d="M1690.117,422.356c5.129-.23,12.663-14.243,13.667-17.067,1.256-3.533-1.829-25.936-3.08-32.717a.934.934,0,0,0-1.837.339c1.625,8.808,4.113,29.066,3.157,31.753-1.313,3.694-8.507,15.672-11.991,15.828-4.058.184-18.5-4.235-22.894-9.625a.934.934,0,1,0-1.447,1.179c4.882,5.993,19.424,10.318,24.13,10.317.1,0,.2,0,.3-.006" transform="translate(-1454.471 -324.7)"/>
      <path id="Trazado_876937" data-name="Trazado 876937" d="M1808.774,286.824a20.8,20.8,0,0,1-6.639-3.114c-2.28-1.628-3.57-3.382-3.632-4.939a.934.934,0,0,0-1.866.074c.2,4.945,7.712,8.818,11.692,9.793a9.923,9.923,0,0,0,2.364.281,11.1,11.1,0,0,0,9.473-5.358.934.934,0,1,0-1.62-.928,9.111,9.111,0,0,1-9.772,4.192" transform="translate(-1569.008 -242.668)"/>
      <path id="Trazado_876938" data-name="Trazado 876938" d="M1572.946,579.112a4.772,4.772,0,0,0,.871.081,4.575,4.575,0,0,0,3.217-1.36.934.934,0,0,0-1.293-1.347,2.658,2.658,0,0,1-2.456.789c-1.734-.32-3.729-2.208-4.854-4.593a2.466,2.466,0,0,1,.5-3.12,1.228,1.228,0,0,1,1.521-.146.934.934,0,1,0,1.17-1.455,3.045,3.045,0,0,0-3.847.134,4.329,4.329,0,0,0-1.038,5.384c1.408,2.986,3.843,5.2,6.2,5.633" transform="translate(-1367.803 -495.459)"/>
      <path id="Trazado_876939" data-name="Trazado 876939" d="M1522.541,125.606a.933.933,0,0,0,1.219-.506c1.01-2.443,15.922-11.453,29.117-10.212,9.864.927,16.077,7.227,18.466,18.727a.934.934,0,1,0,1.828-.38c-1.77-8.522-6.7-18.945-20.119-20.206-13.936-1.308-29.625,7.992-31.017,11.357a.934.934,0,0,0,.506,1.22" transform="translate(-1329.136 -98.599)"/>
      <path id="Trazado_876940" data-name="Trazado 876940" d="M1401.505,270.508a62.97,62.97,0,0,1,7.661,8.092.934.934,0,1,0,1.472-1.149,65.475,65.475,0,0,0-7.868-8.315c-3.655-3.369-6.07-5.594-7.148-11.076-.734-3.731.751-9.019,3.695-13.157,2.457-3.454,5.5-5.594,8.573-6.027a.934.934,0,1,0-.261-1.849c-3.584.506-7.076,2.919-9.833,6.794-3.273,4.6-4.845,10.332-4.006,14.6,1.2,6.082,3.93,8.6,7.715,12.089" transform="translate(-1217.007 -206.987)"/>
      <path id="Trazado_876941" data-name="Trazado 876941" d="M1872.789,434.374a.934.934,0,0,0-1.455-1.17,10.357,10.357,0,0,1-2.833,2.432c-.019-.052-.036-.1-.056-.156a2.005,2.005,0,0,0-3.844,1.123c.53,3.417,2.029,5.5,3.623,4.783,1.052-.475,1.157-2.13.8-3.91a12.253,12.253,0,0,0,3.769-3.1" transform="translate(-1628.335 -378.014)"/>
      <path id="Trazado_876942" data-name="Trazado 876942" d="M1738.47,474.714a.934.934,0,0,0-1.52-1.084,13.758,13.758,0,0,1-2.732,2.847c-.066-.262-.138-.522-.218-.777a2.005,2.005,0,0,0-3.9.916c.346,3.441,1.731,5.6,3.362,4.97.91-.353,1.188-1.586,1.093-3.044a15.668,15.668,0,0,0,3.913-3.828" transform="translate(-1510.891 -413.28)"/>
      <path id="Trazado_876943" data-name="Trazado 876943" d="M1729.459,439.9h.016a.934.934,0,0,0,.016-1.867c-3.881-.068-4.278.162-4.49.284a.934.934,0,0,0,.468,1.742.923.923,0,0,0,.358-.072,31.3,31.3,0,0,1,3.632-.088" transform="translate(-1506.041 -382.527)"/>
      <path id="Trazado_876944" data-name="Trazado 876944" d="M1850.94,398.221c-.546.282-3.291,1.7-3.681,1.948a.934.934,0,0,0,1,1.574c.216-.137,1.965-1.055,3.532-1.862a.934.934,0,1,0-.855-1.66" transform="translate(-1612.84 -347.676)"/>
      <path id="Trazado_876945" data-name="Trazado 876945" d="M1825.629,628.112a.934.934,0,0,0,1.23-.479,4.392,4.392,0,0,1,4.625-2.469.934.934,0,0,0,.327-1.839,6.247,6.247,0,0,0-6.661,3.557.934.934,0,0,0,.479,1.23" transform="translate(-1593.84 -544.274)"/>
      <path id="Trazado_876946" data-name="Trazado 876946" d="M1783.3,860.416c-1.676-.724-3.408-1.472-5.071-2.229a.934.934,0,1,0-.773,1.7c1.679.764,3.42,1.516,5.1,2.243,9.015,3.9,17.53,7.574,18.287,13.292,2.329,17.594-1.389,43.243-1.427,43.5a.933.933,0,0,0,.787,1.06.91.91,0,0,0,.137.01.933.933,0,0,0,.922-.8c.039-.26,3.795-26.163,1.431-44.017-.9-6.767-9.883-10.65-19.4-14.761" transform="translate(-1551.777 -749.384)"/>
      <path id="Trazado_876947" data-name="Trazado 876947" d="M1857.706,1243.484a.934.934,0,1,0-.252,1.85c5.723.78,9.413,7.9,9.98,14.2a.934.934,0,0,0,.929.85c.028,0,.056,0,.085,0a.933.933,0,0,0,.846-1.013,22.365,22.365,0,0,0-3.507-10.283c-2.166-3.237-4.96-5.173-8.08-5.6" transform="translate(-1621.415 -1085.93)"/>
      <path id="Trazado_876948" data-name="Trazado 876948" d="M1451.038,1094.711l-2.333,9.736a.934.934,0,1,0,1.816.435l2.333-9.736a.934.934,0,1,0-1.816-.435" transform="translate(-1265.136 -955.389)"/>
      <path id="Trazado_876949" data-name="Trazado 876949" d="M1972.424,653.3c3.6,1.2,4.719,2.607,4.569,3.525-.242,1.492-3.725,3.594-10.709,3.594a.934.934,0,1,0,0,1.867c7.007,0,12.052-2.074,12.552-5.162.21-1.295-.267-3.744-5.822-5.6a.934.934,0,1,0-.591,1.771" transform="translate(-1716.347 -568.942)"/>
      <path id="Trazado_876950" data-name="Trazado 876950" d="M2044.327,657.025a.934.934,0,0,0-.591,1.771c3.23,1.077,4.981,2.909,4.686,4.9-.406,2.739-4.527,5.615-11.62,5.812a.934.934,0,0,0,.025,1.867h.026c7.283-.2,12.8-3.247,13.415-7.4.439-2.963-1.783-5.56-5.943-6.946" transform="translate(-1777.953 -573.74)"/>
      <path id="Trazado_876951" data-name="Trazado 876951" d="M588.74,126.13c9.626,9.416,11.551,27.679,11.551,27.679l4.053-.66s10.327-26,3.885-29.722c-8.384-4.84-10.791-2.569-13.784-1.881-1.773.408-5.706,4.584-5.706,4.584" transform="translate(-514.148 -105.155)" fill="#00a29a"/>
      <path id="Trazado_876952" data-name="Trazado 876952" d="M272.942,27.973c-9.785,6.846-43.119,16.862-48.612,11.453s-1.909-14.878,10.495-23.169,35.495-9.63,38.824-4.712,5.315,12.215-.706,16.428" transform="translate(-193.725 -7.585)" fill="#00a29a"/>
      <path id="Trazado_876953" data-name="Trazado 876953" d="M101.955,870.195c-2.235-.155-4.547-.405-7.067-.764a11.252,11.252,0,0,1-7.55-4.559c-2.12-3.125-2.516-7.517-1.179-13.054,1.167-4.832,2.023-10.621,2.93-16.751C91.06,821.728,93.3,806.61,99.287,802a.852.852,0,0,0-1.04-1.351c-6.536,5.032-8.727,19.845-10.845,34.17-.9,6.09-1.752,11.843-2.9,16.6-1.455,6.024-.975,10.873,1.425,14.411a12.993,12.993,0,0,0,8.721,5.289c2.561.366,4.913.62,7.19.778l.06,0a.853.853,0,0,0,.058-1.7" transform="translate(-73.077 -699.053)"/>
      <path id="Trazado_876954" data-name="Trazado 876954" d="M468.073,1133.3c-6.326.244-19.7-1.579-25.973-3.49,2.227-1.6,4.638-3.378,7.109-5.26,7.625-5.809,13.243-10.611,15.029-12.847a.852.852,0,1,0-1.332-1.064c-3.713,4.647-24.915,20.663-31.5,24.177a.853.853,0,0,0,.8,1.5,93.226,93.226,0,0,0,8.256-5.352.846.846,0,0,0,.339.219c5.684,1.923,18.933,3.838,26.082,3.838.44,0,.858-.007,1.249-.022a.852.852,0,0,0-.065-1.7" transform="translate(-376.358 -969.645)"/>
      <path id="Trazado_876955" data-name="Trazado 876955" d="M750.322,801.172a158.813,158.813,0,0,0-4.147-28.243c-.282-1.171-.536-2.567-.8-4.046-1.273-6.992-3.016-16.567-10.708-19.2a.853.853,0,1,0-.552,1.613c6.746,2.308,8.385,11.315,9.583,17.892.274,1.5.532,2.921.825,4.139a157.112,157.112,0,0,1,4.1,27.938c.527,9.486-1.712,12.813-3.722,14.653-2.72,2.488-6.754,3.133-10.708,3.458-3.093.255-7.364.347-12.348.269h-.014a.844.844,0,0,0-.5.163,8.711,8.711,0,0,0,.547-1.234c2.3-6.518-1.581-18.8-6.276-23.6,2.506.064,4.6.318,5.958.482.307.037.58.07.816.1a.852.852,0,0,0,.187-1.695c-.231-.026-.5-.058-.8-.094-3.463-.417-11.573-1.4-19.344,1.409a.852.852,0,1,0,.579,1.6,33.782,33.782,0,0,1,11.343-1.816.851.851,0,0,0,.014,1.178c4.289,4.357,8,15.969,5.914,21.873a4.912,4.912,0,0,1-4.33,3.6.853.853,0,0,0,.1,1.7.816.816,0,0,0,.1-.006,6.457,6.457,0,0,0,4.852-2.908.843.843,0,0,0-.011.094.852.852,0,0,0,.839.866q1.735.028,3.352.027c3.612,0,6.737-.1,9.163-.3,4.256-.351,8.621-1.066,11.719-3.9,2.288-2.093,4.841-5.8,4.274-16.005" transform="translate(-612.934 -654.661)"/>
      <path id="Trazado_876956" data-name="Trazado 876956" d="M266.922,1035.437h.045a.853.853,0,0,0,.851-.809c.112-2.165.123-9.454-.832-13.787a.852.852,0,1,0-1.665.367c.917,4.162.9,11.229.795,13.332a.852.852,0,0,0,.807.9" transform="translate(-231.687 -890.921)"/>
      <path id="Trazado_876957" data-name="Trazado 876957" d="M878.286,890.345a.853.853,0,0,0,.812-.595,51.3,51.3,0,0,0,1.438-5.659,31.816,31.816,0,0,1,2.117-6.986.852.852,0,0,0-1.57-.666,33.668,33.668,0,0,0-2.217,7.306,49.17,49.17,0,0,1-1.393,5.489.852.852,0,0,0,.813,1.11" transform="translate(-766.265 -764.943)"/>
      <path id="Trazado_876958" data-name="Trazado 876958" d="M880.99,1039.754c-.364.382-.687.722-.951.995a.852.852,0,1,0,1.226,1.185c.267-.276.593-.619.96-1,1.732-1.82,4.954-5.206,6.123-5.828a.852.852,0,1,0-.8-1.5c-1.3.694-3.846,3.309-6.557,6.158" transform="translate(-768.332 -902.555)"/>
      <path id="Trazado_876959" data-name="Trazado 876959" d="M402.789,1027.241a.849.849,0,0,0,.543-.2c5.333-4.419,21.684-10.375,36.194-10.06a1.469,1.469,0,0,1,1.917-.708c4.694-3.372,8.91-4.755,12.533-4.111,2.9.516,5.448,2.373,7.581,5.521a.852.852,0,1,0,1.411-.956c-2.4-3.543-5.326-5.644-8.694-6.243-4.092-.727-8.744.754-13.826,4.4a.488.488,0,0,1-.884.389c-13.773-.309-31.06,5.264-37.319,10.451a.852.852,0,0,0,.544,1.509" transform="translate(-351.012 -882.305)"/>
      <path id="Trazado_876960" data-name="Trazado 876960" d="M253.278,1193.607a12.888,12.888,0,0,1-4.357.171.849.849,0,0,0-.345-.046c-3.937-.594-7.366-2.805-8.315-5.175-1.343-3.356-2.954-11.453-1.45-14.084a.852.852,0,1,0-1.48-.845c-2.017,3.53.147,12.563,1.347,15.563,1.032,2.579,3.935,4.658,7.35,5.687a28.419,28.419,0,0,1-4.514,1.553c-1.937.463-3.73-.223-6.189-2.367-1.613-1.407-6.086-12.129-1.366-21.646a.852.852,0,1,0-1.527-.757c-4.946,9.973-.577,21.639,1.772,23.688,1.7,1.484,3.728,2.923,6.185,2.923a6.528,6.528,0,0,0,1.521-.183,33.262,33.262,0,0,0,6.887-2.627,15.764,15.764,0,0,0,1.908.118,13.733,13.733,0,0,0,2.935-.307.852.852,0,1,0-.365-1.665" transform="translate(-201.01 -1022.798)"/>
      <path id="Trazado_876961" data-name="Trazado 876961" d="M327.425,1114.123a.853.853,0,0,0-.1-1.7c-6.515.382-8.039,11.9-7.858,16.054a.853.853,0,0,0,.851.815h.038a.852.852,0,0,0,.814-.888c-.179-4.083,1.367-13.991,6.254-14.277" transform="translate(-278.98 -971.48)"/>
      <path id="Trazado_876962" data-name="Trazado 876962" d="M717.028,1125.368a.852.852,0,0,0-.531,1.082c1.884,5.517,3.558,16.032,2.946,22.3a.852.852,0,0,0,.766.931c.028,0,.056,0,.084,0a.852.852,0,0,0,.847-.769c.633-6.483-1.089-17.333-3.03-23.015a.852.852,0,0,0-1.082-.531" transform="translate(-625.679 -982.747)"/>
      <path id="Trazado_876963" data-name="Trazado 876963" d="M760.239,1114.583a.852.852,0,0,0-.271,1.174c3.434,5.493,4.659,20.148,1.987,23.759a.852.852,0,0,0,1.37,1.014c3.308-4.47,1.641-19.993-1.912-25.676a.852.852,0,0,0-1.175-.271" transform="translate(-663.569 -973.255)"/>
      <path id="Trazado_876964" data-name="Trazado 876964" d="M378.014,1145.669c-.632-.142-4.231-2.978-5.591-8.692-1.391-5.842.527-13.662,1.278-14.439a.852.852,0,0,0-1.037-1.353c-1.251.938-1.954,5.416-2.082,6.3a28.163,28.163,0,0,0,.182,9.883c1.412,5.932,5.256,9.643,6.921,9.969a.839.839,0,0,0,.987-.663.862.862,0,0,0-.658-1.01" transform="translate(-323.321 -978.986)"/>
      <path id="Trazado_876965" data-name="Trazado 876965" d="M265.884,1042.983a.853.853,0,0,0,.311-.059c.684-.268,2.061-.814,3.439-1.36s2.75-1.09,3.433-1.357a.851.851,0,0,0,.493-1.067.841.841,0,0,0,.045-.2c.436-4.813-2.1-10.422-4.8-13.847a.853.853,0,0,0-1.338,1.057c2.5,3.159,4.837,8.291,4.444,12.636,0,.015,0,.029,0,.044-.746.294-1.821.72-2.9,1.148-1.375.545-2.75,1.09-3.433,1.357a.853.853,0,0,0,.311,1.646" transform="translate(-231.452 -894.936)"/>
      <path id="Trazado_876966" data-name="Trazado 876966" d="M660.855,118.1a.86.86,0,0,0,1.163.358c1.345-.712,4.9-.215,6.036.642,2.916,2.2,5.17,4.618,3.22,11.959a142.908,142.908,0,0,1-4.607,14.778.861.861,0,0,0,1.609.613,144.5,144.5,0,0,0,4.662-14.949c2.221-8.358-.683-11.388-3.847-13.776-1.616-1.219-5.886-1.844-7.878-.789a.861.861,0,0,0-.358,1.164" transform="translate(-577.039 -101.648)"/>
      <path id="Trazado_876967" data-name="Trazado 876967" d="M237.422,19.715a.86.86,0,0,0,1.18-.3A35.215,35.215,0,0,1,253.885,5.941a47.769,47.769,0,0,1,20.174-4.223h.033a24.151,24.151,0,0,1,8.126,1.14,10.588,10.588,0,0,1,5.974,4.886,6.768,6.768,0,0,1-.447,7.131.861.861,0,0,0,1.342,1.079,8.419,8.419,0,0,0,.637-9A12.292,12.292,0,0,0,282.8,1.24,25.74,25.74,0,0,0,274.092,0h-.034a49.5,49.5,0,0,0-20.906,4.386,36.954,36.954,0,0,0-16.029,14.152.861.861,0,0,0,.3,1.18" transform="translate(-206.975 0.003)"/>
      <path id="Trazado_876968" data-name="Trazado 876968" d="M328.977,61.457a147.984,147.984,0,0,0-29.4,9.32.861.861,0,0,0-.335.085l-1.688.816a.861.861,0,0,0,.731,1.559,146.279,146.279,0,0,1,31.036-10.093.861.861,0,1,0-.346-1.686" transform="translate(-259.432 -53.655)"/>
      <path id="Trazado_876969" data-name="Trazado 876969" d="M350.007,101.984l-30.868,9.482a.861.861,0,1,0,.505,1.646l30.868-9.482a.861.861,0,0,0-.505-1.646" transform="translate(-278.174 -89.029)"/>
      <path id="Trazado_876970" data-name="Trazado 876970" d="M350.987,147.962l-31.251,8.374a.861.861,0,1,0,.445,1.663l31.251-8.374a.861.861,0,1,0-.445-1.663" transform="translate(-278.669 -129.19)"/>
      <path id="Trazado_876971" data-name="Trazado 876971" d="M337.34,265.293l.46.124a9.436,9.436,0,0,0,1.425.787,10.536,10.536,0,0,0,5.5,1.074l.14.038a.859.859,0,0,0,.743-.145q.224-.037.447-.085.372.056.745.108a.861.861,0,0,0,.389-1.67l-.219-.072a.86.86,0,0,0-.38-.516,9.986,9.986,0,0,0-4.172-1.43,10.887,10.887,0,0,0-2.084-.2q-.317-.07-.636-.133a.861.861,0,0,0-.764.225l-.072.01a.857.857,0,0,0-.407.065c-.234.042-.468.092-.7.15a.861.861,0,0,0-.415,1.671" transform="translate(-294.043 -229.814)"/>
      <path id="Trazado_876972" data-name="Trazado 876972" d="M496.03,243.584a.862.862,0,0,0-.538-.5,1.886,1.886,0,0,0-1.581-.622,8.644,8.644,0,0,0-5.967,2.517,9.035,9.035,0,0,0-.941.918.883.883,0,0,0-.1.131l-.009.006a.979.979,0,0,0,.562,1.664q.177.017.355.026l.076.039a.861.861,0,0,0,.846-.04l.116-.007a.861.861,0,0,0,.958.611,8.984,8.984,0,0,0,4.879-2.461,10.384,10.384,0,0,0,1-.741,2.784,2.784,0,0,0,.345-1.537" transform="translate(-424.886 -211.74)"/>
      <path id="Trazado_876973" data-name="Trazado 876973" d="M410.238,392.617a.861.861,0,0,0-1.3-1.133l-6.457,7.384c-1.209,1.383-1.539,2.6-.981,3.63a3.241,3.241,0,0,0,2.418,1.385,30.912,30.912,0,0,0,5.315.461q.6,0,1.193-.023a.861.861,0,1,0-.067-1.72,29.111,29.111,0,0,1-6.145-.413c-.438-.077-1.04-.213-1.2-.512-.173-.317.1-.912.765-1.674Z" transform="translate(-350.405 -341.627)"/>
      <path id="Trazado_876974" data-name="Trazado 876974" d="M604.877,194.947a.861.861,0,1,0-1.428.961,49.769,49.769,0,0,1,8.236,23.051.86.86,0,0,0,.682.761,12.986,12.986,0,0,0-2.6,3.963.861.861,0,1,0,1.549.752,10.145,10.145,0,0,1,2.573-3.754c.979-.744,2.589-1.03,3.482-.191a2.653,2.653,0,0,1,.633,2.347,7.539,7.539,0,0,1-1.216,2.743,27.142,27.142,0,0,1-2.917,3.792c-.61.662-1.186.987-1.5.845a.861.861,0,0,0-.7,1.571,2.107,2.107,0,0,0,.863.182,3.633,3.633,0,0,0,2.608-1.432,28.839,28.839,0,0,0,3.1-4.034,9.191,9.191,0,0,0,1.463-3.392,4.321,4.321,0,0,0-1.154-3.878,4.37,4.37,0,0,0-5.151-.286.854.854,0,0,0,0-.152,51.5,51.5,0,0,0-8.522-23.85" transform="translate(-526.866 -169.915)"/>
      <path id="Trazado_876975" data-name="Trazado 876975" d="M686.859,515.5a56.667,56.667,0,0,0-2.031-10.957.861.861,0,1,0-1.648.5,55.3,55.3,0,0,1,1.969,10.656,100.242,100.242,0,0,0,1.738,11.011.861.861,0,0,0,1.682-.369,98.744,98.744,0,0,1-1.709-10.837" transform="translate(-596.59 -440.082)"/>
      <path id="Trazado_876976" data-name="Trazado 876976" d="M531.716,696.518a.861.861,0,0,0-1.073-.574c-4.986,1.509-12.776,4.858-19.036,7.549-1.805.776-3.51,1.509-4.921,2.1a.861.861,0,1,0,.664,1.588c1.419-.593,3.127-1.328,4.937-2.105,6.22-2.673,13.962-6,18.855-7.483a.861.861,0,0,0,.574-1.073" transform="translate(-442.028 -607.737)"/>
      <path id="Trazado_876977" data-name="Trazado 876977" d="M720.29,640.857a.861.861,0,0,0,.313,1.176c2.693,1.561,8.048,4.053,13.227,6.462,5.145,2.394,10.465,4.87,13.091,6.392a.861.861,0,1,0,.863-1.489c-2.693-1.561-8.049-4.053-13.228-6.463-5.144-2.394-10.464-4.869-13.09-6.391a.86.86,0,0,0-1.176.313" transform="translate(-628.93 -559.287)"/>
      <path id="Trazado_876978" data-name="Trazado 876978" d="M499.663,801.627a2.337,2.337,0,0,0-2.569-.72,2.5,2.5,0,0,0-1.228,1.759l-1.4,5.117a.861.861,0,0,0,1.661.453l1.4-5.117c.15-.549.246-.63.274-.642,0,0,.217-.014.711.43a20.251,20.251,0,0,1,4.637,6.173.861.861,0,0,0,1.55-.75,21.983,21.983,0,0,0-5.035-6.7" transform="translate(-431.794 -699.298)"/>
      <path id="Trazado_876979" data-name="Trazado 876979" d="M585.4,730.394a.858.858,0,0,0,.63-.274q.864-.927,1.766-1.9c5.345-5.773,11.4-12.316,17.644-16.135a.861.861,0,0,0-.9-1.468c-6.444,3.943-12.588,10.579-18.008,16.434q-.9.971-1.762,1.9a.861.861,0,0,0,.629,1.448" transform="translate(-510.479 -620.469)"/>
      <path id="Trazado_876980" data-name="Trazado 876980" d="M389.215,802.48a.86.86,0,0,0,1.06-.6l1.857-6.663a23.569,23.569,0,0,1,3.306,5.905.861.861,0,1,0,1.607-.617,25.3,25.3,0,0,0-4.653-7.68.861.861,0,0,0-1.475.338l-2.3,8.255a.861.861,0,0,0,.6,1.06" transform="translate(-339.352 -692.123)"/>
      <path id="Trazado_876981" data-name="Trazado 876981" d="M355.018,717.695a.861.861,0,0,0-1.367.517q-.074.374-.13.744c-.008.045-.015.092-.02.139-.573,4.042.453,7.706,1.535,11.57.281,1,.571,2.039.83,3.078a.861.861,0,0,0,.835.653.879.879,0,0,0,.209-.025.861.861,0,0,0,.627-1.043c-.265-1.064-.559-2.112-.843-3.127-1-3.568-1.948-6.957-1.531-10.531a.862.862,0,0,0,.068-.475c.009-.032.02-.066.03-.1a1.19,1.19,0,0,0-.243-1.4" transform="translate(-308.57 -626.611)"/>
      <path id="Trazado_876982" data-name="Trazado 876982" d="M209.559,736.777a.861.861,0,0,0,1.182.291,92.979,92.979,0,0,1,9.031-4.6c1.992-.924,4.051-1.88,6.032-2.912a.861.861,0,0,0-.8-1.527c-1.945,1.014-3.986,1.962-5.96,2.878a94.237,94.237,0,0,0-9.2,4.685.861.861,0,0,0-.291,1.182" transform="translate(-182.9 -635.707)"/>
      <path id="Trazado_876983" data-name="Trazado 876983" d="M321.159,312.493c-.506,4.717-.458,8.02,1.342,9.91,1.226,1.287,3.152,1.862,6.43,1.862.653,0,1.359-.023,2.124-.068a6.525,6.525,0,0,0,5.349-2.691c2.445-3.6.578-9.39.5-9.635a.859.859,0,0,0-.514-.536c-4.336-1.636-11-1.04-14.695.45a.861.861,0,0,0-.533.707m1.657.709c3.359-1.192,8.9-1.6,12.564-.4.345,1.272,1.249,5.312-.4,7.736a4.842,4.842,0,0,1-4.023,1.937c-3.989.23-6.143-.146-7.208-1.264-1.117-1.173-1.386-3.439-.931-8.013" transform="translate(-280.228 -271.035)"/>
      <path id="Trazado_876984" data-name="Trazado 876984" d="M491.368,308.278c-4.335-1.635-11-1.04-14.695.45a.861.861,0,0,0-.534.707c-.506,4.717-.458,8.02,1.342,9.91,1.226,1.287,3.153,1.862,6.43,1.862.653,0,1.359-.023,2.124-.068a6.524,6.524,0,0,0,5.349-2.69c2.445-3.6.578-9.39.5-9.635a.86.86,0,0,0-.514-.536m-1.409,9.206a4.843,4.843,0,0,1-4.024,1.937c-3.988.23-6.143-.146-7.208-1.264-1.117-1.173-1.386-3.439-.931-8.014,3.36-1.191,8.9-1.6,12.565-.4.345,1.273,1.249,5.312-.4,7.736" transform="translate(-415.573 -268.365)"/>
      <path id="Trazado_876985" data-name="Trazado 876985" d="M621.457,363.806a.861.861,0,0,0,.132-1.711l-4.814-.753a.861.861,0,1,0-.266,1.7l4.815.752a.855.855,0,0,0,.134.01" transform="translate(-537.763 -315.551)"/>
      <path id="Trazado_876986" data-name="Trazado 876986" d="M258.654,288.335c-.366-5.914-.763-10.949-1.152-12.754a.861.861,0,0,0-1.683.363c.738,3.427,1.565,20.115,2.059,30.086.181,3.666.325,6.563.414,7.838.436,6.235,2.292,10.862,5.515,13.752,2.917,2.616,6.759,3.624,10.191,4.017a.861.861,0,0,0-.9,1.111,9.777,9.777,0,0,0,7.148,6.608.888.888,0,0,0,.17.017.861.861,0,0,0,.169-1.7,8.01,8.01,0,0,1-5.842-5.428.862.862,0,0,0-.731-.6c1.331.152,2.6.215,3.731.239q.724.016,1.448.016a67.452,67.452,0,0,0,14.716-1.625c2.895-.648,6.153-1.629,8.374-4,2.1-2.244,2.927-5.4,3.587-7.927l2.288-8.768a.861.861,0,1,0-1.666-.435l-2.288,8.768c-.643,2.465-1.372,5.259-3.177,7.184-1.9,2.027-4.855,2.9-7.494,3.495a65.7,65.7,0,0,1-15.751,1.569c-3.767-.081-9.194-.566-12.82-3.818-2.879-2.582-4.543-6.818-4.947-12.591-.088-1.258-.231-4.146-.412-7.8-.241-4.865-.538-10.863-.863-16.288a.855.855,0,0,0,.722.138l3.46-.9a.861.861,0,1,0-.432-1.666l-3.46.9a.852.852,0,0,0-.37.208" transform="translate(-223.39 -240.071)"/>
      <path id="Trazado_876987" data-name="Trazado 876987" d="M355,336.416c-.3,2.614.408,4.828,2.112,3.73a2.616,2.616,0,0,0,.982-2.521,7.712,7.712,0,0,0-.163-1.131,3.6,3.6,0,0,0-.335-.929,5.213,5.213,0,0,1,1.638.011.94.94,0,0,0,.88.468l.7-.049a.939.939,0,0,0,.315-1.8,6.961,6.961,0,0,0-6.512.5.939.939,0,0,0-.282,1.3.93.93,0,0,0,.661.416" transform="translate(-309.312 -291.35)"/>
      <path id="Trazado_876988" data-name="Trazado 876988" d="M516.147,330.573a6.96,6.96,0,0,0-6.524-.319.937.937,0,0,0,.575,1.768c-.292,2.607.413,4.81,2.114,3.714a2.615,2.615,0,0,0,.982-2.521,7.7,7.7,0,0,0-.163-1.131,4.333,4.333,0,0,0-.179-.588,5.194,5.194,0,0,1,1.139.2.939.939,0,0,0,.813.575l.7.04h.053a.939.939,0,0,0,.485-1.743" transform="translate(-444.589 -287.833)"/>
      <path id="Trazado_876989" data-name="Trazado 876989" d="M366.339,562.525a.858.858,0,0,0,.411-.105,26.546,26.546,0,0,1,11.356-2.908,81.849,81.849,0,0,1,12.052.556.861.861,0,1,0,.164-1.714,83.09,83.09,0,0,0-12.308-.561,28.238,28.238,0,0,0-12.088,3.116.861.861,0,0,0,.413,1.617" transform="translate(-319.172 -487.066)"/>
      <path id="Trazado_876990" data-name="Trazado 876990" d="M84.687,571.743c-.215,1.923,1.088,3.66,3.576,4.764,5.674,2.517,14.459,3.06,14.83,3.082l.056,0a.934.934,0,0,0,.054-1.866c-.087-.005-8.815-.543-14.183-2.925-1.693-.751-2.6-1.79-2.478-2.849.19-1.7,2.917-3.921,8.579-5.038a.933.933,0,1,0-.361-1.832c-5.972,1.178-9.738,3.669-10.073,6.662" transform="translate(-73.938 -493.47)"/>
      <path id="Trazado_876991" data-name="Trazado 876991" d="M20.688,583.15a.934.934,0,0,0,.084-1.864c-.108-.01-10.87-1.043-17.112-5.52a3.55,3.55,0,0,1-1.714-3.741c.525-2.419,3.8-5.4,9.939-6.613a.934.934,0,1,0-.361-1.832C5.395,564.79.919,567.95.121,571.63a5.422,5.422,0,0,0,2.451,5.654c6.658,4.776,17.569,5.82,18.03,5.862.029,0,.058,0,.086,0" transform="translate(0 -492.161)"/>
    </g>
  </g>
</svg>
