<svg xmlns="http://www.w3.org/2000/svg" xmlns:xlink="http://www.w3.org/1999/xlink" width="262.109" height="966.708" viewBox="0 0 262.109 966.708">
  <defs>
    <clipPath id="clip-path">
      <rect id="Rectángulo_402003" data-name="Rectángulo 402003" width="52.495" height="57.903" fill="#fff"/>
    </clipPath>
    <clipPath id="clip-path-2">
      <rect id="Rectángulo_402004" data-name="Rectángulo 402004" width="73.4" height="52.836" fill="#fff"/>
    </clipPath>
    <clipPath id="clip-path-3">
      <rect id="Rectángulo_402005" data-name="Rectángulo 402005" width="67.143" height="63.148" fill="#fff"/>
    </clipPath>
    <clipPath id="clip-path-4">
      <rect id="Rectángulo_402006" data-name="Rectángulo 402006" width="63.907" height="66.95" fill="#082952"/>
    </clipPath>
    <clipPath id="clip-path-5">
      <rect id="Rectángulo_402007" data-name="Rectángulo 402007" width="59.517" height="65.686" fill="#082952"/>
    </clipPath>
  </defs>
  <g id="Grupo_1100304" data-name="Grupo 1100304" transform="translate(3429.867 8357.989)">
    <path id="Trazado_877734" data-name="Trazado 877734" d="M3.328-4.547V0H1.047V-11.375H4.984a4.716,4.716,0,0,1,3.043.887,3,3,0,0,1,1.1,2.473A2.494,2.494,0,0,1,8.66-6.5,3.238,3.238,0,0,1,7.3-5.477a2.448,2.448,0,0,1,1.449.992A3.146,3.146,0,0,1,9.2-2.766v.836a4.135,4.135,0,0,0,.129,1,1.37,1.37,0,0,0,.441.77V0H7.414a1.263,1.263,0,0,1-.4-.828,7.275,7.275,0,0,1-.09-1.117v-.8a1.808,1.808,0,0,0-.465-1.324,1.763,1.763,0,0,0-1.316-.473Zm0-1.758H4.945a2.139,2.139,0,0,0,1.43-.406,1.506,1.506,0,0,0,.469-1.2,1.655,1.655,0,0,0-.473-1.242,1.909,1.909,0,0,0-1.387-.461H3.328ZM14.734.164A3.8,3.8,0,0,1,11.781-1a4.252,4.252,0,0,1-1.062-2.988V-4.3A4.628,4.628,0,0,1,11.75-7.406a3.506,3.506,0,0,1,2.836-1.2A3.282,3.282,0,0,1,17.2-7.566a4.122,4.122,0,0,1,.91,2.809v1.18H13.07l-.023.047a2.284,2.284,0,0,0,.527,1.406,1.766,1.766,0,0,0,1.4.539,4.692,4.692,0,0,0,1.3-.156,5.307,5.307,0,0,0,1.105-.477L18-.812a4.234,4.234,0,0,1-1.375.7A6.1,6.1,0,0,1,14.734.164Zm-.148-7.016a1.267,1.267,0,0,0-1.059.473,2.371,2.371,0,0,0-.449,1.254l.016.039h2.781v-.172a1.974,1.974,0,0,0-.3-1.168A1.127,1.127,0,0,0,14.586-6.852Zm8.383,5.266a1.27,1.27,0,0,0,.945-.355,1.291,1.291,0,0,0,.352-.949h2.078l.016.047A2.645,2.645,0,0,1,25.406-.7a3.564,3.564,0,0,1-2.437.863,3.6,3.6,0,0,1-2.9-1.2A4.558,4.558,0,0,1,19.047-4.1v-.234A4.588,4.588,0,0,1,20.066-7.4a3.57,3.57,0,0,1,2.887-1.207,3.486,3.486,0,0,1,2.492.891,2.976,2.976,0,0,1,.914,2.344l-.016.047H24.266a1.687,1.687,0,0,0-.348-1.09,1.168,1.168,0,0,0-.965-.434,1.3,1.3,0,0,0-1.254.707,3.878,3.878,0,0,0-.371,1.809V-4.1a3.863,3.863,0,0,0,.371,1.82A1.32,1.32,0,0,0,22.969-1.586ZM27.336-4.3a4.536,4.536,0,0,1,1.055-3.1,3.676,3.676,0,0,1,2.922-1.207,3.715,3.715,0,0,1,2.938,1.2,4.512,4.512,0,0,1,1.063,3.1v.164a4.519,4.519,0,0,1-1.059,3.105,3.7,3.7,0,0,1-2.926,1.2,3.709,3.709,0,0,1-2.934-1.2,4.519,4.519,0,0,1-1.059-3.105Zm2.273.164a3.677,3.677,0,0,0,.406,1.855,1.4,1.4,0,0,0,1.313.7,1.389,1.389,0,0,0,1.293-.7,3.653,3.653,0,0,0,.41-1.852V-4.3a3.616,3.616,0,0,0-.414-1.836,1.4,1.4,0,0,0-1.3-.711,1.384,1.384,0,0,0-1.293.715,3.648,3.648,0,0,0-.41,1.832Zm9.2-4.312.1,1.211A3.092,3.092,0,0,1,39.945-8.25a2.7,2.7,0,0,1,1.383-.359,2.513,2.513,0,0,1,2,.824,3.908,3.908,0,0,1,.719,2.605V0H41.758V-5.172a2.024,2.024,0,0,0-.316-1.285,1.166,1.166,0,0,0-.949-.379,1.992,1.992,0,0,0-.895.191,1.746,1.746,0,0,0-.637.527V0H36.68V-8.453ZM45.4-4.3a4.536,4.536,0,0,1,1.055-3.1,3.676,3.676,0,0,1,2.922-1.207,3.715,3.715,0,0,1,2.938,1.2,4.512,4.512,0,0,1,1.063,3.1v.164a4.519,4.519,0,0,1-1.059,3.105,3.7,3.7,0,0,1-2.926,1.2,3.709,3.709,0,0,1-2.934-1.2A4.519,4.519,0,0,1,45.4-4.141Zm2.273.164a3.677,3.677,0,0,0,.406,1.855,1.4,1.4,0,0,0,1.313.7,1.389,1.389,0,0,0,1.293-.7,3.653,3.653,0,0,0,.41-1.852V-4.3a3.616,3.616,0,0,0-.414-1.836,1.4,1.4,0,0,0-1.3-.711,1.384,1.384,0,0,0-1.293.715,3.648,3.648,0,0,0-.41,1.832ZM58.313-1.586a1.27,1.27,0,0,0,.945-.355,1.291,1.291,0,0,0,.352-.949h2.078l.016.047A2.645,2.645,0,0,1,60.75-.7a3.564,3.564,0,0,1-2.437.863,3.6,3.6,0,0,1-2.9-1.2A4.558,4.558,0,0,1,54.391-4.1v-.234A4.588,4.588,0,0,1,55.41-7.4,3.57,3.57,0,0,1,58.3-8.609a3.486,3.486,0,0,1,2.492.891A2.976,2.976,0,0,1,61.7-5.375l-.016.047H59.609a1.687,1.687,0,0,0-.348-1.09,1.168,1.168,0,0,0-.965-.434,1.3,1.3,0,0,0-1.254.707,3.878,3.878,0,0,0-.371,1.809V-4.1a3.863,3.863,0,0,0,.371,1.82A1.32,1.32,0,0,0,58.313-1.586ZM65.43,0H63.148V-8.453H65.43Zm0-10.477H63.148v-1.711H65.43Zm3.992,2.023.094,1.117a2.84,2.84,0,0,1,1.02-.941,2.932,2.932,0,0,1,1.418-.332,2.582,2.582,0,0,1,1.391.359,2.217,2.217,0,0,1,.875,1.086,2.93,2.93,0,0,1,1.016-1.062A2.756,2.756,0,0,1,76.7-8.609a2.408,2.408,0,0,1,1.973.887A4.233,4.233,0,0,1,79.4-5.016V0H77.117V-5.023A2.369,2.369,0,0,0,76.8-6.437a1.109,1.109,0,0,0-.93-.4,1.592,1.592,0,0,0-.84.215,1.565,1.565,0,0,0-.566.6q0,.148.008.254t.008.215V0H72.211V-5.023a2.376,2.376,0,0,0-.312-1.4,1.1,1.1,0,0,0-.937-.41,1.769,1.769,0,0,0-.809.176,1.551,1.551,0,0,0-.574.5V0H67.3V-8.453ZM83.547,0H81.266V-8.453h2.281Zm0-10.477H81.266v-1.711h2.281ZM89.086.164A3.8,3.8,0,0,1,86.133-1,4.252,4.252,0,0,1,85.07-3.984V-4.3A4.628,4.628,0,0,1,86.1-7.406a3.506,3.506,0,0,1,2.836-1.2,3.282,3.282,0,0,1,2.613,1.043,4.122,4.122,0,0,1,.91,2.809v1.18H87.422l-.023.047a2.284,2.284,0,0,0,.527,1.406,1.766,1.766,0,0,0,1.4.539,4.692,4.692,0,0,0,1.3-.156,5.307,5.307,0,0,0,1.105-.477l.617,1.406a4.234,4.234,0,0,1-1.375.7A6.1,6.1,0,0,1,89.086.164Zm-.148-7.016a1.267,1.267,0,0,0-1.059.473,2.371,2.371,0,0,0-.449,1.254l.016.039h2.781v-.172a1.974,1.974,0,0,0-.3-1.168A1.127,1.127,0,0,0,88.938-6.852Zm6.938-1.6.1,1.211A3.092,3.092,0,0,1,97.016-8.25,2.7,2.7,0,0,1,98.4-8.609a2.513,2.513,0,0,1,2,.824,3.908,3.908,0,0,1,.719,2.605V0H98.828V-5.172a2.024,2.024,0,0,0-.316-1.285,1.166,1.166,0,0,0-.949-.379,1.992,1.992,0,0,0-.895.191,1.746,1.746,0,0,0-.637.527V0H93.75V-8.453Zm9.68-2.07v2.07h1.43v1.6h-1.43v4.3a.982.982,0,0,0,.207.7.727.727,0,0,0,.543.211,2.178,2.178,0,0,0,.313-.02,2.632,2.632,0,0,0,.3-.066l.188,1.648a4.618,4.618,0,0,1-.668.176,3.982,3.982,0,0,1-.707.059,2.431,2.431,0,0,1-1.816-.648,2.843,2.843,0,0,1-.637-2.055V-6.852h-1.234v-1.6h1.234v-2.07ZM108.039-4.3a4.536,4.536,0,0,1,1.055-3.1,3.676,3.676,0,0,1,2.922-1.207,3.715,3.715,0,0,1,2.938,1.2,4.512,4.512,0,0,1,1.063,3.1v.164a4.519,4.519,0,0,1-1.059,3.105,3.7,3.7,0,0,1-2.926,1.2,3.709,3.709,0,0,1-2.934-1.2,4.519,4.519,0,0,1-1.059-3.105Zm2.273.164a3.677,3.677,0,0,0,.406,1.855,1.4,1.4,0,0,0,1.313.7,1.389,1.389,0,0,0,1.293-.7,3.653,3.653,0,0,0,.41-1.852V-4.3a3.616,3.616,0,0,0-.414-1.836,1.4,1.4,0,0,0-1.3-.711,1.384,1.384,0,0,0-1.293.715,3.648,3.648,0,0,0-.41,1.832Z" transform="translate(-3357 -8185)" fill="#12263f"/>
    <path id="Trazado_877735" data-name="Trazado 877735" d="M7.547-5H3.328v3.25H8.344V0h-7.3V-11.375H8.328v1.758h-5v2.859H7.547Zm4.344-3.453.094,1.117A2.84,2.84,0,0,1,13-8.277a2.932,2.932,0,0,1,1.418-.332,2.582,2.582,0,0,1,1.391.359,2.217,2.217,0,0,1,.875,1.086A2.93,2.93,0,0,1,17.7-8.227a2.756,2.756,0,0,1,1.469-.383,2.408,2.408,0,0,1,1.973.887,4.233,4.233,0,0,1,.723,2.707V0H19.586V-5.023a2.369,2.369,0,0,0-.312-1.414,1.109,1.109,0,0,0-.93-.4,1.592,1.592,0,0,0-.84.215,1.565,1.565,0,0,0-.566.6q0,.148.008.254t.008.215V0H14.68V-5.023a2.376,2.376,0,0,0-.312-1.4,1.1,1.1,0,0,0-.937-.41,1.769,1.769,0,0,0-.809.176,1.551,1.551,0,0,0-.574.5V0H9.773V-8.453ZM31.242-3.992a4.855,4.855,0,0,1-.867,3.016A2.869,2.869,0,0,1,27.953.164a2.707,2.707,0,0,1-1.18-.246A2.423,2.423,0,0,1,25.891-.8V3.25H23.617v-11.7h2.055l.133,1a2.709,2.709,0,0,1,.9-.855,2.441,2.441,0,0,1,1.23-.3,2.813,2.813,0,0,1,2.438,1.227,5.474,5.474,0,0,1,.867,3.227Zm-2.281-.164a4.09,4.09,0,0,0-.4-1.937,1.3,1.3,0,0,0-1.219-.742,1.722,1.722,0,0,0-.879.211,1.505,1.505,0,0,0-.574.6v3.7a1.4,1.4,0,0,0,.574.547,1.935,1.935,0,0,0,.895.188,1.312,1.312,0,0,0,1.215-.648,3.423,3.423,0,0,0,.387-1.758ZM37.633,0a4.8,4.8,0,0,1-.215-.609,4.239,4.239,0,0,1-.129-.656,3.127,3.127,0,0,1-.93,1.023,2.33,2.33,0,0,1-1.375.406A2.855,2.855,0,0,1,32.938-.52a2.449,2.449,0,0,1-.719-1.863,2.229,2.229,0,0,1,.957-1.926,4.78,4.78,0,0,1,2.793-.684H37.25v-.672a1.315,1.315,0,0,0-.32-.945,1.257,1.257,0,0,0-.953-.336,1.239,1.239,0,0,0-.855.27.941.941,0,0,0-.3.738h-2.2l-.016-.047a2.144,2.144,0,0,1,.934-1.848,4.055,4.055,0,0,1,2.582-.777,3.784,3.784,0,0,1,2.465.766,2.667,2.667,0,0,1,.941,2.2v3.492a6.605,6.605,0,0,0,.09,1.117A5.606,5.606,0,0,0,39.906,0ZM35.547-1.523a1.944,1.944,0,0,0,1.063-.3,1.6,1.6,0,0,0,.641-.687V-3.7H35.969a1.519,1.519,0,0,0-1.1.359,1.181,1.181,0,0,0-.371.883.881.881,0,0,0,.277.684A1.1,1.1,0,0,0,35.547-1.523Zm8.43-9v2.07h1.43v1.6h-1.43v4.3a.982.982,0,0,0,.207.7.727.727,0,0,0,.543.211,2.178,2.178,0,0,0,.313-.02,2.632,2.632,0,0,0,.3-.066L45.531-.07a4.618,4.618,0,0,1-.668.176,3.982,3.982,0,0,1-.707.059A2.431,2.431,0,0,1,42.34-.484,2.843,2.843,0,0,1,41.7-2.539V-6.852H40.469v-1.6H41.7v-2.07ZM49.258,0H46.977V-8.453h2.281Zm-.68-11.9h2.539l.016.047L48.969-9.82H47.023ZM56.188,0a4.8,4.8,0,0,1-.215-.609,4.239,4.239,0,0,1-.129-.656,3.127,3.127,0,0,1-.93,1.023,2.33,2.33,0,0,1-1.375.406A2.855,2.855,0,0,1,51.492-.52a2.449,2.449,0,0,1-.719-1.863,2.229,2.229,0,0,1,.957-1.926,4.78,4.78,0,0,1,2.793-.684H55.8v-.672a1.315,1.315,0,0,0-.32-.945,1.257,1.257,0,0,0-.953-.336,1.239,1.239,0,0,0-.855.27.941.941,0,0,0-.3.738h-2.2l-.016-.047A2.144,2.144,0,0,1,52.1-7.832a4.055,4.055,0,0,1,2.582-.777,3.784,3.784,0,0,1,2.465.766,2.667,2.667,0,0,1,.941,2.2v3.492a6.605,6.605,0,0,0,.09,1.117A5.606,5.606,0,0,0,58.461,0ZM54.1-1.523a1.944,1.944,0,0,0,1.063-.3,1.6,1.6,0,0,0,.641-.687V-3.7H54.523a1.519,1.519,0,0,0-1.1.359,1.181,1.181,0,0,0-.371.883.881.881,0,0,0,.277.684A1.1,1.1,0,0,0,54.1-1.523Z" transform="translate(-3328 -7989.211)" fill="#12263f"/>
    <path id="Trazado_877736" data-name="Trazado 877736" d="M-114.852-3.766l.016.047a3.561,3.561,0,0,1-1.109,2.852A4.523,4.523,0,0,1-119.094.164a4.361,4.361,0,0,1-3.3-1.316,4.722,4.722,0,0,1-1.258-3.4V-6.812a4.809,4.809,0,0,1,1.227-3.4,4.182,4.182,0,0,1,3.219-1.324,4.8,4.8,0,0,1,3.25,1.016,3.5,3.5,0,0,1,1.141,2.859l-.016.047h-2.219a2.236,2.236,0,0,0-.527-1.629,2.2,2.2,0,0,0-1.629-.535,1.839,1.839,0,0,0-1.6.824,3.645,3.645,0,0,0-.574,2.129v2.273a3.538,3.538,0,0,0,.605,2.141,1.968,1.968,0,0,0,1.684.828,2,2,0,0,0,1.527-.535,2.328,2.328,0,0,0,.5-1.645Zm1.125-.539a4.536,4.536,0,0,1,1.055-3.1,3.676,3.676,0,0,1,2.922-1.207,3.715,3.715,0,0,1,2.938,1.2,4.512,4.512,0,0,1,1.063,3.1v.164a4.519,4.519,0,0,1-1.059,3.105,3.7,3.7,0,0,1-2.926,1.2,3.709,3.709,0,0,1-2.934-1.2,4.519,4.519,0,0,1-1.059-3.105Zm2.273.164a3.677,3.677,0,0,0,.406,1.855,1.4,1.4,0,0,0,1.313.7,1.389,1.389,0,0,0,1.293-.7,3.653,3.653,0,0,0,.41-1.852V-4.3a3.616,3.616,0,0,0-.414-1.836,1.4,1.4,0,0,0-1.3-.711,1.384,1.384,0,0,0-1.293.715,3.648,3.648,0,0,0-.41,1.832Zm9.227-4.312.094,1.117a2.84,2.84,0,0,1,1.02-.941A2.932,2.932,0,0,1-99.7-8.609,2.582,2.582,0,0,1-98.3-8.25a2.217,2.217,0,0,1,.875,1.086,2.93,2.93,0,0,1,1.016-1.062,2.756,2.756,0,0,1,1.469-.383,2.408,2.408,0,0,1,1.973.887,4.233,4.233,0,0,1,.723,2.707V0h-2.281V-5.023a2.369,2.369,0,0,0-.312-1.414,1.109,1.109,0,0,0-.93-.4,1.592,1.592,0,0,0-.84.215,1.565,1.565,0,0,0-.566.6q0,.148.008.254t.008.215V0h-2.273V-5.023a2.376,2.376,0,0,0-.312-1.4,1.1,1.1,0,0,0-.937-.41,1.769,1.769,0,0,0-.809.176,1.551,1.551,0,0,0-.574.5V0h-2.273V-8.453Zm16.906,7.2A2.87,2.87,0,0,1-86.312-.2a2.63,2.63,0,0,1-1.4.367A2.57,2.57,0,0,1-89.8-.742a4.347,4.347,0,0,1-.754-2.812v-4.9h2.273v4.914a2.729,2.729,0,0,0,.3,1.52,1.081,1.081,0,0,0,.934.41,2.273,2.273,0,0,0,.938-.176,1.58,1.58,0,0,0,.641-.52V-8.453h2.281V0h-1.891Zm5.938-7.2.1,1.211A3.092,3.092,0,0,1-78.242-8.25a2.7,2.7,0,0,1,1.383-.359,2.513,2.513,0,0,1,2,.824,3.908,3.908,0,0,1,.719,2.605V0H-76.43V-5.172a2.024,2.024,0,0,0-.316-1.285,1.166,1.166,0,0,0-.949-.379,1.992,1.992,0,0,0-.895.191,1.746,1.746,0,0,0-.637.527V0h-2.281V-8.453ZM-70.039,0H-72.32V-8.453h2.281Zm0-10.477H-72.32v-1.711h2.281Zm5.406,8.891a1.27,1.27,0,0,0,.945-.355,1.291,1.291,0,0,0,.352-.949h2.078l.016.047A2.645,2.645,0,0,1-62.2-.7a3.564,3.564,0,0,1-2.437.863,3.6,3.6,0,0,1-2.9-1.2A4.558,4.558,0,0,1-68.555-4.1v-.234A4.588,4.588,0,0,1-67.535-7.4a3.57,3.57,0,0,1,2.887-1.207,3.486,3.486,0,0,1,2.492.891,2.976,2.976,0,0,1,.914,2.344l-.016.047h-2.078a1.687,1.687,0,0,0-.348-1.09,1.168,1.168,0,0,0-.965-.434,1.3,1.3,0,0,0-1.254.707,3.878,3.878,0,0,0-.371,1.809V-4.1a3.863,3.863,0,0,0,.371,1.82A1.32,1.32,0,0,0-64.633-1.586ZM-54.93,0a4.8,4.8,0,0,1-.215-.609,4.239,4.239,0,0,1-.129-.656A3.127,3.127,0,0,1-56.2-.242a2.33,2.33,0,0,1-1.375.406A2.855,2.855,0,0,1-59.625-.52a2.449,2.449,0,0,1-.719-1.863,2.229,2.229,0,0,1,.957-1.926,4.78,4.78,0,0,1,2.793-.684h1.281v-.672a1.315,1.315,0,0,0-.32-.945,1.257,1.257,0,0,0-.953-.336,1.239,1.239,0,0,0-.855.27.941.941,0,0,0-.3.738h-2.2l-.016-.047a2.144,2.144,0,0,1,.934-1.848,4.055,4.055,0,0,1,2.582-.777,3.784,3.784,0,0,1,2.465.766,2.667,2.667,0,0,1,.941,2.2v3.492a6.605,6.605,0,0,0,.09,1.117A5.606,5.606,0,0,0-52.656,0Zm-2.086-1.523a1.944,1.944,0,0,0,1.063-.3,1.6,1.6,0,0,0,.641-.687V-3.7h-1.281a1.519,1.519,0,0,0-1.1.359,1.181,1.181,0,0,0-.371.883.881.881,0,0,0,.277.684A1.1,1.1,0,0,0-57.016-1.523Zm9.227-.062a1.27,1.27,0,0,0,.945-.355,1.291,1.291,0,0,0,.352-.949h2.078l.016.047A2.645,2.645,0,0,1-45.352-.7a3.564,3.564,0,0,1-2.437.863,3.6,3.6,0,0,1-2.9-1.2A4.558,4.558,0,0,1-51.711-4.1v-.234A4.588,4.588,0,0,1-50.691-7.4,3.57,3.57,0,0,1-47.8-8.609a3.486,3.486,0,0,1,2.492.891A2.976,2.976,0,0,1-44.4-5.375l-.016.047h-2.078a1.687,1.687,0,0,0-.348-1.09,1.168,1.168,0,0,0-.965-.434,1.3,1.3,0,0,0-1.254.707,3.878,3.878,0,0,0-.371,1.809V-4.1a3.863,3.863,0,0,0,.371,1.82A1.32,1.32,0,0,0-47.789-1.586ZM-40.672,0h-2.281V-8.453h2.281Zm0-10.477h-2.281v-1.711h2.281ZM-39.148-4.3a4.536,4.536,0,0,1,1.055-3.1,3.676,3.676,0,0,1,2.922-1.207,3.715,3.715,0,0,1,2.938,1.2,4.512,4.512,0,0,1,1.063,3.1v.164A4.519,4.519,0,0,1-32.23-1.035a3.7,3.7,0,0,1-2.926,1.2,3.709,3.709,0,0,1-2.934-1.2,4.519,4.519,0,0,1-1.059-3.105Zm2.273.164a3.677,3.677,0,0,0,.406,1.855,1.4,1.4,0,0,0,1.313.7,1.389,1.389,0,0,0,1.293-.7,3.653,3.653,0,0,0,.41-1.852V-4.3a3.616,3.616,0,0,0-.414-1.836,1.4,1.4,0,0,0-1.3-.711,1.384,1.384,0,0,0-1.293.715,3.648,3.648,0,0,0-.41,1.832Zm2.164-7.922h2.539l.016.047L-34.32-9.984h-1.945Zm7.031,3.609.1,1.211A3.092,3.092,0,0,1-26.539-8.25a2.7,2.7,0,0,1,1.383-.359,2.513,2.513,0,0,1,2,.824,3.908,3.908,0,0,1,.719,2.605V0h-2.289V-5.172a2.024,2.024,0,0,0-.316-1.285,1.166,1.166,0,0,0-.949-.379,1.992,1.992,0,0,0-.895.191,1.746,1.746,0,0,0-.637.527V0H-29.8V-8.453ZM-9.1.164A3.8,3.8,0,0,1-12.055-1a4.252,4.252,0,0,1-1.062-2.988V-4.3a4.628,4.628,0,0,1,1.031-3.109,3.506,3.506,0,0,1,2.836-1.2A3.282,3.282,0,0,1-6.637-7.566a4.122,4.122,0,0,1,.91,2.809v1.18h-5.039l-.023.047a2.284,2.284,0,0,0,.527,1.406,1.766,1.766,0,0,0,1.4.539,4.692,4.692,0,0,0,1.3-.156,5.307,5.307,0,0,0,1.105-.477l.617,1.406a4.234,4.234,0,0,1-1.375.7A6.1,6.1,0,0,1-9.1.164ZM-9.25-6.852a1.267,1.267,0,0,0-1.059.473,2.371,2.371,0,0,0-.449,1.254l.016.039h2.781v-.172a1.974,1.974,0,0,0-.3-1.168A1.127,1.127,0,0,0-9.25-6.852ZM-3.8,0V-6.852H-5.062v-1.6H-3.8v-.937a2.859,2.859,0,0,1,.82-2.191,3.239,3.239,0,0,1,2.3-.77,4.168,4.168,0,0,1,.59.043q.3.043.66.121l-.2,1.7q-.187-.031-.363-.055A3.144,3.144,0,0,0-.4-10.57a1.1,1.1,0,0,0-.84.3,1.234,1.234,0,0,0-.285.875v.938H.1v1.6H-1.523V0ZM4.656.164A3.8,3.8,0,0,1,1.7-1,4.252,4.252,0,0,1,.641-3.984V-4.3A4.628,4.628,0,0,1,1.672-7.406a3.506,3.506,0,0,1,2.836-1.2A3.282,3.282,0,0,1,7.121-7.566a4.122,4.122,0,0,1,.91,2.809v1.18H2.992l-.023.047A2.284,2.284,0,0,0,3.5-2.125a1.766,1.766,0,0,0,1.4.539,4.692,4.692,0,0,0,1.3-.156A5.307,5.307,0,0,0,7.3-2.219L7.922-.812a4.234,4.234,0,0,1-1.375.7A6.1,6.1,0,0,1,4.656.164ZM4.508-6.852a1.267,1.267,0,0,0-1.059.473A2.371,2.371,0,0,0,3-5.125l.016.039H5.8v-.172a1.974,1.974,0,0,0-.3-1.168A1.127,1.127,0,0,0,4.508-6.852Zm8.383,5.266a1.27,1.27,0,0,0,.945-.355,1.291,1.291,0,0,0,.352-.949h2.078l.016.047A2.645,2.645,0,0,1,15.328-.7a3.564,3.564,0,0,1-2.437.863,3.6,3.6,0,0,1-2.9-1.2A4.558,4.558,0,0,1,8.969-4.1v-.234A4.588,4.588,0,0,1,9.988-7.4a3.57,3.57,0,0,1,2.887-1.207,3.486,3.486,0,0,1,2.492.891,2.976,2.976,0,0,1,.914,2.344l-.016.047H14.188a1.687,1.687,0,0,0-.348-1.09,1.168,1.168,0,0,0-.965-.434,1.3,1.3,0,0,0-1.254.707,3.878,3.878,0,0,0-.371,1.809V-4.1a3.863,3.863,0,0,0,.371,1.82A1.32,1.32,0,0,0,12.891-1.586Zm7.453-8.937v2.07h1.43v1.6h-1.43v4.3a.982.982,0,0,0,.207.7.727.727,0,0,0,.543.211,2.178,2.178,0,0,0,.313-.02,2.632,2.632,0,0,0,.3-.066L21.9-.07a4.618,4.618,0,0,1-.668.176,3.982,3.982,0,0,1-.707.059,2.431,2.431,0,0,1-1.816-.648,2.843,2.843,0,0,1-.637-2.055V-6.852H16.836v-1.6H18.07v-2.07ZM25.578,0H23.3V-8.453h2.281Zm0-10.477H23.3v-1.711h2.281Zm4.93,7.328.148.781H30.7l.156-.781,1.391-5.3h2.383L31.758,0h-2.18L26.7-8.453h2.383ZM40.492,0a4.8,4.8,0,0,1-.215-.609,4.239,4.239,0,0,1-.129-.656,3.127,3.127,0,0,1-.93,1.023,2.33,2.33,0,0,1-1.375.406A2.855,2.855,0,0,1,35.8-.52a2.449,2.449,0,0,1-.719-1.863,2.229,2.229,0,0,1,.957-1.926,4.78,4.78,0,0,1,2.793-.684h1.281v-.672a1.315,1.315,0,0,0-.32-.945,1.257,1.257,0,0,0-.953-.336,1.239,1.239,0,0,0-.855.27.941.941,0,0,0-.3.738h-2.2l-.016-.047A2.144,2.144,0,0,1,36.4-7.832a4.055,4.055,0,0,1,2.582-.777,3.784,3.784,0,0,1,2.465.766,2.667,2.667,0,0,1,.941,2.2v3.492a6.605,6.605,0,0,0,.09,1.117A5.606,5.606,0,0,0,42.766,0ZM38.406-1.523a1.944,1.944,0,0,0,1.063-.3,1.6,1.6,0,0,0,.641-.687V-3.7H38.828a1.519,1.519,0,0,0-1.1.359,1.181,1.181,0,0,0-.371.883.881.881,0,0,0,.277.684A1.1,1.1,0,0,0,38.406-1.523ZM51.133-3.547l.094.469h.047l1.617-5.375h2.453l-3.43,9.719a4.474,4.474,0,0,1-.977,1.527,2.505,2.505,0,0,1-1.852.621,2.863,2.863,0,0,1-.535-.047q-.246-.047-.6-.133l.266-1.664.219.031a1.611,1.611,0,0,0,.211.016,1.243,1.243,0,0,0,.867-.277,1.83,1.83,0,0,0,.469-.691l.266-.656-3-8.445H49.7ZM69.211,0A4.8,4.8,0,0,1,69-.609a4.238,4.238,0,0,1-.129-.656,3.127,3.127,0,0,1-.93,1.023,2.33,2.33,0,0,1-1.375.406A2.855,2.855,0,0,1,64.516-.52,2.449,2.449,0,0,1,63.8-2.383a2.229,2.229,0,0,1,.957-1.926,4.78,4.78,0,0,1,2.793-.684h1.281v-.672a1.315,1.315,0,0,0-.32-.945,1.257,1.257,0,0,0-.953-.336,1.239,1.239,0,0,0-.855.27.941.941,0,0,0-.3.738H64.2l-.016-.047a2.144,2.144,0,0,1,.934-1.848A4.055,4.055,0,0,1,67.7-8.609a3.784,3.784,0,0,1,2.465.766,2.667,2.667,0,0,1,.941,2.2v3.492a6.6,6.6,0,0,0,.09,1.117A5.606,5.606,0,0,0,71.484,0ZM67.125-1.523a1.944,1.944,0,0,0,1.063-.3,1.6,1.6,0,0,0,.641-.687V-3.7H67.547a1.519,1.519,0,0,0-1.1.359,1.181,1.181,0,0,0-.371.883.881.881,0,0,0,.277.684A1.1,1.1,0,0,0,67.125-1.523ZM73.414,0V-6.852H72.156v-1.6h1.258v-.937a2.859,2.859,0,0,1,.82-2.191,3.239,3.239,0,0,1,2.3-.77,4.168,4.168,0,0,1,.59.043q.3.043.66.121l-.2,1.7q-.187-.031-.363-.055a3.144,3.144,0,0,0-.41-.023,1.1,1.1,0,0,0-.84.3,1.234,1.234,0,0,0-.285.875v.938H77.32v1.6H75.7V0Zm8.461.164A3.8,3.8,0,0,1,78.922-1a4.252,4.252,0,0,1-1.062-2.988V-4.3a4.628,4.628,0,0,1,1.031-3.109,3.506,3.506,0,0,1,2.836-1.2A3.282,3.282,0,0,1,84.34-7.566a4.122,4.122,0,0,1,.91,2.809v1.18H80.211l-.023.047a2.284,2.284,0,0,0,.527,1.406,1.766,1.766,0,0,0,1.4.539,4.692,4.692,0,0,0,1.3-.156,5.307,5.307,0,0,0,1.105-.477l.617,1.406a4.234,4.234,0,0,1-1.375.7A6.1,6.1,0,0,1,81.875.164Zm-.148-7.016a1.267,1.267,0,0,0-1.059.473,2.371,2.371,0,0,0-.449,1.254l.016.039h2.781v-.172a1.974,1.974,0,0,0-.3-1.168A1.127,1.127,0,0,0,81.727-6.852Zm8.383,5.266a1.27,1.27,0,0,0,.945-.355,1.291,1.291,0,0,0,.352-.949h2.078l.016.047A2.645,2.645,0,0,1,92.547-.7a3.564,3.564,0,0,1-2.437.863,3.6,3.6,0,0,1-2.9-1.2A4.558,4.558,0,0,1,86.188-4.1v-.234A4.588,4.588,0,0,1,87.207-7.4a3.57,3.57,0,0,1,2.887-1.207,3.486,3.486,0,0,1,2.492.891A2.976,2.976,0,0,1,93.5-5.375l-.016.047H91.406a1.687,1.687,0,0,0-.348-1.09,1.168,1.168,0,0,0-.965-.434,1.3,1.3,0,0,0-1.254.707,3.878,3.878,0,0,0-.371,1.809V-4.1a3.863,3.863,0,0,0,.371,1.82A1.32,1.32,0,0,0,90.109-1.586Zm7.453-8.937v2.07h1.43v1.6h-1.43v4.3a.982.982,0,0,0,.207.7.727.727,0,0,0,.543.211,2.178,2.178,0,0,0,.313-.02,2.632,2.632,0,0,0,.3-.066L99.117-.07a4.618,4.618,0,0,1-.668.176,3.982,3.982,0,0,1-.707.059,2.431,2.431,0,0,1-1.816-.648,2.843,2.843,0,0,1-.637-2.055V-6.852H94.055v-1.6h1.234v-2.07ZM102.8,0h-2.281V-8.453H102.8Zm0-10.477h-2.281v-1.711H102.8Zm4.93,7.328.148.781h.047l.156-.781,1.391-5.3h2.383L108.977,0H106.8l-2.875-8.453H106.3ZM117.711,0a4.8,4.8,0,0,1-.215-.609,4.238,4.238,0,0,1-.129-.656,3.127,3.127,0,0,1-.93,1.023,2.33,2.33,0,0,1-1.375.406,2.855,2.855,0,0,1-2.047-.684,2.449,2.449,0,0,1-.719-1.863,2.229,2.229,0,0,1,.957-1.926,4.78,4.78,0,0,1,2.793-.684h1.281v-.672a1.315,1.315,0,0,0-.32-.945,1.257,1.257,0,0,0-.953-.336,1.239,1.239,0,0,0-.855.27.941.941,0,0,0-.3.738h-2.2l-.016-.047a2.144,2.144,0,0,1,.934-1.848,4.055,4.055,0,0,1,2.582-.777,3.784,3.784,0,0,1,2.465.766,2.667,2.667,0,0,1,.941,2.2v3.492a6.6,6.6,0,0,0,.09,1.117A5.606,5.606,0,0,0,119.984,0Zm-2.086-1.523a1.944,1.944,0,0,0,1.063-.3,1.6,1.6,0,0,0,.641-.687V-3.7h-1.281a1.519,1.519,0,0,0-1.1.359,1.181,1.181,0,0,0-.371.883.881.881,0,0,0,.277.684A1.1,1.1,0,0,0,115.625-1.523Z" transform="translate(-3299 -7788.339)" fill="#12263f"/>
    <path id="Trazado_877737" data-name="Trazado 877737" d="M-128.586,0h-2.281V-11.375h2.281Zm4.172-8.453.1,1.211a3.092,3.092,0,0,1,1.039-1.008,2.7,2.7,0,0,1,1.383-.359,2.513,2.513,0,0,1,2,.824,3.908,3.908,0,0,1,.719,2.605V0h-2.289V-5.172a2.024,2.024,0,0,0-.316-1.285,1.166,1.166,0,0,0-.949-.379,1.992,1.992,0,0,0-.895.191,1.746,1.746,0,0,0-.637.527V0h-2.281V-8.453Zm9.68-2.07v2.07h1.43v1.6h-1.43v4.3a.982.982,0,0,0,.207.7.727.727,0,0,0,.543.211,2.178,2.178,0,0,0,.313-.02,2.632,2.632,0,0,0,.3-.066l.188,1.648a4.618,4.618,0,0,1-.668.176,3.982,3.982,0,0,1-.707.059,2.431,2.431,0,0,1-1.816-.648,2.843,2.843,0,0,1-.637-2.055V-6.852h-1.234v-1.6h1.234v-2.07Zm6.5,10.688A3.8,3.8,0,0,1-111.187-1a4.252,4.252,0,0,1-1.062-2.988V-4.3a4.628,4.628,0,0,1,1.031-3.109,3.506,3.506,0,0,1,2.836-1.2,3.282,3.282,0,0,1,2.613,1.043,4.122,4.122,0,0,1,.91,2.809v1.18H-109.9l-.023.047a2.284,2.284,0,0,0,.527,1.406,1.766,1.766,0,0,0,1.4.539,4.692,4.692,0,0,0,1.3-.156,5.307,5.307,0,0,0,1.105-.477l.617,1.406a4.234,4.234,0,0,1-1.375.7A6.1,6.1,0,0,1-108.234.164Zm-.148-7.016a1.267,1.267,0,0,0-1.059.473,2.371,2.371,0,0,0-.449,1.254l.016.039h2.781v-.172a1.974,1.974,0,0,0-.3-1.168A1.127,1.127,0,0,0-108.383-6.852Zm9.3.359-.836-.023a1.519,1.519,0,0,0-.836.211,1.337,1.337,0,0,0-.5.594V0h-2.273V-8.453h2.117l.1,1.25a2.667,2.667,0,0,1,.77-1.035,1.715,1.715,0,0,1,1.09-.371,1.7,1.7,0,0,1,.316.027q.145.027.293.066ZM-92.914,0a4.8,4.8,0,0,1-.215-.609,4.238,4.238,0,0,1-.129-.656,3.127,3.127,0,0,1-.93,1.023,2.33,2.33,0,0,1-1.375.406A2.855,2.855,0,0,1-97.609-.52a2.449,2.449,0,0,1-.719-1.863,2.229,2.229,0,0,1,.957-1.926,4.78,4.78,0,0,1,2.793-.684H-93.3v-.672a1.315,1.315,0,0,0-.32-.945,1.257,1.257,0,0,0-.953-.336,1.239,1.239,0,0,0-.855.27.941.941,0,0,0-.3.738h-2.2l-.016-.047A2.144,2.144,0,0,1-97-7.832a4.055,4.055,0,0,1,2.582-.777,3.784,3.784,0,0,1,2.465.766,2.667,2.667,0,0,1,.941,2.2v3.492a6.6,6.6,0,0,0,.09,1.117A5.606,5.606,0,0,0-90.641,0ZM-95-1.523a1.944,1.944,0,0,0,1.063-.3,1.6,1.6,0,0,0,.641-.687V-3.7h-1.281a1.519,1.519,0,0,0-1.1.359,1.181,1.181,0,0,0-.371.883.881.881,0,0,0,.277.684A1.1,1.1,0,0,0-95-1.523Zm9.227-.062a1.27,1.27,0,0,0,.945-.355,1.291,1.291,0,0,0,.352-.949H-82.4l.016.047A2.645,2.645,0,0,1-83.336-.7a3.564,3.564,0,0,1-2.437.863,3.6,3.6,0,0,1-2.9-1.2A4.558,4.558,0,0,1-89.7-4.1v-.234A4.588,4.588,0,0,1-88.676-7.4a3.57,3.57,0,0,1,2.887-1.207,3.486,3.486,0,0,1,2.492.891,2.976,2.976,0,0,1,.914,2.344l-.016.047h-2.078a1.687,1.687,0,0,0-.348-1.09,1.168,1.168,0,0,0-.965-.434,1.3,1.3,0,0,0-1.254.707,3.878,3.878,0,0,0-.371,1.809V-4.1a3.863,3.863,0,0,0,.371,1.82A1.32,1.32,0,0,0-85.773-1.586Zm8.25,0a1.27,1.27,0,0,0,.945-.355,1.291,1.291,0,0,0,.352-.949h2.078l.016.047A2.645,2.645,0,0,1-75.086-.7a3.564,3.564,0,0,1-2.437.863,3.6,3.6,0,0,1-2.9-1.2A4.558,4.558,0,0,1-81.445-4.1v-.234A4.588,4.588,0,0,1-80.426-7.4a3.57,3.57,0,0,1,2.887-1.207,3.486,3.486,0,0,1,2.492.891,2.976,2.976,0,0,1,.914,2.344l-.016.047h-2.078a1.687,1.687,0,0,0-.348-1.09,1.168,1.168,0,0,0-.965-.434,1.3,1.3,0,0,0-1.254.707,3.878,3.878,0,0,0-.371,1.809V-4.1a3.863,3.863,0,0,0,.371,1.82A1.32,1.32,0,0,0-77.523-1.586ZM-70.406,0h-2.281V-8.453h2.281Zm0-10.477h-2.281v-1.711h2.281ZM-68.883-4.3a4.536,4.536,0,0,1,1.055-3.1,3.676,3.676,0,0,1,2.922-1.207,3.715,3.715,0,0,1,2.938,1.2,4.512,4.512,0,0,1,1.063,3.1v.164a4.519,4.519,0,0,1-1.059,3.105,3.7,3.7,0,0,1-2.926,1.2,3.709,3.709,0,0,1-2.934-1.2,4.519,4.519,0,0,1-1.059-3.105Zm2.273.164A3.677,3.677,0,0,0-66.2-2.285a1.4,1.4,0,0,0,1.313.7,1.389,1.389,0,0,0,1.293-.7,3.653,3.653,0,0,0,.41-1.852V-4.3A3.616,3.616,0,0,0-63.6-6.141a1.4,1.4,0,0,0-1.3-.711,1.384,1.384,0,0,0-1.293.715,3.648,3.648,0,0,0-.41,1.832Zm2.164-7.922h2.539l.016.047-2.164,2.031H-66Zm7.031,3.609.1,1.211A3.092,3.092,0,0,1-56.273-8.25a2.7,2.7,0,0,1,1.383-.359,2.513,2.513,0,0,1,2,.824,3.908,3.908,0,0,1,.719,2.605V0h-2.289V-5.172a2.024,2.024,0,0,0-.316-1.285,1.166,1.166,0,0,0-.949-.379,1.992,1.992,0,0,0-.895.191,1.746,1.746,0,0,0-.637.527V0h-2.281V-8.453ZM-44.086,0h-2.281V-8.453h2.281Zm0-10.477h-2.281v-1.711h2.281Zm1.539,6.32a5.474,5.474,0,0,1,.867-3.227,2.813,2.813,0,0,1,2.438-1.227,2.4,2.4,0,0,1,1.25.32,2.806,2.806,0,0,1,.922.914l.18-1.078h1.961V-.039a3.142,3.142,0,0,1-1.078,2.551,4.552,4.552,0,0,1-3.008.9,5.73,5.73,0,0,1-1.359-.176,6.313,6.313,0,0,1-1.328-.48l.383-1.7a5.235,5.235,0,0,0,1.082.379,5.362,5.362,0,0,0,1.207.129,2.042,2.042,0,0,0,1.379-.391,1.546,1.546,0,0,0,.441-1.219V-.812a2.552,2.552,0,0,1-.883.727,2.6,2.6,0,0,1-1.164.25A2.869,2.869,0,0,1-41.68-.977a4.855,4.855,0,0,1-.867-3.016Zm2.281.164a3.473,3.473,0,0,0,.371,1.746,1.3,1.3,0,0,0,1.215.637,1.883,1.883,0,0,0,.887-.191,1.462,1.462,0,0,0,.582-.559V-6.023a1.559,1.559,0,0,0-.582-.6,1.706,1.706,0,0,0-.871-.211,1.279,1.279,0,0,0-1.219.742,4.231,4.231,0,0,0-.383,1.938ZM-28-1.25A2.87,2.87,0,0,1-28.992-.2a2.63,2.63,0,0,1-1.4.367,2.57,2.57,0,0,1-2.09-.906,4.347,4.347,0,0,1-.754-2.812v-4.9h2.273v4.914a2.729,2.729,0,0,0,.3,1.52,1.081,1.081,0,0,0,.934.41,2.273,2.273,0,0,0,.938-.176,1.58,1.58,0,0,0,.641-.52V-8.453h2.281V0h-1.891ZM-19.164,0a4.8,4.8,0,0,1-.215-.609,4.239,4.239,0,0,1-.129-.656,3.127,3.127,0,0,1-.93,1.023,2.33,2.33,0,0,1-1.375.406A2.855,2.855,0,0,1-23.859-.52a2.449,2.449,0,0,1-.719-1.863,2.229,2.229,0,0,1,.957-1.926,4.78,4.78,0,0,1,2.793-.684h1.281v-.672a1.315,1.315,0,0,0-.32-.945,1.257,1.257,0,0,0-.953-.336,1.239,1.239,0,0,0-.855.27.941.941,0,0,0-.3.738h-2.2l-.016-.047a2.144,2.144,0,0,1,.934-1.848,4.055,4.055,0,0,1,2.582-.777,3.784,3.784,0,0,1,2.465.766,2.667,2.667,0,0,1,.941,2.2v3.492a6.6,6.6,0,0,0,.09,1.117A5.606,5.606,0,0,0-16.891,0ZM-21.25-1.523a1.944,1.944,0,0,0,1.063-.3,1.6,1.6,0,0,0,.641-.687V-3.7h-1.281a1.519,1.519,0,0,0-1.1.359,1.181,1.181,0,0,0-.371.883.881.881,0,0,0,.277.684A1.1,1.1,0,0,0-21.25-1.523ZM-13.156,0h-2.281V-12.187h2.281Zm4.273,0h-2.281V-8.453h2.281Zm0-10.477h-2.281v-1.711h2.281Zm4.609-.047v2.07h1.43v1.6h-1.43v4.3a.982.982,0,0,0,.207.7.727.727,0,0,0,.543.211,2.178,2.178,0,0,0,.313-.02,2.632,2.632,0,0,0,.3-.066L-2.719-.07a4.618,4.618,0,0,1-.668.176,3.982,3.982,0,0,1-.707.059A2.431,2.431,0,0,1-5.91-.484a2.843,2.843,0,0,1-.637-2.055V-6.852H-7.781v-1.6h1.234v-2.07ZM3.547,0a4.8,4.8,0,0,1-.215-.609A4.239,4.239,0,0,1,3.2-1.266a3.127,3.127,0,0,1-.93,1.023A2.33,2.33,0,0,1,.9.164,2.855,2.855,0,0,1-1.148-.52a2.449,2.449,0,0,1-.719-1.863A2.229,2.229,0,0,1-.91-4.309a4.78,4.78,0,0,1,2.793-.684H3.164v-.672a1.315,1.315,0,0,0-.32-.945,1.257,1.257,0,0,0-.953-.336,1.239,1.239,0,0,0-.855.27.941.941,0,0,0-.3.738h-2.2l-.016-.047A2.144,2.144,0,0,1-.543-7.832a4.055,4.055,0,0,1,2.582-.777A3.784,3.784,0,0,1,4.5-7.844a2.667,2.667,0,0,1,.941,2.2v3.492a6.6,6.6,0,0,0,.09,1.117A5.606,5.606,0,0,0,5.82,0ZM1.461-1.523a1.944,1.944,0,0,0,1.063-.3,1.6,1.6,0,0,0,.641-.687V-3.7H1.883a1.519,1.519,0,0,0-1.1.359,1.181,1.181,0,0,0-.371.883.881.881,0,0,0,.277.684A1.1,1.1,0,0,0,1.461-1.523ZM11.6-6.492l-.836-.023A1.519,1.519,0,0,0,9.93-6.3a1.337,1.337,0,0,0-.5.594V0H7.156V-8.453H9.273l.1,1.25a2.667,2.667,0,0,1,.77-1.035,1.715,1.715,0,0,1,1.09-.371,1.705,1.705,0,0,1,.316.027q.145.027.293.066ZM15.188,0H12.906V-8.453h2.281Zm0-10.477H12.906v-1.711h2.281ZM22.047,0a4.8,4.8,0,0,1-.215-.609,4.239,4.239,0,0,1-.129-.656,3.127,3.127,0,0,1-.93,1.023A2.33,2.33,0,0,1,19.4.164,2.855,2.855,0,0,1,17.352-.52a2.449,2.449,0,0,1-.719-1.863,2.229,2.229,0,0,1,.957-1.926,4.78,4.78,0,0,1,2.793-.684h1.281v-.672a1.315,1.315,0,0,0-.32-.945,1.257,1.257,0,0,0-.953-.336,1.239,1.239,0,0,0-.855.27.941.941,0,0,0-.3.738h-2.2l-.016-.047a2.144,2.144,0,0,1,.934-1.848,4.055,4.055,0,0,1,2.582-.777A3.784,3.784,0,0,1,23-7.844a2.667,2.667,0,0,1,.941,2.2v3.492a6.6,6.6,0,0,0,.09,1.117A5.606,5.606,0,0,0,24.32,0ZM19.961-1.523a1.944,1.944,0,0,0,1.063-.3,1.6,1.6,0,0,0,.641-.687V-3.7H20.383a1.519,1.519,0,0,0-1.1.359,1.181,1.181,0,0,0-.371.883.881.881,0,0,0,.277.684A1.1,1.1,0,0,0,19.961-1.523ZM32.688-3.547l.094.469h.047l1.617-5.375H36.9l-3.43,9.719a4.474,4.474,0,0,1-.977,1.527,2.505,2.505,0,0,1-1.852.621,2.863,2.863,0,0,1-.535-.047q-.246-.047-.6-.133l.266-1.664.219.031a1.611,1.611,0,0,0,.211.016,1.243,1.243,0,0,0,.867-.277,1.83,1.83,0,0,0,.469-.691L31.8-.008l-3-8.445h2.453Zm15.18-4.906.1,1.211A3.092,3.092,0,0,1,49.008-8.25a2.7,2.7,0,0,1,1.383-.359,2.513,2.513,0,0,1,2,.824,3.908,3.908,0,0,1,.719,2.605V0H50.82V-5.172A2.024,2.024,0,0,0,50.5-6.457a1.166,1.166,0,0,0-.949-.379,1.992,1.992,0,0,0-.895.191,1.746,1.746,0,0,0-.637.527V0H45.742V-8.453ZM58.477.164A3.8,3.8,0,0,1,55.523-1a4.252,4.252,0,0,1-1.062-2.988V-4.3a4.628,4.628,0,0,1,1.031-3.109,3.506,3.506,0,0,1,2.836-1.2,3.282,3.282,0,0,1,2.613,1.043,4.122,4.122,0,0,1,.91,2.809v1.18H56.813l-.023.047a2.284,2.284,0,0,0,.527,1.406,1.766,1.766,0,0,0,1.4.539,4.692,4.692,0,0,0,1.3-.156,5.307,5.307,0,0,0,1.105-.477l.617,1.406a4.234,4.234,0,0,1-1.375.7A6.1,6.1,0,0,1,58.477.164Zm-.148-7.016a1.267,1.267,0,0,0-1.059.473,2.371,2.371,0,0,0-.449,1.254l.016.039h2.781v-.172a1.974,1.974,0,0,0-.3-1.168A1.127,1.127,0,0,0,58.328-6.852Zm4.516,2.7a5.474,5.474,0,0,1,.867-3.227,2.813,2.813,0,0,1,2.438-1.227,2.4,2.4,0,0,1,1.25.32,2.806,2.806,0,0,1,.922.914l.18-1.078h1.961V-.039a3.142,3.142,0,0,1-1.078,2.551,4.552,4.552,0,0,1-3.008.9,5.73,5.73,0,0,1-1.359-.176,6.313,6.313,0,0,1-1.328-.48l.383-1.7a5.235,5.235,0,0,0,1.082.379,5.362,5.362,0,0,0,1.207.129,2.042,2.042,0,0,0,1.379-.391A1.546,1.546,0,0,0,68.18-.047V-.812a2.552,2.552,0,0,1-.883.727,2.6,2.6,0,0,1-1.164.25A2.869,2.869,0,0,1,63.711-.977a4.855,4.855,0,0,1-.867-3.016Zm2.281.164A3.473,3.473,0,0,0,65.5-2.246a1.3,1.3,0,0,0,1.215.637A1.883,1.883,0,0,0,67.6-1.8a1.462,1.462,0,0,0,.582-.559V-6.023a1.559,1.559,0,0,0-.582-.6,1.706,1.706,0,0,0-.871-.211,1.279,1.279,0,0,0-1.219.742,4.231,4.231,0,0,0-.383,1.938ZM71.859-4.3a4.536,4.536,0,0,1,1.055-3.1,3.676,3.676,0,0,1,2.922-1.207,3.715,3.715,0,0,1,2.938,1.2,4.512,4.512,0,0,1,1.063,3.1v.164a4.519,4.519,0,0,1-1.059,3.105,3.7,3.7,0,0,1-2.926,1.2,3.709,3.709,0,0,1-2.934-1.2,4.519,4.519,0,0,1-1.059-3.105Zm2.273.164a3.677,3.677,0,0,0,.406,1.855,1.4,1.4,0,0,0,1.313.7,1.389,1.389,0,0,0,1.293-.7,3.653,3.653,0,0,0,.41-1.852V-4.3a3.616,3.616,0,0,0-.414-1.836,1.4,1.4,0,0,0-1.3-.711,1.384,1.384,0,0,0-1.293.715,3.648,3.648,0,0,0-.41,1.832ZM84.773-1.586a1.27,1.27,0,0,0,.945-.355,1.291,1.291,0,0,0,.352-.949h2.078l.016.047A2.645,2.645,0,0,1,87.211-.7a3.564,3.564,0,0,1-2.437.863,3.6,3.6,0,0,1-2.9-1.2A4.558,4.558,0,0,1,80.852-4.1v-.234A4.588,4.588,0,0,1,81.871-7.4a3.57,3.57,0,0,1,2.887-1.207,3.486,3.486,0,0,1,2.492.891,2.976,2.976,0,0,1,.914,2.344l-.016.047H86.07a1.687,1.687,0,0,0-.348-1.09,1.168,1.168,0,0,0-.965-.434,1.3,1.3,0,0,0-1.254.707,3.878,3.878,0,0,0-.371,1.809V-4.1a3.863,3.863,0,0,0,.371,1.82A1.32,1.32,0,0,0,84.773-1.586ZM91.891,0H89.609V-8.453h2.281Zm0-10.477H89.609v-1.711h2.281ZM98.75,0a4.8,4.8,0,0,1-.215-.609,4.238,4.238,0,0,1-.129-.656,3.127,3.127,0,0,1-.93,1.023A2.33,2.33,0,0,1,96.1.164,2.855,2.855,0,0,1,94.055-.52a2.449,2.449,0,0,1-.719-1.863,2.229,2.229,0,0,1,.957-1.926,4.78,4.78,0,0,1,2.793-.684h1.281v-.672a1.315,1.315,0,0,0-.32-.945,1.257,1.257,0,0,0-.953-.336,1.239,1.239,0,0,0-.855.27.941.941,0,0,0-.3.738h-2.2l-.016-.047a2.144,2.144,0,0,1,.934-1.848,4.055,4.055,0,0,1,2.582-.777,3.784,3.784,0,0,1,2.465.766,2.667,2.667,0,0,1,.941,2.2v3.492a6.6,6.6,0,0,0,.09,1.117A5.606,5.606,0,0,0,101.023,0ZM96.664-1.523a1.944,1.944,0,0,0,1.063-.3,1.6,1.6,0,0,0,.641-.687V-3.7H97.086a1.519,1.519,0,0,0-1.1.359,1.181,1.181,0,0,0-.371.883.881.881,0,0,0,.277.684A1.1,1.1,0,0,0,96.664-1.523Zm9.227-.062a1.27,1.27,0,0,0,.945-.355,1.291,1.291,0,0,0,.352-.949h2.078l.016.047A2.645,2.645,0,0,1,108.328-.7a3.564,3.564,0,0,1-2.437.863,3.6,3.6,0,0,1-2.9-1.2A4.558,4.558,0,0,1,101.969-4.1v-.234a4.588,4.588,0,0,1,1.02-3.066,3.57,3.57,0,0,1,2.887-1.207,3.486,3.486,0,0,1,2.492.891,2.976,2.976,0,0,1,.914,2.344l-.016.047h-2.078a1.687,1.687,0,0,0-.348-1.09,1.168,1.168,0,0,0-.965-.434,1.3,1.3,0,0,0-1.254.707,3.878,3.878,0,0,0-.371,1.809V-4.1a3.863,3.863,0,0,0,.371,1.82A1.32,1.32,0,0,0,105.891-1.586ZM113.008,0h-2.281V-8.453h2.281Zm0-10.477h-2.281v-1.711h2.281ZM114.531-4.3a4.536,4.536,0,0,1,1.055-3.1,3.676,3.676,0,0,1,2.922-1.207,3.715,3.715,0,0,1,2.938,1.2,4.512,4.512,0,0,1,1.063,3.1v.164a4.519,4.519,0,0,1-1.059,3.105,3.7,3.7,0,0,1-2.926,1.2,3.709,3.709,0,0,1-2.934-1.2,4.519,4.519,0,0,1-1.059-3.105Zm2.273.164a3.677,3.677,0,0,0,.406,1.855,1.4,1.4,0,0,0,1.313.7,1.389,1.389,0,0,0,1.293-.7,3.653,3.653,0,0,0,.41-1.852V-4.3a3.616,3.616,0,0,0-.414-1.836,1.4,1.4,0,0,0-1.3-.711,1.384,1.384,0,0,0-1.293.715A3.648,3.648,0,0,0,116.8-4.3Zm2.164-7.922h2.539l.016.047-2.164,2.031h-1.945ZM126-8.453l.1,1.211a3.092,3.092,0,0,1,1.039-1.008,2.7,2.7,0,0,1,1.383-.359,2.513,2.513,0,0,1,2,.824,3.908,3.908,0,0,1,.719,2.605V0h-2.289V-5.172a2.024,2.024,0,0,0-.316-1.285,1.166,1.166,0,0,0-.949-.379,1.992,1.992,0,0,0-.895.191,1.746,1.746,0,0,0-.637.527V0h-2.281V-8.453Z" transform="translate(-3299 -7590.484)" fill="#12263f"/>
    <path id="Trazado_877738" data-name="Trazado 877738" d="M10.242,0H7.961L3.375-7.672l-.047.008V0H1.047V-11.375H3.328L7.914-3.711l.047-.008v-7.656h2.281Zm5.586.164A3.8,3.8,0,0,1,12.875-1a4.252,4.252,0,0,1-1.062-2.988V-4.3a4.628,4.628,0,0,1,1.031-3.109,3.506,3.506,0,0,1,2.836-1.2,3.282,3.282,0,0,1,2.613,1.043,4.122,4.122,0,0,1,.91,2.809v1.18H14.164l-.023.047a2.284,2.284,0,0,0,.527,1.406,1.766,1.766,0,0,0,1.4.539,4.692,4.692,0,0,0,1.3-.156,5.307,5.307,0,0,0,1.105-.477l.617,1.406a4.234,4.234,0,0,1-1.375.7A6.1,6.1,0,0,1,15.828.164ZM15.68-6.852a1.267,1.267,0,0,0-1.059.473,2.371,2.371,0,0,0-.449,1.254l.016.039h2.781v-.172a1.974,1.974,0,0,0-.3-1.168A1.127,1.127,0,0,0,15.68-6.852Zm4.516,2.7a5.474,5.474,0,0,1,.867-3.227A2.813,2.813,0,0,1,23.5-8.609a2.4,2.4,0,0,1,1.25.32,2.806,2.806,0,0,1,.922.914l.18-1.078h1.961V-.039a3.142,3.142,0,0,1-1.078,2.551,4.552,4.552,0,0,1-3.008.9,5.73,5.73,0,0,1-1.359-.176,6.313,6.313,0,0,1-1.328-.48l.383-1.7a5.235,5.235,0,0,0,1.082.379,5.362,5.362,0,0,0,1.207.129,2.042,2.042,0,0,0,1.379-.391,1.546,1.546,0,0,0,.441-1.219V-.812a2.552,2.552,0,0,1-.883.727,2.6,2.6,0,0,1-1.164.25A2.869,2.869,0,0,1,21.063-.977,4.855,4.855,0,0,1,20.2-3.992Zm2.281.164a3.473,3.473,0,0,0,.371,1.746,1.3,1.3,0,0,0,1.215.637,1.883,1.883,0,0,0,.887-.191,1.462,1.462,0,0,0,.582-.559V-6.023a1.559,1.559,0,0,0-.582-.6,1.706,1.706,0,0,0-.871-.211,1.279,1.279,0,0,0-1.219.742,4.231,4.231,0,0,0-.383,1.938ZM29.211-4.3a4.536,4.536,0,0,1,1.055-3.1,3.676,3.676,0,0,1,2.922-1.207,3.715,3.715,0,0,1,2.938,1.2,4.512,4.512,0,0,1,1.063,3.1v.164a4.519,4.519,0,0,1-1.059,3.105A3.7,3.7,0,0,1,33.2.164a3.709,3.709,0,0,1-2.934-1.2,4.519,4.519,0,0,1-1.059-3.105Zm2.273.164a3.677,3.677,0,0,0,.406,1.855,1.4,1.4,0,0,0,1.313.7,1.389,1.389,0,0,0,1.293-.7,3.653,3.653,0,0,0,.41-1.852V-4.3a3.616,3.616,0,0,0-.414-1.836,1.4,1.4,0,0,0-1.3-.711,1.384,1.384,0,0,0-1.293.715,3.648,3.648,0,0,0-.41,1.832ZM42.125-1.586a1.27,1.27,0,0,0,.945-.355,1.291,1.291,0,0,0,.352-.949H45.5l.016.047A2.645,2.645,0,0,1,44.563-.7a3.564,3.564,0,0,1-2.437.863,3.6,3.6,0,0,1-2.9-1.2A4.558,4.558,0,0,1,38.2-4.1v-.234A4.588,4.588,0,0,1,39.223-7.4a3.57,3.57,0,0,1,2.887-1.207,3.486,3.486,0,0,1,2.492.891,2.976,2.976,0,0,1,.914,2.344l-.016.047H43.422a1.687,1.687,0,0,0-.348-1.09,1.168,1.168,0,0,0-.965-.434,1.3,1.3,0,0,0-1.254.707,3.878,3.878,0,0,0-.371,1.809V-4.1a3.863,3.863,0,0,0,.371,1.82A1.32,1.32,0,0,0,42.125-1.586ZM49.242,0H46.961V-8.453h2.281Zm0-10.477H46.961v-1.711h2.281ZM56.1,0a4.8,4.8,0,0,1-.215-.609,4.239,4.239,0,0,1-.129-.656,3.127,3.127,0,0,1-.93,1.023,2.33,2.33,0,0,1-1.375.406A2.855,2.855,0,0,1,51.406-.52a2.449,2.449,0,0,1-.719-1.863,2.229,2.229,0,0,1,.957-1.926,4.78,4.78,0,0,1,2.793-.684h1.281v-.672a1.315,1.315,0,0,0-.32-.945,1.257,1.257,0,0,0-.953-.336,1.239,1.239,0,0,0-.855.27.941.941,0,0,0-.3.738h-2.2l-.016-.047a2.144,2.144,0,0,1,.934-1.848,4.055,4.055,0,0,1,2.582-.777,3.784,3.784,0,0,1,2.465.766A2.667,2.667,0,0,1,58-5.648v3.492a6.605,6.605,0,0,0,.09,1.117A5.606,5.606,0,0,0,58.375,0ZM54.016-1.523a1.944,1.944,0,0,0,1.063-.3,1.6,1.6,0,0,0,.641-.687V-3.7H54.438a1.519,1.519,0,0,0-1.1.359,1.181,1.181,0,0,0-.371.883.881.881,0,0,0,.277.684A1.1,1.1,0,0,0,54.016-1.523Zm9.227-.062a1.27,1.27,0,0,0,.945-.355,1.291,1.291,0,0,0,.352-.949h2.078l.016.047A2.645,2.645,0,0,1,65.68-.7a3.564,3.564,0,0,1-2.437.863,3.6,3.6,0,0,1-2.9-1.2A4.558,4.558,0,0,1,59.32-4.1v-.234A4.588,4.588,0,0,1,60.34-7.4a3.57,3.57,0,0,1,2.887-1.207,3.486,3.486,0,0,1,2.492.891,2.976,2.976,0,0,1,.914,2.344l-.016.047H64.539a1.687,1.687,0,0,0-.348-1.09,1.168,1.168,0,0,0-.965-.434,1.3,1.3,0,0,0-1.254.707A3.878,3.878,0,0,0,61.6-4.336V-4.1a3.863,3.863,0,0,0,.371,1.82A1.32,1.32,0,0,0,63.242-1.586ZM70.359,0H68.078V-8.453h2.281Zm0-10.477H68.078v-1.711h2.281ZM71.883-4.3a4.536,4.536,0,0,1,1.055-3.1,3.676,3.676,0,0,1,2.922-1.207,3.715,3.715,0,0,1,2.938,1.2,4.512,4.512,0,0,1,1.063,3.1v.164A4.519,4.519,0,0,1,78.8-1.035a3.7,3.7,0,0,1-2.926,1.2,3.709,3.709,0,0,1-2.934-1.2,4.519,4.519,0,0,1-1.059-3.105Zm2.273.164a3.677,3.677,0,0,0,.406,1.855,1.4,1.4,0,0,0,1.313.7,1.389,1.389,0,0,0,1.293-.7,3.653,3.653,0,0,0,.41-1.852V-4.3a3.616,3.616,0,0,0-.414-1.836,1.4,1.4,0,0,0-1.3-.711,1.384,1.384,0,0,0-1.293.715,3.648,3.648,0,0,0-.41,1.832Zm2.164-7.922h2.539l.016.047L76.711-9.984H74.766Zm7.031,3.609.1,1.211A3.092,3.092,0,0,1,84.492-8.25a2.7,2.7,0,0,1,1.383-.359,2.513,2.513,0,0,1,2,.824,3.908,3.908,0,0,1,.719,2.605V0H86.3V-5.172a2.024,2.024,0,0,0-.316-1.285,1.166,1.166,0,0,0-.949-.379,1.992,1.992,0,0,0-.895.191,1.746,1.746,0,0,0-.637.527V0H81.227V-8.453Z" transform="translate(-3344 -7394.695)" fill="#12263f"/>
    <g id="Grupo_1100293" data-name="Grupo 1100293" transform="translate(-69.963 27)">
      <path id="Trazado_877628" data-name="Trazado 877628" d="M83.33,157.863A61.649,61.649,0,1,1,157.7,112.369,61.648,61.648,0,0,1,83.33,157.863" transform="translate(-3326.107 -8409.267)" fill="#082952"/>
      <path id="Trazado_877633" data-name="Trazado 877633" d="M101.31,175.459A73.82,73.82,0,1,1,148.084,44.418h0A73.817,73.817,0,0,1,108.926,175.07a75.2,75.2,0,0,1-7.616.389m.2-146.127a72.271,72.271,0,1,0,45.635,16.237,72.223,72.223,0,0,0-45.635-16.237" transform="translate(-3330.66 -8412.839)" fill="#082952"/>
      <g id="Grupo_1100283" data-name="Grupo 1100283" transform="translate(-3255 -8340)">
        <g id="Grupo_1100282" data-name="Grupo 1100282" clip-path="url(#clip-path)">
          <path id="Trazado_877671" data-name="Trazado 877671" d="M52.14,196.742H46.763a.716.716,0,0,1-.715-.7l-.525-29.455a.716.716,0,0,1,1.431-.025l.513,28.752h3.958V176.15a.716.716,0,1,1,1.431,0v19.877a.716.716,0,0,1-.716.716" transform="translate(-38.107 -138.839)" fill="#fff"/>
          <path id="Trazado_877672" data-name="Trazado 877672" d="M57.048,41.616a5.519,5.519,0,0,1-.018-11.038h.019a5.519,5.519,0,0,1,.019,11.038Zm0-9.606h-.014A4.088,4.088,0,0,0,54.168,39a4.088,4.088,0,0,0,6.968-2.914,4.092,4.092,0,0,0-4.087-4.074" transform="translate(-43.136 -25.597)" fill="#fff"/>
          <path id="Trazado_877673" data-name="Trazado 877673" d="M31.1,152.337H25.742a.716.716,0,0,1,0-1.431H30.4l.549-31.669a.715.715,0,0,1,.711-.7l12.89-.075a2.169,2.169,0,0,0,2.234-2.04c0-1.531-1.708-1.79-2.232-1.834-2.23-.184-5.352-.211-8.108-.235-1.173-.01-2.281-.02-3.18-.041-2.169-.052-3.269-.067-6.375-.067a35.493,35.493,0,0,0-7.432.519c-1.878.406-4.033,1.457-4.037,6.021l.4,11.826c0,.008,0,.016,0,.024a1.911,1.911,0,0,0,1.8,1.954,1.64,1.64,0,0,0,1.625-1.562.716.716,0,1,1,1.431,0,3.067,3.067,0,0,1-3.056,2.994,3.313,3.313,0,0,1-3.229-3.373l-.395-11.826q0-.012,0-.024c0-4.249,1.69-6.68,5.166-7.431a36.658,36.658,0,0,1,7.734-.551c3.121,0,4.227.015,6.409.067.888.021,1.991.031,3.158.041,2.78.024,5.931.052,8.213.24,2.154.177,3.545,1.457,3.545,3.26a3.625,3.625,0,0,1-3.661,3.471l-12.186.071-.549,31.673a.716.716,0,0,1-.715.7" transform="translate(-11.709 -94.434)" fill="#fff"/>
          <path id="Trazado_877674" data-name="Trazado 877674" d="M174.234,182.327l-.052,0a.716.716,0,0,1-.663-.765l2.293-32.138a.716.716,0,1,1,1.428.1l-2.293,32.138a.716.716,0,0,1-.713.665" transform="translate(-145.253 -124.526)" fill="#fff"/>
          <path id="Trazado_877675" data-name="Trazado 877675" d="M190.834,19.907l-.052,0a.716.716,0,0,1-.663-.765L191.438.665a.716.716,0,1,1,1.427.1l-1.318,18.476a.716.716,0,0,1-.713.665" transform="translate(-159.149 0)" fill="#fff"/>
          <path id="Trazado_877676" data-name="Trazado 877676" d="M36.326,348.112H.716a.716.716,0,0,1,0-1.431h35.61a.716.716,0,0,1,0,1.431" transform="translate(0 -290.209)" fill="#fff"/>
          <path id="Trazado_877677" data-name="Trazado 877677" d="M204.014,26.51l-.051,0L193.89,25.79a.716.716,0,0,1-.663-.765l.632-8.855a.715.715,0,0,1,.765-.663l10.073.719a.716.716,0,0,1,.663.765l-.632,8.855a.716.716,0,0,1-.714.665m-9.308-2.1,8.645.617.53-7.428-8.645-.617Z" transform="translate(-161.751 -12.98)" fill="#fff"/>
          <path id="Trazado_877678" data-name="Trazado 877678" d="M252.74,54.527l-.051,0-11.2-.8a.716.716,0,1,1,.1-1.428l9.862.7-2-3.474a.716.716,0,0,1,.057-.8l2.472-3.155-7.589-.541a.716.716,0,1,1,.1-1.428l8.931.637a.716.716,0,0,1,.512,1.155l-3,3.835,2.429,4.222a.716.716,0,0,1-.62,1.072" transform="translate(-201.593 -36.501)" fill="#fff"/>
        </g>
      </g>
    </g>
    <g id="Grupo_1100297" data-name="Grupo 1100297" transform="translate(-70.84 1.372)">
      <path id="Trazado_877627" data-name="Trazado 877627" d="M675.777,49.9a61.649,61.649,0,1,1-86.736,8.834A61.65,61.65,0,0,1,675.777,49.9" transform="translate(-3865.163 -7592.954)" fill="#082952"/>
      <path id="Trazado_877629" data-name="Trazado 877629" d="M640.653,175.459A73.82,73.82,0,1,1,687.427,44.418h0A73.817,73.817,0,0,1,648.27,175.07a75.2,75.2,0,0,1-7.616.389m.2-146.127a72.271,72.271,0,1,0,45.635,16.237,72.223,72.223,0,0,0-45.635-16.237" transform="translate(-3869.127 -7596.905)" fill="#082952"/>
      <g id="Grupo_1100285" data-name="Grupo 1100285" transform="translate(-3258.646 -7515.872)">
        <g id="Grupo_1100284" data-name="Grupo 1100284" transform="translate(-4 -2)" clip-path="url(#clip-path-2)">
          <path id="Trazado_877679" data-name="Trazado 877679" d="M132.31,230.872a4.215,4.215,0,0,1-4.17-3.914,3.819,3.819,0,0,1,1.008-2.869L131.089,222a4.093,4.093,0,0,1,6,5.563l-1.941,2.093a3.82,3.82,0,0,1-2.785,1.221h-.049m1.612-8.539a2.287,2.287,0,0,0-1.692.722l-1.941,2.093a2.276,2.276,0,0,0-.6,1.712,2.657,2.657,0,0,0,2.647,2.455,2.277,2.277,0,0,0,1.662-.722l1.941-2.093a2.457,2.457,0,0,0-.247-3.458,2.617,2.617,0,0,0-1.775-.708m-4.2,2.285h0Z" transform="translate(-105.418 -181.64)" fill="#fff"/>
          <path id="Trazado_877680" data-name="Trazado 877680" d="M103.194,202.393a4.09,4.09,0,0,1-2.995-6.871l2.752-2.967a4.09,4.09,0,0,1,6,5.563l-2.752,2.967a4.063,4.063,0,0,1-2.845,1.306c-.053,0-.105,0-.158,0m-2.424-6.342.571.53a2.532,2.532,0,1,0,3.713,3.444l2.752-2.967a2.532,2.532,0,1,0-3.713-3.444l-2.752,2.967Z" transform="translate(-81.539 -157.345)" fill="#fff"/>
          <path id="Trazado_877681" data-name="Trazado 877681" d="M73.758,173.277a4.088,4.088,0,0,1-3-6.869l3.932-4.239a4.09,4.09,0,1,1,6,5.563l-3.932,4.239a4.08,4.08,0,0,1-3,1.307m-1.855-5.81a2.533,2.533,0,1,0,3.714,3.444l3.931-4.239a2.532,2.532,0,1,0-3.713-3.444Z" transform="translate(-57.321 -132.344)" fill="#fff"/>
          <path id="Trazado_877682" data-name="Trazado 877682" d="M52.294,147.462a4.09,4.09,0,0,1-2.995-6.871l2.752-2.967a4.09,4.09,0,0,1,6,5.563L55.3,146.154a4.064,4.064,0,0,1-2.845,1.306c-.053,0-.105,0-.158,0m2.757-9.588a2.525,2.525,0,0,0-1.857.809l-2.752,2.967a2.532,2.532,0,1,0,3.713,3.444l2.752-2.967a2.531,2.531,0,0,0-1.856-4.253m-5.181,3.247h0Z" transform="translate(-39.664 -112.152)" fill="#fff"/>
          <path id="Trazado_877683" data-name="Trazado 877683" d="M243.427,183.786a4.5,4.5,0,0,1-3.206-1.324l-5.823-5.823a.779.779,0,1,1,1.1-1.1l5.823,5.823a2.988,2.988,0,0,0,2.127.868,3.063,3.063,0,0,0,2.189-5.184l-8.485-8.485a.779.779,0,0,1,1.1-1.1l8.485,8.485a4.621,4.621,0,0,1-3.28,7.843h-.032" transform="translate(-192.657 -137.585)" fill="#fff"/>
          <path id="Trazado_877684" data-name="Trazado 877684" d="M218.649,217.913a4.517,4.517,0,0,1-3.207-1.322l-2.43-2.43a.779.779,0,0,1,1.1-1.1l2.43,2.43a3.052,3.052,0,0,0,4.316-4.316l-5.568-5.568a.779.779,0,1,1,1.1-1.1l5.568,5.568a4.618,4.618,0,0,1-3.311,7.84" transform="translate(-175.064 -168.064)" fill="#fff"/>
          <path id="Trazado_877685" data-name="Trazado 877685" d="M177.946,250.207a4.516,4.516,0,0,1-3.207-1.322l-1.662-1.662a.779.779,0,1,1,1.1-1.1l1.662,1.662a3.052,3.052,0,0,0,4.316-4.316l-2.24-2.24a.779.779,0,0,1,1.1-1.1l2.24,2.24a4.618,4.618,0,0,1-3.311,7.841" transform="translate(-142.208 -197.372)" fill="#fff"/>
          <path id="Trazado_877686" data-name="Trazado 877686" d="M170.033,78.742a4.516,4.516,0,0,1-3.207-1.322l-8.934-8.934a.779.779,0,0,1,1.1-1.1l8.934,8.934A3.052,3.052,0,0,0,172.243,72L159.634,59.394c-5.189-4.976-6.917-4.956-9.883-3.681l-6.016,2.754a4.333,4.333,0,0,1-5.964-5.226,4.411,4.411,0,0,1,2.191-2.625l7.866-4.1a10.39,10.39,0,0,1,5.243-1.171c.81.035,1.742.11,2.729.19a38.9,38.9,0,0,0,7.109.159.779.779,0,0,1,.186,1.546,39.943,39.943,0,0,1-7.421-.153c-.972-.079-1.89-.153-2.671-.186a8.841,8.841,0,0,0-4.456,1L140.681,52a2.865,2.865,0,0,0-1.423,1.7,2.775,2.775,0,0,0,3.828,3.35l6.024-2.758.016-.007c4.074-1.753,6.459-.932,11.6,4L173.345,70.9a4.618,4.618,0,0,1-3.311,7.841" transform="translate(-113.184 -37.298)" fill="#fff"/>
          <path id="Trazado_877687" data-name="Trazado 877687" d="M118.18,45.629a.778.778,0,0,1-.28-.052l-6.5-2.511a.779.779,0,0,1,.561-1.453l6.5,2.511a.779.779,0,0,1-.281,1.505" transform="translate(-91.239 -34.192)" fill="#fff"/>
          <path id="Trazado_877688" data-name="Trazado 877688" d="M50.506,136.423a.778.778,0,0,1-.684-.406l-2.063-3.783a.779.779,0,0,1,1.367-.746l2.063,3.783a.779.779,0,0,1-.683,1.152" transform="translate(-39.214 -107.845)" fill="#fff"/>
          <path id="Trazado_877689" data-name="Trazado 877689" d="M331.291,119.922a.779.779,0,0,1-.551-1.33l.7-.7a16.993,16.993,0,0,0,4.575-8.321.779.779,0,0,1,1.52.34,18.549,18.549,0,0,1-4.994,9.083l-.7.7a.776.776,0,0,1-.551.228" transform="translate(-271.922 -89.646)" fill="#fff"/>
          <path id="Trazado_877690" data-name="Trazado 877690" d="M302.586,22.643a.777.777,0,0,1-.551-.228L286.891,7.27a.779.779,0,0,1,0-1.1L292.772.287a.779.779,0,0,1,1.1,0l15.144,15.144a.778.778,0,0,1,0,1.1l-5.882,5.882a.777.777,0,0,1-.551.228M288.543,6.72l14.043,14.043,4.78-4.78L293.323,1.939Z" transform="translate(-235.846 -0.049)" fill="#fff"/>
          <path id="Trazado_877691" data-name="Trazado 877691" d="M6.66,22.583a.778.778,0,0,1-.551-.228L.228,16.473a.779.779,0,0,1,0-1.1L15.372.228a.779.779,0,0,1,1.1,0L22.355,6.11a.779.779,0,0,1,0,1.1L7.211,22.355a.778.778,0,0,1-.551.228m-4.78-6.66L6.66,20.7,20.7,6.66l-4.78-4.78ZM11.291,5.41h0Z" transform="translate(0)" fill="#fff"/>
        </g>
      </g>
    </g>
    <g id="Grupo_1100295" data-name="Grupo 1100295" transform="translate(-70.84 14.661)">
      <path id="Trazado_877625" data-name="Trazado 877625" d="M406.247,50.142a61.649,61.649,0,1,1-86.737,8.834,61.65,61.65,0,0,1,86.737-8.834" transform="translate(-3595.571 -8004.852)" fill="#082952"/>
      <path id="Trazado_877631" data-name="Trazado 877631" d="M371.081,175.459A73.82,73.82,0,1,1,417.855,44.418h0A73.817,73.817,0,0,1,378.7,175.07a75.2,75.2,0,0,1-7.616.389m.2-146.127a72.271,72.271,0,1,0,45.635,16.237,72.223,72.223,0,0,0-45.635-16.237" transform="translate(-3599.555 -8008.921)" fill="#082952"/>
      <g id="Grupo_1100287" data-name="Grupo 1100287" transform="translate(-3260.307 -7935.959)">
        <g id="Grupo_1100286" data-name="Grupo 1100286" clip-path="url(#clip-path-3)">
          <path id="Trazado_877692" data-name="Trazado 877692" d="M153.633,53.373a.929.929,0,0,1-.64-.255L142.276,42.939h-12.7a5.5,5.5,0,0,1-5.5-5.487V5.487A5.5,5.5,0,0,1,129.579,0H159.47a5.5,5.5,0,0,1,5.5,5.487V36.371a5.5,5.5,0,0,1-5.5,5.487h-1.291a.929.929,0,1,1,0-1.858h1.291a3.641,3.641,0,0,0,3.645-3.629V5.487a3.641,3.641,0,0,0-3.645-3.629H129.579a3.642,3.642,0,0,0-3.646,3.629V37.452a3.642,3.642,0,0,0,3.646,3.629h13.068a.928.928,0,0,1,.64.255L152.7,50.28V39.847a.929.929,0,1,1,1.858,0v12.6a.929.929,0,0,1-.929.929" transform="translate(-97.831)" fill="#fff"/>
          <path id="Trazado_877693" data-name="Trazado 877693" d="M45.735,233.7a1.761,1.761,0,0,1-.616-.112,1.727,1.727,0,0,1-1.129-1.621l-.054-10.516a.929.929,0,0,1,.924-.934h0a.929.929,0,0,1,.929.924l.052,10.205,8.3-9.437a.929.929,0,0,1,.7-.315H64c3.291,0,5.255-1.743,5.255-4.661a.929.929,0,1,1,1.858,0c0,3.96-2.792,6.519-7.113,6.519H55.266l-8.231,9.356a1.726,1.726,0,0,1-1.3.593" transform="translate(-34.643 -170.551)" fill="#fff"/>
          <path id="Trazado_877694" data-name="Trazado 877694" d="M5.5,90.109A5.251,5.251,0,0,1,0,84.886V52.66a5.5,5.5,0,0,1,5.5-5.487H22.865a.929.929,0,0,1,0,1.858H5.5A3.641,3.641,0,0,0,1.858,52.66V84.886A3.436,3.436,0,0,0,5.5,88.251a.929.929,0,1,1,0,1.858" transform="translate(0 -37.195)" fill="#fff"/>
          <path id="Trazado_877695" data-name="Trazado 877695" d="M191.585,65.243a.929.929,0,0,1-.929-.929V60.861a2.79,2.79,0,0,1,2.2-2.738A5.862,5.862,0,0,0,197.46,52a5.955,5.955,0,0,0-5.5-5.5,5.887,5.887,0,0,0-6.264,5.875.929.929,0,1,1-1.858,0,7.775,7.775,0,0,1,2.442-5.645,7.746,7.746,0,1,1,6.979,13.208.943.943,0,0,0-.747.924v3.453a.929.929,0,0,1-.929.929" transform="translate(-144.955 -35.189)" fill="#fff"/>
          <path id="Trazado_877696" data-name="Trazado 877696" d="M73.529,199.364a1.283,1.283,0,1,1,1.283-1.283,1.285,1.285,0,0,1-1.283,1.283m0-1.858a.575.575,0,1,0,.575.575.576.576,0,0,0-.575-.575" transform="translate(-56.965 -155.172)" fill="#fff"/>
          <path id="Trazado_877697" data-name="Trazado 877697" d="M215.973,156.549a1.283,1.283,0,1,1,1.283-1.283,1.285,1.285,0,0,1-1.283,1.283m0-1.858a.575.575,0,1,0,.575.575.576.576,0,0,0-.575-.575" transform="translate(-169.28 -121.413)" fill="#fff"/>
          <path id="Trazado_877698" data-name="Trazado 877698" d="M74.849,118.183a.929.929,0,0,1-.929-.929V101.187a.929.929,0,1,1,1.858,0v16.067a.929.929,0,0,1-.929.929" transform="translate(-58.285 -79.052)" fill="#fff"/>
        </g>
      </g>
    </g>
    <g id="Grupo_1100296" data-name="Grupo 1100296" transform="translate(-69.963 8.516)">
      <path id="Trazado_877626" data-name="Trazado 877626" d="M541.012,50.142a61.649,61.649,0,1,1-86.736,8.834,61.65,61.65,0,0,1,86.736-8.834" transform="translate(-3731.414 -7797.836)" fill="#e6d567"/>
      <path id="Trazado_877630" data-name="Trazado 877630" d="M505.983,175.459A73.82,73.82,0,1,1,552.757,44.418h0A73.817,73.817,0,0,1,513.6,175.07a75.2,75.2,0,0,1-7.616.389m.2-146.127a72.268,72.268,0,1,0,45.636,16.237,72.223,72.223,0,0,0-45.636-16.237" transform="translate(-3735.333 -7801.905)" fill="#b8aa52"/>
      <g id="Grupo_1100289" data-name="Grupo 1100289" transform="translate(-3260.167 -7734.986)">
        <g id="Grupo_1100288" data-name="Grupo 1100288" clip-path="url(#clip-path-4)">
          <path id="Trazado_877699" data-name="Trazado 877699" d="M43.082,14.565h-.026A7.283,7.283,0,0,1,43.107,0a7.283,7.283,0,0,1,5.107,12.45,7.234,7.234,0,0,1-5.132,2.115m0-12.8a5.515,5.515,0,0,0-3.912,9.4A5.478,5.478,0,0,0,43.063,12.8h.019a5.515,5.515,0,0,0,3.912-9.4A5.478,5.478,0,0,0,43.1,1.768h-.019M49.48,7.3h0Z" transform="translate(-28.593 0.001)" fill="#082952"/>
          <path id="Trazado_877700" data-name="Trazado 877700" d="M7.031,112.739a6.474,6.474,0,0,1-6.146-4.361A8.349,8.349,0,0,1,.4,105.853L0,94.721A7.6,7.6,0,0,1,5.748,87.3a32.183,32.183,0,0,1,8.711-1.031,31.886,31.886,0,0,1,8.7,1.078,8.76,8.76,0,0,1,3.42,1.892.884.884,0,1,1-1.186,1.311,6.983,6.983,0,0,0-2.727-1.5,30.134,30.134,0,0,0-8.207-1.008A29.889,29.889,0,0,0,6.232,89a5.843,5.843,0,0,0-4.46,5.659l.393,11.131a6.581,6.581,0,0,0,.386,1.992,4.726,4.726,0,0,0,4.482,3.189H7.07a.884.884,0,0,1,.006,1.768H7.031" transform="translate(0 -68.904)" fill="#082952"/>
          <path id="Trazado_877701" data-name="Trazado 877701" d="M71.788,247.362H69.745A3.244,3.244,0,0,1,66.5,244.1l.071-17.347a.884.884,0,0,1,.884-.881h0a.884.884,0,0,1,.881.888l-.071,17.347a1.476,1.476,0,0,0,1.476,1.482h2.042a1.468,1.468,0,0,0,1.476-1.44l.5-15.353a.884.884,0,0,1,1.767.057l-.5,15.346a3.224,3.224,0,0,1-3.243,3.157" transform="translate(-53.115 -180.412)" fill="#082952"/>
          <path id="Trazado_877702" data-name="Trazado 877702" d="M35.688,172.4H33.652a3.26,3.26,0,0,1-3.244-3.189l-.625-36.288a.884.884,0,1,1,1.768-.03l.625,36.288a1.483,1.483,0,0,0,1.476,1.451h2.036a1.478,1.478,0,0,0,1.476-1.476V165.2a.884.884,0,0,1,1.769,0v3.951a3.248,3.248,0,0,1-3.245,3.244" transform="translate(-23.788 -105.449)" fill="#082952"/>
          <path id="Trazado_877703" data-name="Trazado 877703" d="M217.237,14.565h-.026A7.283,7.283,0,0,1,212.1,2.115,7.235,7.235,0,0,1,217.235,0h.026a7.283,7.283,0,0,1,7.258,7.308l-.884,0,.884,0a7.284,7.284,0,0,1-7.282,7.258m0-12.8a5.515,5.515,0,0,0-3.912,9.4,5.477,5.477,0,0,0,3.894,1.628h.019a5.515,5.515,0,0,0,3.912-9.4,5.479,5.479,0,0,0-3.894-1.628h-.019" transform="translate(-167.693 0.001)" fill="#082952"/>
          <path id="Trazado_877704" data-name="Trazado 877704" d="M196.35,112.811a.884.884,0,1,1,0-1.768,4.778,4.778,0,0,0,4.438-2.927,6.619,6.619,0,0,0,.508-2.261l.484-11.124a5.828,5.828,0,0,0-4.418-5.689A34.733,34.733,0,0,0,180.934,89a6.255,6.255,0,0,0-4.364,3.951.884.884,0,0,1-1.69-.521A8.033,8.033,0,0,1,180.45,87.3a36.45,36.45,0,0,1,17.406.047,7.588,7.588,0,0,1,5.691,7.464l-.484,11.124a8.388,8.388,0,0,1-.643,2.863,6.541,6.541,0,0,1-6.071,4.016" transform="translate(-139.648 -68.902)" fill="#082952"/>
          <path id="Trazado_877705" data-name="Trazado 877705" d="M245.943,172.564H243.9a3.245,3.245,0,0,1-3.244-3.258l.067-12.866a.884.884,0,1,1,1.768.009l-.067,12.865A1.476,1.476,0,0,0,243.9,170.8h2.042a1.468,1.468,0,0,0,1.476-1.44l.9-36.264a.884.884,0,1,1,1.768.044l-.9,36.264a3.226,3.226,0,0,1-3.243,3.164" transform="translate(-192.216 -105.614)" fill="#082952"/>
          <path id="Trazado_877706" data-name="Trazado 877706" d="M211.5,284.977h-2.036a3.26,3.26,0,0,1-3.244-3.189l-.207-7.91a.884.884,0,1,1,1.768-.046l.207,7.918a1.485,1.485,0,0,0,1.476,1.458H211.5a1.478,1.478,0,0,0,1.476-1.476v-3.951a.884.884,0,0,1,1.768,0v3.951a3.248,3.248,0,0,1-3.244,3.244" transform="translate(-164.548 -218.027)" fill="#082952"/>
          <path id="Trazado_877707" data-name="Trazado 877707" d="M70.205,138.86a.884.884,0,0,1-.505-.159l-8.3-5.775a3.5,3.5,0,0,1-.13-5.645l8.394-6.433a.884.884,0,0,1,1.421.656l.22,4.292H83.942a.884.884,0,1,1,0,1.768H70.469a.884.884,0,0,1-.883-.839l-.177-3.452-7.059,5.41a1.728,1.728,0,0,0,.064,2.79l7,4.875.168-2.768a.884.884,0,0,1,1.765.107l-.264,4.34a.884.884,0,0,1-.882.831" transform="translate(-47.847 -96.378)" fill="#082952"/>
          <path id="Trazado_877708" data-name="Trazado 877708" d="M128.659,177.588a.884.884,0,0,1-.883-.841l-.223-4.553H115.407a.884.884,0,0,1,0-1.768H128.4a.884.884,0,0,1,.883.841l.18,3.679,7.121-5.625a1.728,1.728,0,0,0-.084-2.774l-7.049-4.906-.168,2.768a.884.884,0,0,1-.883.831h-18.2a.884.884,0,1,1,0-1.768h17.371l.213-3.509a.884.884,0,0,1,1.388-.672l8.342,5.806a3.5,3.5,0,0,1,.17,5.614l-8.468,6.689a.883.883,0,0,1-.548.19" transform="translate(-87.306 -127.101)" fill="#082952"/>
        </g>
      </g>
    </g>
    <g id="Grupo_1100294" data-name="Grupo 1100294" transform="translate(-73.311 27)">
      <path id="Trazado_877624" data-name="Trazado 877624" d="M271.482,50.142a61.649,61.649,0,1,1-86.736,8.834,61.65,61.65,0,0,1,86.736-8.834" transform="translate(-3458.473 -8212.98)" fill="#e6d567"/>
      <path id="Trazado_877632" data-name="Trazado 877632" d="M236.411,175.459A73.82,73.82,0,1,1,283.185,44.418h0A73.817,73.817,0,0,1,244.027,175.07a75.2,75.2,0,0,1-7.616.389m.2-146.127a72.271,72.271,0,1,0,45.635,16.237,72.223,72.223,0,0,0-45.635-16.237" transform="translate(-3462.412 -8217.05)" fill="#b8aa52"/>
      <g id="Grupo_1100291" data-name="Grupo 1100291" transform="translate(-3255.993 -8149.088)">
        <g id="Grupo_1100290" data-name="Grupo 1100290" clip-path="url(#clip-path-5)">
          <path id="Trazado_877709" data-name="Trazado 877709" d="M112.626,165.324H101.4c-12.737,0-17.865-2.9-21.61-5.011-.689-.389-1.34-.757-1.957-1.053a.916.916,0,1,1,.793-1.65c.672.323,1.348.7,2.064,1.109,3.568,2.015,8.454,4.774,20.709,4.774h11.223a4.051,4.051,0,0,0,4.046-4.046v-.1a3.818,3.818,0,0,0-4.046-3.745.916.916,0,0,1,0-1.831h1.538a4.05,4.05,0,0,0,4.046-4.046v-.191a3.757,3.757,0,0,0-3.5-3.708.916.916,0,0,1,.123-1.823h.579a4.05,4.05,0,0,0,4.046-4.046V139.7a3.748,3.748,0,0,0-3.437-3.7h-.406a.916.916,0,0,1,0-1.831,4.051,4.051,0,0,0,4.046-4.046v-.255a3.749,3.749,0,0,0-3.745-3.745.916.916,0,1,1,0-1.831,5.582,5.582,0,0,1,5.576,5.576v.255a5.878,5.878,0,0,1-2.739,4.967,5.394,5.394,0,0,1,2.537,4.609v.255a5.884,5.884,0,0,1-3.327,5.294,5.376,5.376,0,0,1,2.075,4.282v.191a5.886,5.886,0,0,1-3.515,5.382,5.409,5.409,0,0,1,1.977,4.24v.1a5.884,5.884,0,0,1-5.877,5.877" transform="translate(-61.978 -99.638)" fill="#082952"/>
          <path id="Trazado_877710" data-name="Trazado 877710" d="M12.591,169.734H.916A.915.915,0,0,1,0,168.818v-33.1a.916.916,0,0,1,.916-.916H12.591a.916.916,0,0,1,.916.916v33.1a.915.915,0,0,1-.916.916M1.831,167.9h9.844V136.633H1.831Z" transform="translate(0 -108.059)" fill="#082952"/>
          <path id="Trazado_877711" data-name="Trazado 877711" d="M226.215,225.465h-8.684a.916.916,0,1,1,0-1.831h8.684a.916.916,0,0,1,0,1.831" transform="translate(-173.643 -179.268)" fill="#082952"/>
          <path id="Trazado_877712" data-name="Trazado 877712" d="M232.622,175.911h-9.516a.916.916,0,0,1,0-1.831h9.516a.916.916,0,1,1,0,1.831" transform="translate(-178.111 -139.545)" fill="#082952"/>
          <path id="Trazado_877713" data-name="Trazado 877713" d="M202.981,284.423H199.41a5.777,5.777,0,1,1,0-11.553h3.571a.916.916,0,1,1,0,1.831H199.41a3.945,3.945,0,1,0,0,7.891h3.571a.916.916,0,1,1,0,1.831" transform="translate(-155.219 -218.737)" fill="#082952"/>
          <path id="Trazado_877714" data-name="Trazado 877714" d="M195.744,185.741a5.831,5.831,0,1,1,0-11.662.916.916,0,0,1,0,1.831,4,4,0,1,0,0,8,.916.916,0,0,1,0,1.831" transform="translate(-152.237 -139.544)" fill="#082952"/>
          <path id="Trazado_877715" data-name="Trazado 877715" d="M203.735,136H201.84a5.854,5.854,0,1,1,0-11.707h9.206a.916.916,0,1,1,0,1.831H201.84a4.023,4.023,0,0,0,0,8.045h1.895a.916.916,0,1,1,0,1.831" transform="translate(-157.105 -99.638)" fill="#082952"/>
          <path id="Trazado_877716" data-name="Trazado 877716" d="M203.928,235.233h-7.982a5.8,5.8,0,1,1,0-11.6.916.916,0,0,1,0,1.831,3.968,3.968,0,1,0,0,7.937h7.982a.916.916,0,0,1,0,1.831" transform="translate(-152.424 -179.268)" fill="#082952"/>
          <path id="Trazado_877717" data-name="Trazado 877717" d="M73.244,45.811a.916.916,0,0,1-.436-1.721c7.678-4.148,7.42-14.366,7.159-17.4a3.892,3.892,0,0,1,.63-2.474c1.537-2.32,5.017-8.475,4.135-15.493-.859-6.84-4.325-6.892-5.507-6.893A2.128,2.128,0,0,0,77.25,3.693l-.016.132a52.024,52.024,0,0,1-1.714,9.193,28.973,28.973,0,0,1-5.548,9.974q-.286.371-.567.74a49.8,49.8,0,0,1-9.157,8.582.916.916,0,1,1-.961-1.559,48.271,48.271,0,0,0,8.662-8.133q.284-.372.572-.746A27.069,27.069,0,0,0,73.764,12.5a49.946,49.946,0,0,0,1.653-8.9l.017-.133A3.957,3.957,0,0,1,79.149,0H79.2c2.866,0,6.468,1.474,7.35,8.5.958,7.627-2.776,14.242-4.425,16.733a2.053,2.053,0,0,0-.333,1.3c.286,3.314.547,14.49-8.112,19.168a.913.913,0,0,1-.434.11" transform="translate(-47.176)" fill="#082952"/>
          <path id="Trazado_877718" data-name="Trazado 877718" d="M170.774,126.127h-3.422a.916.916,0,0,1,0-1.831h3.422a.916.916,0,0,1,0,1.831" transform="translate(-133.418 -99.638)" fill="#082952"/>
          <path id="Trazado_877719" data-name="Trazado 877719" d="M221.733,175.911h-6.848a.916.916,0,1,1,0-1.831h6.848a.916.916,0,0,1,0,1.831" transform="translate(-171.521 -139.545)" fill="#082952"/>
          <path id="Trazado_877720" data-name="Trazado 877720" d="M28.1,272.292a1.471,1.471,0,1,1,1.471-1.471,1.473,1.473,0,0,1-1.471,1.471m0-1.831a.36.36,0,1,0,.36.36.361.361,0,0,0-.36-.36" transform="translate(-21.345 -215.916)" fill="#082952"/>
        </g>
      </g>
    </g>
    <path id="Trazado_877721" data-name="Trazado 877721" d="M86.894,11.887a6.605,6.605,0,1,1-6.605-6.605,6.6,6.6,0,0,1,6.605,6.605" transform="translate(-3378.789 -8222.268)" fill="#e6d567"/>
    <path id="Trazado_877722" data-name="Trazado 877722" d="M86.894,11.887a6.605,6.605,0,1,1-6.605-6.605,6.6,6.6,0,0,1,6.605,6.605" transform="translate(-3378.789 -8026.478)" fill="#082952"/>
    <path id="Trazado_877723" data-name="Trazado 877723" d="M86.894,11.887a6.605,6.605,0,1,1-6.605-6.605,6.6,6.6,0,0,1,6.605,6.605" transform="translate(-3378.789 -7830.689)" fill="#e6d567"/>
    <path id="Trazado_877724" data-name="Trazado 877724" d="M86.894,11.887a6.605,6.605,0,1,1-6.605-6.605,6.6,6.6,0,0,1,6.605,6.605" transform="translate(-3378.789 -7629.817)" fill="#082952"/>
    <path id="Trazado_877725" data-name="Trazado 877725" d="M86.894,11.887a6.605,6.605,0,1,1-6.605-6.605,6.6,6.6,0,0,1,6.605,6.605" transform="translate(-3378.789 -7431.962)" fill="#e6d567"/>
  </g>
</svg>
